<?xml version="1.0" encoding="UTF-8"?>
<svg width="555px" height="476px" viewBox="0 0 555 476" version="1.1" xmlns="http://www.w3.org/2000/svg" xmlns:xlink="http://www.w3.org/1999/xlink">
    <!-- Generator: Sketch 50.2 (55047) - http://www.bohemiancoding.com/sketch -->
    <title>arthritis copy</title>
    <desc>Created with Sketch.</desc>
    <defs>
        <path d="M6.3,18.7 C5,18.1 2,17.6 0.9,20.9 C-0.2,24.2 0.7,25.5 2,26.6 C3.3,27.7 4.9,27.9 4.9,27.9 C4.9,27.9 5.8,40 8.8,46 C11.8,52 19.7,57.8 27.7,57.3 C36.8,56.8 43.4,52.1 47.2,45.6 C51,39.1 53.7,28.6 54.2,22 C54.6,16.9 55.4,9.4 53.2,7.2 C51,5 48.7,8.2 46.7,8.9 C44.8,9.6 40.9,10.2 37.1,7.5 C33.3,4.8 29.4,2.4 26.4,1.4 C23.4,0.4 21.1,0.6 18.5,3.3 C16.6,5.3 15.9,8.1 15.8,10 C15.7,11.8 15.7,16.5 15.1,20.8 C14.5,25.1 13.6,29.2 13.6,29.2 C13.6,29.2 11.7,28.2 11.5,25.8 C11.3,23.4 10.9,19.4 10.6,17.8 C10.3,16.2 10.3,16.2 10.3,16.2 L8.4,19.9 C8.5,20.3 6.9,19 6.3,18.7 Z" id="path-1"></path>
        <path d="M13,1.2 C13,1.2 16.5,27.8 14.5,30.8 C12.6,33.6 9,32.8 9,32.8 C9,32.8 7.8,48.5 1,52.1 C-3.5,54.5 17.9,49.4 17.9,49.4 L27.3,34.5 L29.8,24.3 L30.9,14 L30.2,0 L13,1.2 Z" id="path-3"></path>
    </defs>
    <g id="arthritis-copy" stroke="none" stroke-width="1" fill="none" fill-rule="evenodd">
        <g id="Group-3" transform="translate(0.000000, 26.000000)">
            <text id="Can-the-pain-of-arthritis" font-family="LucidaGrande, Lucida Grande" font-size="14" font-weight="normal" letter-spacing="-0.098" fill="#FEFEFE">
                <tspan x="155" y="141">C</tspan>
                <tspan x="164.588523" y="141" letter-spacing="-0.07153247">an the pain of arthritis</tspan>
            </text>
            <rect id="Rectangle-3" fill="#F6F6F6" x="172" y="0" width="195" height="338" rx="35"></rect>
            <path d="M333.061,102 L333.063,102.003 L135.03,102.003 C131.713,102.003 129,104.685 129,107.962 L129,189.075 C129,192.353 131.713,195.035 135.03,195.035 L337.554,195.035 C340.87,195.035 343.583,192.353 343.583,189.075 L343.583,116.982 C343.743833,117.008511 346.618767,114.086644 349.777954,110.816702 C353.768684,106.686065 358.213,102 358.213,102 L333.061,102 Z" id="Fill-7" fill="#1080C4"></path>
            <g id="Group" transform="translate(184.000000, 32.000000)">
                <path d="M0.6936,0.8787 C0.6936,0.8787 6.7456,6.1237 7.5516,8.1417 C8.3596,10.1587 13.2006,0.8787 13.2006,0.8787 L0.6936,0.8787 Z" id="Fill-10" fill="#FEFEFE"></path>
                <path d="M105.1468,47.6805 L18.2738,47.6805 C12.8208,47.6805 8.3598,43.2195 8.3598,37.7655 L8.3598,10.7935 C8.3598,5.3405 12.8208,0.8785 18.2738,0.8785 L105.1468,0.8785 C110.5998,0.8785 115.0608,5.3405 115.0608,10.7935 L115.0608,37.7655 C115.0608,43.2195 110.5998,47.6805 105.1468,47.6805" id="Fill-12" fill="#FEFEFE"></path>
                <path d="M82.6018,15.9871 L22.6008,15.9871 C21.6828,15.9871 20.9308,15.2361 20.9308,14.3181 C20.9308,13.3991 21.6828,12.6481 22.6008,12.6481 L82.6018,12.6481 C83.5208,12.6481 84.2718,13.3991 84.2718,14.3181 C84.2718,15.2361 83.5208,15.9871 82.6018,15.9871" id="Fill-14" fill="#F2F2F2"></path>
                <path d="M53.1946,23.1932 L22.6356,23.1932 C21.6986,23.1932 20.9306,22.4262 20.9306,21.4882 C20.9306,20.5502 21.6986,19.7832 22.6356,19.7832 L53.1946,19.7832 C54.1316,19.7832 54.8996,20.5502 54.8996,21.4882 C54.8996,22.4262 54.1316,23.1932 53.1946,23.1932" id="Fill-16" fill="#F2F2F2"></path>
                <path d="M75.7864,23.1932 L63.4154,23.1932 C62.4774,23.1932 61.7104,22.4262 61.7104,21.4882 C61.7104,20.5502 62.4774,19.7832 63.4154,19.7832 L75.7864,19.7832 C76.7234,19.7832 77.4904,20.5502 77.4904,21.4882 C77.4904,22.4262 76.7234,23.1932 75.7864,23.1932" id="Fill-18" fill="#F2F2F2"></path>
            </g>
            <g id="old-man" transform="translate(353.000000, 29.000000)">
                <circle id="Oval" fill="#EAF7F9" fill-rule="nonzero" cx="108" cy="82.4" r="81.7"></circle>
                <g id="Group" transform="translate(0.000000, 5.000000)">
                    <path d="M18.5,95.6 C18.5,95.6 18.2,99.2 20.3,99.1 C22.5,99 24.9,94.3 25.6,93.4 L20.3,93.7 L18.5,95.6 Z" id="Shape" fill="#0C80C3" fill-rule="nonzero"></path>
                    <path d="M34.1,105.9 C34.1,105.9 37.5,123.1 46.3,119.6 C55.1,116.2 57.8,142.7 57.8,142.7 C57.8,142.7 50.3,149.8 42,144.5 C33.6,139.2 31.1,131.5 31.1,131.5 L34.1,105.9 Z" id="Shape" fill="#0880C4" fill-rule="nonzero"></path>
                    <path d="M46.8,119.6 C46.8,119.6 61.6,78.5 77,71.2 C92.4,63.9 121.8,53 131.7,53.6 C141.6,54.2 169.1,59.1 187.7,101 C187.9,101.5 189.3,105.2 189.6,105.8 C191.6,111.2 198.6,145.8 196.1,158.2 L66.3,158.2 L68.3,151 C68.3,150.9 50,135.9 46.8,119.6 Z" id="Shape" fill="#DCDCDC" fill-rule="nonzero"></path>
                    <path d="M96.8,76.3 C96.8,76.3 98.1,86.5 105,90.3 C112.1,94.2 121.7,92.6 127.4,89.8 C133.1,87.1 139.3,78.6 137.3,68.9 C135.3,59.2 126,57.3 126,57.3 L96.8,76.3 Z" id="Shape" fill="#0880C4" fill-rule="nonzero"></path>
                    <path d="M94.4,1.7 C94.4,1.7 65,22.2 70.5,55.5 C75.5,85.5 102.8,75.6 108.2,72.5 C108.9,72.1 113,69.5 113.6,69.1 C117.5,66.2 132.8,54.2 134.4,38.5 C136.2,20.8 128.9,10.3 116.9,3.9 C105,-2.4 94.4,1.7 94.4,1.7 Z" id="Shape" fill="#52A5D3" fill-rule="nonzero"></path>
                    <path d="M92.9,34.3 C92.9,34.3 97,28.6 102.8,29.5 C108.5,30.4 110.9,36 110.9,36 C110.9,36 105.8,39.3 100.8,39 C95.7,38.7 92.4,35.5 92.9,34.3 Z" id="Shape" fill="#C1E8FA" fill-rule="nonzero"></path>
                    <path d="M108.3,72 C108.3,72 108.8,74.7 109.7,76.1 C110.7,77.6 112.7,77.6 113.2,78 C114,78.8 113.6,78.8 113.9,79.3 C114.1,79.8 119.4,81.5 124.1,78.3 C126.2,76.8 128.2,74.4 128.9,71.1 C129.3,69 128,67 127.3,66.5 C127.3,66.5 122.5,69.9 120.3,62.9 C120.1,62.9 113.3,69.3 108.3,72 Z" id="Shape" fill="#52A5D3" fill-rule="nonzero"></path>
                    <path d="M46.8,119.6 C46.8,119.6 54.5,149.9 67.9,149.9 C67.9,149.9 84,136.7 83.6,114.9 C83.6,114.9 82.4,122.4 79.2,128.9 C75.8,135.8 67.8,136.7 64.7,136.3 C57.6,135.3 48.8,129.2 46.8,119.6 Z" id="Shape" fill="#C0C0C0" fill-rule="nonzero"></path>
                    <path d="M167.5,118.4 C167.5,118.4 181.6,140.5 180.3,158 L169.6,158.1 C169.6,158.2 170,126.9 167.5,118.4 Z" id="Shape" fill="#C0C0C0" fill-rule="nonzero"></path>
                    <path d="M6.2,95.5 C9.6,93.7 14.2,88.8 21.1,93.9 C21.7,94.3 23.4,96.2 23.4,96.7 C23.4,120.1 23.6,160.5 23.6,160.5 L34.5,160.6 L34.5,96 C34.5,95.8 34.5,95.6 34.4,95.4 C32.8,87.6 30.8,87.3 28.6,85 C25.5,81.9 22,81.3 14.2,81.4 C0.1,81.6 0.6,92.6 0.6,92.6 C0.6,92.6 1.4,98 6.2,95.5 Z" id="Shape" fill="#37C0CD" fill-rule="nonzero"></path>
                    <path d="M27,84.9 C26,84.6 24.7,85.4 23.3,86.9 C21.5,88.8 20.9,92.4 19.6,92.7 C18.3,93 18.1,91.4 18.1,91.4 C18.1,91.4 17.5,93.2 16.9,94.3 C16.3,95.4 14.7,95.4 13.6,95 C12.5,94.6 12.2,92.9 12.2,92.9 L11.9,93.6 C11.9,93.6 11.9,92 11.8,93.9 C11.7,95.7 9.6,95.9 8.8,95.3 C8,94.8 7.4,90.8 7.4,90.8 C7.4,90.8 4.5,93.5 3.8,89.4 C3.1,85.3 5.8,83.3 5.8,83.3 C5.8,83.3 7.6,80.6 11.1,79.5 C14.6,78.4 21,77.5 25.8,79.5 C30.6,81.5 32.5,89 32.5,89 C32.5,89 28.2,85.2 27,84.9 Z" id="Shape" fill="#0880C4" fill-rule="nonzero"></path>
                    <path d="M72.3,33.1 C72.3,33.1 69.1,34.3 68.1,30.5 C67.1,26.7 69,26 69,26 C69,26 67,25 69,20.9 C71.1,16.8 77.3,17.7 78.4,19.2 C79.1,20.2 77.9,25 77.9,26.4 C78,28.3 77.6,30 75.9,31.7 C74.7,33 72.3,33.1 72.3,33.1 Z" id="Shape" fill="#073447" fill-rule="nonzero"></path>
                    <path d="M103.6,0.5 C103.6,0.5 98.1,7.4 92.4,16.1 C87.9,22.9 83.2,36.2 82.5,40.7 C81,50.9 84.3,46.6 86.9,47.4 C89.5,48.2 86.8,51.3 85.3,58.8 C83.7,66.3 82.3,72.6 83.6,74.6 C84.9,76.7 73,69.8 71.2,61.2 C69.5,53.3 68.1,44.3 72.4,32.3 C75.7,23.1 80.9,9.8 92.3,3 C95.6,0.9 98.6,0.5 103.6,0.5 Z" id="Shape" fill="#0880C4" fill-rule="nonzero"></path>
                    <path d="M140.5,33.7 C139.1,35.7 138.1,41 136.8,42.9 C135.3,45 134,46.4 131.3,49.4 L127,48.7 C127,48.7 131.3,43.1 131.3,42.2 C126.9,43.2 123.1,41.5 123.1,41.5 C117,35.3 117.4,29.4 119.7,25.4 C121.9,21.6 124.2,19.4 126.4,19.2 C128.4,19 128.7,21.4 128.7,21.4 C128.7,21.4 131.7,18.4 134.5,20.2 C138.1,22.6 135.7,25.1 135.7,25.4 C135.7,25.2 138.7,23.7 140.5,25.3 C143,27.5 143.3,29.6 140.5,33.7 Z" id="Shape" fill="#073447" fill-rule="nonzero"></path>
                    <path d="M121.8,48.9 C121.8,48.9 126.2,50.8 129.3,46.5 C132.4,42.3 131.3,39.1 129.6,38 C127.7,36.8 126.2,36.8 124.9,37.3 C123.6,37.8 122.3,38.4 120.7,41" id="Shape" fill="#52A5D3" fill-rule="nonzero"></path>
                    <path d="M79.7,58.1 C79.7,57.7 80.1,57.5 80.5,57.6 C82.2,58.4 87,60.2 92,59.1 C95.9,58.2 91,67.1 84.2,65 C80,63.8 79.6,59.9 79.7,58.1 Z" id="Shape" fill="#C1E8FA" fill-rule="nonzero"></path>
                    <path d="M33.6,76.5 L33.5,76.5" id="Shape"></path>
                    <path d="M34.6,163 L34.6,162.8" id="Shape"></path>
                </g>
                <path d="M143.5,44.4 C143.3,45.3 142.8,46.3 142.1,46.9 C141.3,47.5 140.2,47.7 139.4,47.2 C139.8,49.5 138.2,50.8 136.8,51.6 C135.4,52.4 133.4,52.1 133.2,51.6 C132.5,50.1 133.1,48.9 133.5,47.3 C133.9,45.7 134.8,44.3 135.8,43 C136.8,41.7 137.9,40.5 138.7,39 C139.3,37.9 139.8,36.7 140.7,35.8 C141.6,34.9 143.2,34.6 144.1,35.4 C144.8,36.1 145.2,38 144.7,38.9 C143.9,40.6 142.7,40.2 142.2,40.3 C143.5,41 143.8,43 143.5,44.4 Z" id="Shape" fill="#073447" fill-rule="nonzero"></path>
            </g>
            <g id="Group-2" transform="translate(184.000000, 219.000000)">
                <path d="M159.6634,0.6221 L15.5234,0.6221 C15.3464,0.6221 15.1714,0.6371 14.9984,0.6581 L0.5354,0.6581 C0.5354,0.6581 7.2794,4.0921 11.2324,6.6781 L11.2324,63.3181 C11.2324,65.6771 13.1644,67.6091 15.5234,67.6091 L159.6634,67.6091 C162.0234,67.6091 163.9544,65.6771 163.9544,63.3181 L163.9544,4.9141 C163.9544,2.5531 162.0234,0.6221 159.6634,0.6221" id="Fill-136" fill="#FEFEFE" transform="translate(82.244900, 34.115600) scale(1, -1) translate(-82.244900, -34.115600) "></path>
                <path d="M112.0286,21.5557 L25.6766,21.5557 C24.4926,21.5557 23.5236,20.5867 23.5236,19.4027 L23.5236,18.9307 C23.5236,17.7457 24.4926,16.7767 25.6766,16.7767 L112.0286,16.7767 C113.2136,16.7767 114.1816,17.7457 114.1816,18.9307 L114.1816,19.4027 C114.1816,20.5867 113.2136,21.5557 112.0286,21.5557" id="Fill-138" fill="#F2F2F2"></path>
                <path d="M69.7014,31.8696 L25.9634,31.8696 C24.6214,31.8696 23.5234,30.7716 23.5234,29.4296 C23.5234,28.0876 24.6214,26.9896 25.9634,26.9896 L69.7014,26.9896 C71.0434,26.9896 72.1414,28.0876 72.1414,29.4296 C72.1414,30.7716 71.0434,31.8696 69.7014,31.8696" id="Fill-140" fill="#F2F2F2"></path>
                <path d="M102.0364,31.8696 L84.3304,31.8696 C82.9874,31.8696 81.8904,30.7716 81.8904,29.4296 C81.8904,28.0876 82.9874,26.9896 84.3304,26.9896 L102.0364,26.9896 C103.3784,26.9896 104.4764,28.0876 104.4764,29.4296 C104.4764,30.7716 103.3784,31.8696 102.0364,31.8696" id="Fill-142" fill="#F2F2F2"></path>
            </g>
            <g id="doctor" transform="translate(0.000000, 217.000000)">
                <circle id="Oval" stroke="#FFFFFF" stroke-width="5" fill="#ECF6F6" fill-rule="nonzero" cx="101.7" cy="114.3" r="81.7"></circle>
                <g id="Group">
                    <polygon id="Shape" fill="#FFFFFF" fill-rule="nonzero" points="0.2 163.8 191.5 163.8 243.5 223.7 35.5 223.7"></polygon>
                    <path d="M136.5,194.2 L111,212.7 C110.9,212.8 110.7,212.8 110.6,212.7 L72.6,190.2 L99.4,173.5 C99.5,173.4 99.6,173.4 99.8,173.5 L136.5,193.6 C136.7,193.7 136.8,194 136.5,194.2 Z" id="Shape" fill="#E0F0F7" fill-rule="nonzero"></path>
                    <path d="M191.5,187.8 L163,202.5 C163,202.5 163,202.5 162.9,202.5 L124.2,182.5 C124.1,182.5 124.1,182.4 124.2,182.4 L157.1,171.8 L191.5,187.8 C191.5,187.7 191.5,187.8 191.5,187.8 Z" id="Shape" fill="#D4ECF5" fill-rule="nonzero"></path>
                    <path d="M190.6,187.1 L162.9,201.3 C162.8,201.4 162.6,201.4 162.5,201.3 L124.7,181.8 C124.4,181.6 124.4,181.1 124.8,181 L156.9,170.7 L190.6,186.4 C190.9,186.5 190.9,187 190.6,187.1 Z" id="Shape" fill="#E0F0F7" fill-rule="nonzero"></path>
                    <path d="M54.1,149 C54.1,149 55.8,82.7 75,70.4 C98.7,55.2 137.9,71.3 151.7,85.4 C176.4,110.8 174.6,150.9 172.7,165.5 L58.9,165.6 L54.1,149 Z" id="Shape" fill="#E3E3E4" fill-rule="nonzero"></path>
                    <path d="M95,64.7 C68.4,62.7 41,85.9 27.9,111.7 C14.8,137.5 20.1,178.7 47.1,188.6 C61.9,194 79,193.3 79,193.3 C79,193.3 78,187.6 83.5,179.3 C83.5,179.3 50.6,172.2 59.1,148.8" id="Shape" fill="#E3E3E4" fill-rule="nonzero"></path>
                    <polygon id="Shape" fill="#37C0CD" fill-rule="nonzero" points="86 69.8 95.7 63 114.2 67.7 121 69.5 106.7 128.4 102.8 146.9 101.1 155.2"></polygon>
                    <path d="M93.6,62.3 C93.6,62.3 93,63.7 91.8,67 L88.1,68.5 C88.1,68.5 88.6,71 92.9,73 C96.6,74.7 99.3,74.9 104,74.8 C107.2,74.7 110.9,72.8 111.6,72 C112.1,71.3 110,68.1 109.9,66.7 C109.8,64.9 111.4,62.5 112.8,60.1 C114.3,57.7 93.6,62.3 93.6,62.3 Z" id="Shape" fill="#0880C4" fill-rule="nonzero"></path>
                    <path d="M88.1,157.6 L105.3,186.2 L110.5,190 L109.7,184.5 L91.9,155.3 C91.6,154.7 90.8,154.6 90.2,154.9 L88.5,156 C88,156.3 87.8,157 88.1,157.6 Z" id="Shape" fill="#FFCE43" fill-rule="nonzero"></path>
                    <path d="M83.1,179.3 L91.7,182 C92,182.1 92.7,181.4 92.8,181 C93.4,179.2 95.1,174.7 99.7,178.1 C99.7,178.1 101.3,174.5 104.3,177.5 C107.6,180.7 111.1,182.5 108.8,184.8 C107.4,186.2 104.8,183.9 104.8,183.9 C104.8,183.9 109.5,186.5 108.9,187.9 C108.3,189.3 107,189.5 106.2,189.1 C104.6,188.3 103.7,187.8 103.7,187.8 C103.7,187.8 104.9,189.7 104,190.4 C103,191.1 102.3,190.7 101.1,189.9 C99.9,189.1 99.6,188.8 98.1,189 C97.1,189.1 96.7,191 93.3,191.1 C91.8,191.2 90.4,189.7 89.2,190 C87.1,190.5 85.8,191.4 84,192.1 C81.4,193.1 78.5,193.3 78.5,193.3 C78.5,193.3 78,182.3 83.1,179.3 Z" id="Shape" fill="#0880C4" fill-rule="nonzero"></path>
                    <path d="M99.6,74.8 L102.9,80 C103,80.1 103,80.2 102.9,80.3 C102.9,80.3 97.3,98.7 96.9,101.4 C96.2,105.4 96.1,115.2 96.9,127.9 C97.8,140.9 101.2,154.2 101.2,154.2 L102.7,146.5 C102.7,146.5 109.1,118.9 109.5,116.8 C110.2,113.8 111.3,104 111.2,100.7 C111.1,96 105.4,79.7 105.4,79.7 C105.4,79.6 105.4,79.6 105.4,79.5 C105.4,79.5 106.1,78 106.3,77.4 C106.6,76.6 107.6,74 107.3,74.1 C106.4,74.4 105,74.7 103.9,74.7 C102.5,74.8 100.7,74.8 99.6,74.8 Z" id="Shape" fill="#4FDBD4" fill-rule="nonzero"></path>
                    <path d="M65,146.2 C63,146.2 59.6,145.9 56.7,144 C53.1,141.8 55.1,125.1 56.5,115.4 L59.5,115.8 C57.8,126.9 57,139.8 58.4,141.4 C61.8,143.5 66.3,143 66.4,143 L66.8,146 C66.6,146.1 65.9,146.2 65,146.2 Z" id="Shape" fill="#FFFFFF" fill-rule="nonzero"></path>
                    <path d="M70.4,144.3 C70.5,145.8 69.4,147 68,147.2 C66.6,147.4 65.4,146.3 65.4,144.8 C65.3,143.3 66.4,142.1 67.8,141.9 C69.2,141.8 70.4,142.9 70.4,144.3 Z" id="Shape" fill="#676868" fill-rule="nonzero"></path>
                    <g id="Clipped" transform="translate(76.000000, 13.000000)">
                        <mask id="mask-2" fill="white">
                            <use xlink:href="#path-1"></use>
                        </mask>
                        <g id="SVGID_35_"></g>
                        <path d="M42.9,9.8 C42.9,9.8 43.7,26.4 43.8,27.9 C44,29.4 44.2,32.8 43.6,34.6 C43,36.4 42.4,36.9 41.4,37.2 C40.4,37.5 39.5,37.4 39.5,37.4 C39.5,37.4 38.4,44 37.2,46.8 C36,49.6 34.3,53.2 33.5,54.4 C32.7,55.6 31.8,57.2 31.8,57.2 L46,59.8 L58.2,35.9 L60.2,18.9 L55.7,9.9 L52.9,3.8 L43.1,6.4 L42.9,9.8 Z" id="Shape" fill="#0C80C3" fill-rule="nonzero" mask="url(#mask-2)"></path>
                    </g>
                    <path d="M89,49.7 C89,49.7 77.9,53.1 76.9,34.5 C76,19.3 79.7,10.1 83,9.3 C83,9.3 82.5,5 85.3,5.6 C88.2,6.2 91.5,4.6 96,3.6 C105,1.6 116.9,3.05311332e-15 122.3,0.3 C127.8,0.6 133.1,1.5 136,5.6 C138.3,8.9 139.3,14.6 136.7,18.9 C134.7,22.1 125.1,26.6 125.1,26.6 L99.9,21.4 L97.4,43.5 L91.7,46 L86.8,37.3 L89,49.7 Z" id="Shape" fill="#073447" fill-rule="nonzero"></path>
                    <path d="M85.6,31.7 C84.3,31.1 81.3,30.6 80.2,33.9 C79.1,37.2 80,38.5 81.3,39.6 C82.6,40.7 84.2,40.9 84.2,40.9 C84.2,40.9 85.1,53 88.1,59 C91.1,65 99,70.8 107,70.3 C116.1,69.8 122.7,65.1 126.5,58.6 C130.3,52.1 133,41.6 133.5,35 C133.9,29.9 134.7,22.4 132.5,20.2 C130.4,18 128,21.2 126,21.9 C124,22.6 120.2,23.2 116.4,20.5 C112.6,17.8 108.7,15.4 105.7,14.4 C102.7,13.4 100.4,13.6 97.8,16.3 C95.9,18.3 95.2,21.1 95.1,23 C95,24.8 95,29.5 94.4,33.8 C93.8,38.1 92.9,42.2 92.9,42.2 C92.9,42.2 91,41.2 90.8,38.8 C90.6,36.4 90.2,32.4 89.9,30.8 C89.6,29.2 89.6,29.2 89.6,29.2 L87.7,32.9 C87.8,33.3 86.2,32 85.6,31.7 Z" id="Shape" fill="#52A5D3" fill-rule="nonzero"></path>
                    <path d="M99.4,33.1 C101.4,31.1 104.6,30.6 107.3,31.6 C110,32.6 112,34.9 112.9,37.6 C110.5,38.4 107.9,39.2 105.3,39 C102.7,38.8 100.1,37.5 99,35.1 C98.8,34.8 98.7,34.4 98.8,34.1 C98.9,33.7 99.2,33.4 99.4,33.1 Z" id="Shape" fill="#C1E8FA" fill-rule="nonzero"></path>
                    <g id="Clipped" transform="translate(110.000000, 18.000000)">
                        <mask id="mask-4" fill="white">
                            <use xlink:href="#path-3"></use>
                        </mask>
                        <g id="SVGID_37_"></g>
                        <path d="M-24.4,13.7 C-25.7,13.1 -28.7,12.6 -29.8,15.9 C-30.9,19.2 -30,20.5 -28.7,21.6 C-27.4,22.7 -25.8,22.9 -25.8,22.9 C-25.8,22.9 -24.9,35 -21.9,41 C-18.9,47 -11,52.8 -3,52.3 C6.1,51.8 12.7,47.1 16.5,40.6 C20.3,34.1 23,23.6 23.5,17 C23.9,11.9 24.7,4.4 22.5,2.2 C20.4,-7.10542736e-15 18,3.2 16,3.9 C14,4.6 10.2,5.2 6.4,2.5 C2.6,-0.2 -1.3,-2.6 -4.3,-3.6 C-7.3,-4.6 -9.6,-4.4 -12.2,-1.7 C-14.1,0.3 -14.8,3.1 -14.9,5 C-15,6.8 -15,11.5 -15.6,15.8 C-16.2,20.1 -17.1,24.2 -17.1,24.2 C-17.1,24.2 -19,23.2 -19.2,20.8 C-19.4,18.4 -19.8,14.4 -20.1,12.8 C-20.4,11.2 -20.4,11.2 -20.4,11.2 L-22.3,14.9 C-22.2,15.3 -23.8,14 -24.4,13.7 Z" id="Shape" fill="#0880C4" fill-rule="nonzero" mask="url(#mask-4)"></path>
                    </g>
                    <g transform="translate(151.000000, 159.000000)" fill="#0880C4" fill-rule="nonzero" id="Shape">
                        <path d="M13.9,2.2 C15.9,0.3 19.3,0.3 19.6,3.4 C19.7,4.5 18,8.1 16.4,10.8 C14.9,13.3 13.6,16 11.5,16.7 C8.3,17.8 8.4,14.3 9.2,11.8 C9.3,11.6 8.4,13.2 8.3,13.3 C6.9,15.4 4.9,16.2 3.5,15.4 C1.9,14.5 4.9,6.3 6.5,3.4 C9.4,-1.8 11.9,1.1 12.2,2.6 C12.2,2.7 12,4.9 12.1,4.8 C12.4,4.5 12.6,3.8 13.3,2.8 L13.9,2.2 Z"></path>
                        <path d="M14.2,13.9 C14.2,13.9 13.9,16.6 16.7,16 C18.9,15.6 21.7,12.7 22.6,11.1 C22.8,10.7 23.1,9.6 22.9,9.2 C22.5,8.4 21.6,7.6 19.8,8 C17.1,8.5 14.3,13.6 14.3,13.6"></path>
                        <path d="M5.2,8.1 C5.2,8.1 0.6,6.2 0.1,8.5 C-0.2,10.1 3.7,12 3.7,12 L5.2,8.1 Z"></path>
                    </g>
                    <path d="M81,70.5 C79,73.3 77.9,79.2 78.1,83.3 C78.3,87.9 80.2,93.3 82.3,98.6 C85.9,107.7 97.3,134.6 97.3,134.6 L88,64.7 C87.9,64.8 83,67.6 81,70.5 Z" id="Shape" fill="#EFEFEF" fill-rule="nonzero"></path>
                    <path d="M73,95.5 C73,95.2 72.6,86.5 74,79.5 C75.1,74.1 78.1,69.4 82.1,66.9 C85.1,65 88.9,64.7 92.6,64.7 C92.6,64.7 92.5,66.5 92.2,66.9 C91.8,67.4 87.8,66.9 86,67.6 C82.2,68.9 79.2,72.2 77.5,76.2 C74,84.8 75.5,95.9 75.5,96.1 L73,95.5 Z" id="Shape" fill="#676868" fill-rule="nonzero"></path>
                    <path d="M81.5,146.6 C80,146.6 79,146.4 78.9,146.4 L79.4,143.4 C79.4,143.4 84,144.2 87.5,142.1 C88.9,140.6 88.7,127.6 87.5,116.5 L90.5,116.2 C91.5,126 92.6,142.7 89,144.7 C86.4,146.3 83.5,146.6 81.5,146.6 Z" id="Shape" fill="#FFFFFF" fill-rule="nonzero"></path>
                    <path d="M87.6,116.6 C87.6,116.6 87.5,112.1 85.8,107.6 C83.6,101.8 79.7,98.6 74.4,98 C74,98 73.5,97.9 73.1,98 C67.7,98.3 63.9,101.3 61.5,107 C59.7,111.5 59.5,115.9 59.5,116 L56.5,115.9 C56.7,109 60.3,95.7 72.9,95 C73.5,95 74.1,95 74.7,95.1 C90.3,96.7 90.6,116.5 90.6,116.7 L87.6,116.6 Z" id="Shape" fill="#676868" fill-rule="nonzero"></path>
                    <path d="M74.5,144.5 C74.4,146 75.5,147.3 77,147.4 C78.5,147.5 79.8,146.5 79.9,145 C80,143.5 78.9,142.2 77.4,142.1 C75.9,141.9 74.6,143 74.5,144.5 Z" id="Shape" fill="#676868" fill-rule="nonzero"></path>
                </g>
                <circle id="Oval" fill="#676868" fill-rule="nonzero" cx="138.1" cy="114.5" r="7.6"></circle>
                <circle id="Oval" fill="#BFC7CB" fill-rule="nonzero" cx="138.1" cy="114.5" r="3.7"></circle>
                <path d="M104.6,141.4 C104.5,141.6 104.2,141.5 104.2,141.3 L114,99.6 L121.5,68.6 C121.5,68.6 127.4,71.3 129.5,74.6 C132,78.4 129.1,91.1 126.8,96.8 C124.6,102.2 108.3,134.1 104.6,141.4 Z" id="Shape" fill="#EFEFEF" fill-rule="nonzero"></path>
                <path d="M136.9,107.8 C136.9,107.7 137.3,98.7 135.1,89.1 C131.1,72 116,68.4 115.8,68.3 L118.6,66.9 C119.3,67.1 132.7,70.4 137.4,87.5 C140,97.3 139.3,107.4 139.2,107.8 L136.9,107.8 Z" id="Shape" fill="#676868" fill-rule="nonzero"></path>
            </g>
            <path d="M165.476562,138.841797 C165.353515,139.894537 164.96501,140.706866 164.311035,141.278809 C163.657061,141.850752 162.787766,142.136719 161.703125,142.136719 C160.527338,142.136719 159.585127,141.715173 158.876465,140.87207 C158.167802,140.028967 157.813477,138.901049 157.813477,137.488281 L157.813477,136.53125 C157.813477,135.606115 157.978677,134.792647 158.309082,134.09082 C158.639487,133.388994 159.107744,132.8501 159.713867,132.474121 C160.31999,132.098143 161.021806,131.910156 161.819336,131.910156 C162.876633,131.910156 163.724281,132.205238 164.362305,132.79541 C165.000329,133.385582 165.371744,134.202469 165.476562,135.246094 L164.157227,135.246094 C164.043294,134.453121 163.796063,133.878908 163.415527,133.523438 C163.034992,133.167967 162.502933,132.990234 161.819336,132.990234 C160.98079,132.990234 160.323407,133.300127 159.847168,133.919922 C159.370929,134.539717 159.132812,135.421544 159.132812,136.56543 L159.132812,137.529297 C159.132812,138.60938 159.358396,139.468421 159.80957,140.106445 C160.260744,140.744469 160.891923,141.063477 161.703125,141.063477 C162.432295,141.063477 162.991697,140.898276 163.381348,140.567871 C163.770998,140.237466 164.029622,139.662113 164.157227,138.841797 L165.476562,138.841797 Z M171.635742,142 C171.562825,141.854166 171.503581,141.594403 171.458008,141.220703 C170.870114,141.831383 170.168298,142.136719 169.352539,142.136719 C168.623369,142.136719 168.02523,141.930503 167.558105,141.518066 C167.090981,141.105629 166.857422,140.582685 166.857422,139.949219 C166.857422,139.179033 167.150225,138.580894 167.73584,138.154785 C168.321455,137.728676 169.145177,137.515625 170.207031,137.515625 L171.4375,137.515625 L171.4375,136.93457 C171.4375,136.492511 171.30534,136.140464 171.041016,135.878418 C170.776691,135.616372 170.387047,135.485352 169.87207,135.485352 C169.420896,135.485352 169.042645,135.599283 168.737305,135.827148 C168.431965,136.055014 168.279297,136.330728 168.279297,136.654297 L167.007812,136.654297 C167.007812,136.285154 167.138833,135.92855 167.400879,135.584473 C167.662924,135.240395 168.01839,134.9681 168.467285,134.767578 C168.916181,134.567056 169.409503,134.466797 169.947266,134.466797 C170.799483,134.466797 171.46712,134.679848 171.950195,135.105957 C172.433271,135.532066 172.683919,136.118811 172.702148,136.866211 L172.702148,140.270508 C172.702148,140.949548 172.788736,141.489581 172.961914,141.890625 L172.961914,142 L171.635742,142 Z M169.537109,141.036133 C169.933596,141.036133 170.309569,140.933595 170.665039,140.728516 C171.02051,140.523436 171.277994,140.256838 171.4375,139.928711 L171.4375,138.411133 L170.446289,138.411133 C168.896802,138.411133 168.12207,138.864579 168.12207,139.771484 C168.12207,140.167971 168.25423,140.477863 168.518555,140.701172 C168.782879,140.92448 169.122394,141.036133 169.537109,141.036133 Z M175.880859,134.603516 L175.921875,135.533203 C176.486982,134.822262 177.225256,134.466797 178.136719,134.466797 C179.699878,134.466797 180.488281,135.348624 180.501953,137.112305 L180.501953,142 L179.237305,142 L179.237305,137.105469 C179.232747,136.572263 179.110841,136.178061 178.871582,135.922852 C178.632323,135.667642 178.259768,135.540039 177.753906,135.540039 C177.343748,135.540039 176.983726,135.649413 176.673828,135.868164 C176.363931,136.086915 176.122397,136.374022 175.949219,136.729492 L175.949219,142 L174.68457,142 L174.68457,134.603516 L175.880859,134.603516 Z M187.59082,132.8125 L187.59082,134.603516 L188.97168,134.603516 L188.97168,135.581055 L187.59082,135.581055 L187.59082,140.167969 C187.59082,140.464194 187.652343,140.68636 187.775391,140.834473 C187.898438,140.982585 188.108071,141.056641 188.404297,141.056641 C188.550131,141.056641 188.75065,141.029297 189.005859,140.974609 L189.005859,142 C188.673175,142.091146 188.349611,142.136719 188.035156,142.136719 C187.470049,142.136719 187.043947,141.965822 186.756836,141.624023 C186.469725,141.282225 186.326172,140.796878 186.326172,140.167969 L186.326172,135.581055 L184.979492,135.581055 L184.979492,134.603516 L186.326172,134.603516 L186.326172,132.8125 L187.59082,132.8125 Z M191.712891,135.499023 C192.27344,134.810869 193.0026,134.466797 193.900391,134.466797 C195.463549,134.466797 196.251953,135.348624 196.265625,137.112305 L196.265625,142 L195.000977,142 L195.000977,137.105469 C194.996419,136.572263 194.874513,136.178061 194.635254,135.922852 C194.395995,135.667642 194.02344,135.540039 193.517578,135.540039 C193.10742,135.540039 192.747397,135.649413 192.4375,135.868164 C192.127603,136.086915 191.886069,136.374022 191.712891,136.729492 L191.712891,142 L190.448242,142 L190.448242,131.5 L191.712891,131.5 L191.712891,135.499023 Z M201.228516,142.136719 C200.225906,142.136719 199.410159,141.807458 198.78125,141.148926 C198.152341,140.490394 197.837891,139.609706 197.837891,138.506836 L197.837891,138.274414 C197.837891,137.540686 197.978026,136.885582 198.258301,136.309082 C198.538576,135.732582 198.930499,135.281414 199.434082,134.955566 C199.937665,134.629718 200.483395,134.466797 201.071289,134.466797 C202.032882,134.466797 202.780271,134.783525 203.313477,135.416992 C203.846682,136.050459 204.113281,136.957351 204.113281,138.137695 L204.113281,138.664062 L199.102539,138.664062 C199.120768,139.393233 199.33382,139.982257 199.741699,140.431152 C200.149579,140.880048 200.667966,141.104492 201.296875,141.104492 C201.743492,141.104492 202.121743,141.013347 202.431641,140.831055 C202.741538,140.648762 203.012694,140.407228 203.245117,140.106445 L204.017578,140.708008 C203.397783,141.660487 202.468105,142.136719 201.228516,142.136719 Z M201.071289,135.505859 C200.56087,135.505859 200.132489,135.691567 199.786133,136.062988 C199.439777,136.434409 199.225586,136.955075 199.143555,137.625 L202.848633,137.625 L202.848633,137.529297 C202.812174,136.886716 202.638999,136.388836 202.329102,136.035645 C202.019204,135.682453 201.599938,135.505859 201.071289,135.505859 Z M215.501953,138.370117 C215.501953,139.509446 215.243329,140.422034 214.726074,141.10791 C214.208819,141.793786 213.510421,142.136719 212.630859,142.136719 C211.88346,142.136719 211.279625,141.876956 210.819336,141.357422 L210.819336,144.84375 L208.84375,144.84375 L208.84375,134.603516 L210.675781,134.603516 L210.744141,135.328125 C211.222659,134.753903 211.847001,134.466797 212.617188,134.466797 C213.52865,134.466797 214.237302,134.804033 214.743164,135.478516 C215.249026,136.152998 215.501953,137.082676 215.501953,138.267578 L215.501953,138.370117 Z M213.526367,138.226562 C213.526367,137.538408 213.404461,137.007489 213.160645,136.633789 C212.916828,136.260089 212.562502,136.073242 212.097656,136.073242 C211.477861,136.073242 211.051759,136.310219 210.819336,136.78418 L210.819336,139.8125 C211.060874,140.300133 211.491533,140.543945 212.111328,140.543945 C213.054692,140.543945 213.526367,139.771492 213.526367,138.226562 Z M221.011719,142 C220.920572,141.822265 220.854492,141.601238 220.813477,141.336914 C220.334959,141.87012 219.712894,142.136719 218.947266,142.136719 C218.222653,142.136719 217.622235,141.927085 217.145996,141.507812 C216.669757,141.08854 216.431641,140.559899 216.431641,139.921875 C216.431641,139.138017 216.722165,138.53646 217.303223,138.117188 C217.88428,137.697915 218.723953,137.486003 219.822266,137.481445 L220.731445,137.481445 L220.731445,137.057617 C220.731445,136.715819 220.643718,136.442384 220.468262,136.237305 C220.292805,136.032226 220.015952,135.929688 219.637695,135.929688 C219.305011,135.929688 219.044109,136.009439 218.85498,136.168945 C218.665852,136.328451 218.571289,136.547199 218.571289,136.825195 L216.595703,136.825195 C216.595703,136.396808 216.727863,136.000327 216.992188,135.635742 C217.256512,135.271157 217.630206,134.98519 218.113281,134.777832 C218.596357,134.570474 219.138669,134.466797 219.740234,134.466797 C220.651697,134.466797 221.37516,134.695798 221.910645,135.153809 C222.446129,135.611819 222.713867,136.25553 222.713867,137.084961 L222.713867,140.291016 C222.718425,140.992842 222.816405,141.523761 223.007812,141.883789 L223.007812,142 L221.011719,142 Z M219.37793,140.625977 C219.669598,140.625977 219.938475,140.561036 220.18457,140.431152 C220.430665,140.301269 220.612955,140.126954 220.731445,139.908203 L220.731445,138.636719 L219.993164,138.636719 C219.004227,138.636719 218.477865,138.978512 218.414062,139.662109 L218.407227,139.77832 C218.407227,140.024415 218.493814,140.227213 218.666992,140.386719 C218.84017,140.546225 219.077147,140.625977 219.37793,140.625977 Z M226.316406,142 L224.333984,142 L224.333984,134.603516 L226.316406,134.603516 L226.316406,142 Z M224.217773,132.689453 C224.217773,132.393228 224.316894,132.149415 224.515137,131.958008 C224.71338,131.766601 224.983397,131.670898 225.325195,131.670898 C225.662437,131.670898 225.931314,131.766601 226.131836,131.958008 C226.332358,132.149415 226.432617,132.393228 226.432617,132.689453 C226.432617,132.990236 226.331218,133.236327 226.128418,133.427734 C225.925617,133.619142 225.657879,133.714844 225.325195,133.714844 C224.992511,133.714844 224.724773,133.619142 224.521973,133.427734 C224.319172,133.236327 224.217773,132.990236 224.217773,132.689453 Z M229.761719,134.603516 L229.823242,135.458008 C230.351891,134.797197 231.060542,134.466797 231.949219,134.466797 C232.733077,134.466797 233.316404,134.696938 233.699219,135.157227 C234.082033,135.617515 234.277995,136.305659 234.287109,137.22168 L234.287109,142 L232.311523,142 L232.311523,137.269531 C232.311523,136.850258 232.220379,136.546062 232.038086,136.356934 C231.855793,136.167805 231.552736,136.073242 231.128906,136.073242 C230.572914,136.073242 230.155926,136.310219 229.87793,136.78418 L229.87793,142 L227.902344,142 L227.902344,134.603516 L229.761719,134.603516 Z M238.962891,138.233398 C238.962891,137.499671 239.104165,136.845706 239.386719,136.271484 C239.669272,135.697263 240.076006,135.252931 240.606934,134.938477 C241.137861,134.624022 241.754228,134.466797 242.456055,134.466797 C243.454107,134.466797 244.268714,134.772132 244.899902,135.382812 C245.53109,135.993493 245.883138,136.822911 245.956055,137.871094 L245.969727,138.376953 C245.969727,139.511724 245.652998,140.422034 245.019531,141.10791 C244.386065,141.793786 243.536138,142.136719 242.469727,142.136719 C241.403315,142.136719 240.552249,141.794925 239.916504,141.111328 C239.280759,140.427731 238.962891,139.498053 238.962891,138.322266 L238.962891,138.233398 Z M240.938477,138.376953 C240.938477,139.07878 241.070637,139.615395 241.334961,139.986816 C241.599285,140.358238 241.977537,140.543945 242.469727,140.543945 C242.948245,140.543945 243.321939,140.360516 243.59082,139.993652 C243.859702,139.626789 243.994141,139.040043 243.994141,138.233398 C243.994141,137.545244 243.859702,137.012046 243.59082,136.633789 C243.321939,136.255532 242.943687,136.066406 242.456055,136.066406 C241.972979,136.066406 241.599285,136.254393 241.334961,136.630371 C241.070637,137.00635 240.938477,137.588538 240.938477,138.376953 Z M247.726562,142 L247.726562,136.052734 L246.625977,136.052734 L246.625977,134.603516 L247.726562,134.603516 L247.726562,133.974609 C247.726562,133.145178 247.964679,132.501467 248.440918,132.043457 C248.917157,131.585447 249.583655,131.356445 250.44043,131.356445 C250.713869,131.356445 251.048826,131.402018 251.445312,131.493164 L251.424805,133.024414 C251.260741,132.983398 251.060223,132.962891 250.823242,132.962891 C250.0804,132.962891 249.708984,133.31152 249.708984,134.008789 L249.708984,134.603516 L251.178711,134.603516 L251.178711,136.052734 L249.708984,136.052734 L249.708984,142 L247.726562,142 Z M259.976562,142 C259.885416,141.822265 259.819336,141.601238 259.77832,141.336914 C259.299802,141.87012 258.677738,142.136719 257.912109,142.136719 C257.187496,142.136719 256.587079,141.927085 256.11084,141.507812 C255.6346,141.08854 255.396484,140.559899 255.396484,139.921875 C255.396484,139.138017 255.687009,138.53646 256.268066,138.117188 C256.849124,137.697915 257.688797,137.486003 258.787109,137.481445 L259.696289,137.481445 L259.696289,137.057617 C259.696289,136.715819 259.608562,136.442384 259.433105,136.237305 C259.257649,136.032226 258.980796,135.929688 258.602539,135.929688 C258.269855,135.929688 258.008953,136.009439 257.819824,136.168945 C257.630696,136.328451 257.536133,136.547199 257.536133,136.825195 L255.560547,136.825195 C255.560547,136.396808 255.692707,136.000327 255.957031,135.635742 C256.221355,135.271157 256.59505,134.98519 257.078125,134.777832 C257.5612,134.570474 258.103513,134.466797 258.705078,134.466797 C259.616541,134.466797 260.340004,134.695798 260.875488,135.153809 C261.410973,135.611819 261.678711,136.25553 261.678711,137.084961 L261.678711,140.291016 C261.683268,140.992842 261.781249,141.523761 261.972656,141.883789 L261.972656,142 L259.976562,142 Z M258.342773,140.625977 C258.634442,140.625977 258.903319,140.561036 259.149414,140.431152 C259.395509,140.301269 259.577799,140.126954 259.696289,139.908203 L259.696289,138.636719 L258.958008,138.636719 C257.969071,138.636719 257.442709,138.978512 257.378906,139.662109 L257.37207,139.77832 C257.37207,140.024415 257.458658,140.227213 257.631836,140.386719 C257.805014,140.546225 258.041991,140.625977 258.342773,140.625977 Z M267.352539,136.456055 C267.083658,136.419596 266.846681,136.401367 266.641602,136.401367 C265.894202,136.401367 265.404298,136.654294 265.171875,137.160156 L265.171875,142 L263.196289,142 L263.196289,134.603516 L265.0625,134.603516 L265.117188,135.485352 C265.513674,134.806312 266.062822,134.466797 266.764648,134.466797 C266.9834,134.466797 267.188476,134.496419 267.379883,134.555664 L267.352539,136.456055 Z M270.667969,132.785156 L270.667969,134.603516 L271.932617,134.603516 L271.932617,136.052734 L270.667969,136.052734 L270.667969,139.744141 C270.667969,140.017579 270.720377,140.213541 270.825195,140.332031 C270.930014,140.450521 271.130532,140.509766 271.426758,140.509766 C271.645509,140.509766 271.839192,140.493815 272.007812,140.461914 L272.007812,141.958984 C271.620441,142.077475 271.221682,142.136719 270.811523,142.136719 C269.4261,142.136719 268.719727,141.437181 268.692383,140.038086 L268.692383,136.052734 L267.612305,136.052734 L267.612305,134.603516 L268.692383,134.603516 L268.692383,132.785156 L270.667969,132.785156 Z M274.960938,135.410156 C275.485029,134.781247 276.143551,134.466797 276.936523,134.466797 C278.540698,134.466797 279.354167,135.398754 279.376953,137.262695 L279.376953,142 L277.401367,142 L277.401367,137.317383 C277.401367,136.893553 277.310222,136.580242 277.12793,136.377441 C276.945637,136.174641 276.64258,136.073242 276.21875,136.073242 C275.639971,136.073242 275.220704,136.296547 274.960938,136.743164 L274.960938,142 L272.985352,142 L272.985352,131.5 L274.960938,131.5 L274.960938,135.410156 Z M285.023438,136.456055 C284.754556,136.419596 284.517579,136.401367 284.3125,136.401367 C283.5651,136.401367 283.075196,136.654294 282.842773,137.160156 L282.842773,142 L280.867188,142 L280.867188,134.603516 L282.733398,134.603516 L282.788086,135.485352 C283.184572,134.806312 283.73372,134.466797 284.435547,134.466797 C284.654298,134.466797 284.859374,134.496419 285.050781,134.555664 L285.023438,136.456055 Z M288.058594,142 L286.076172,142 L286.076172,134.603516 L288.058594,134.603516 L288.058594,142 Z M285.959961,132.689453 C285.959961,132.393228 286.059081,132.149415 286.257324,131.958008 C286.455567,131.766601 286.725584,131.670898 287.067383,131.670898 C287.404624,131.670898 287.673502,131.766601 287.874023,131.958008 C288.074545,132.149415 288.174805,132.393228 288.174805,132.689453 C288.174805,132.990236 288.073406,133.236327 287.870605,133.427734 C287.667805,133.619142 287.400067,133.714844 287.067383,133.714844 C286.734699,133.714844 286.466961,133.619142 286.26416,133.427734 C286.06136,133.236327 285.959961,132.990236 285.959961,132.689453 Z M292.050781,132.785156 L292.050781,134.603516 L293.31543,134.603516 L293.31543,136.052734 L292.050781,136.052734 L292.050781,139.744141 C292.050781,140.017579 292.10319,140.213541 292.208008,140.332031 C292.312826,140.450521 292.513345,140.509766 292.80957,140.509766 C293.028321,140.509766 293.222004,140.493815 293.390625,140.461914 L293.390625,141.958984 C293.003253,142.077475 292.604494,142.136719 292.194336,142.136719 C290.808912,142.136719 290.102539,141.437181 290.075195,140.038086 L290.075195,136.052734 L288.995117,136.052734 L288.995117,134.603516 L290.075195,134.603516 L290.075195,132.785156 L292.050781,132.785156 Z M296.500977,142 L294.518555,142 L294.518555,134.603516 L296.500977,134.603516 L296.500977,142 Z M294.402344,132.689453 C294.402344,132.393228 294.501464,132.149415 294.699707,131.958008 C294.89795,131.766601 295.167967,131.670898 295.509766,131.670898 C295.847007,131.670898 296.115884,131.766601 296.316406,131.958008 C296.516928,132.149415 296.617188,132.393228 296.617188,132.689453 C296.617188,132.990236 296.515789,133.236327 296.312988,133.427734 C296.110188,133.619142 295.84245,133.714844 295.509766,133.714844 C295.177082,133.714844 294.909343,133.619142 294.706543,133.427734 C294.503742,133.236327 294.402344,132.990236 294.402344,132.689453 Z M302.133789,139.956055 C302.133789,139.714517 302.014161,139.524252 301.774902,139.385254 C301.535643,139.246256 301.151695,139.122071 300.623047,139.012695 C298.863923,138.643553 297.984375,137.896164 297.984375,136.770508 C297.984375,136.114255 298.25667,135.566246 298.80127,135.126465 C299.345869,134.686684 300.057938,134.466797 300.9375,134.466797 C301.876307,134.466797 302.627113,134.687823 303.189941,135.129883 C303.75277,135.571942 304.03418,136.146155 304.03418,136.852539 L302.058594,136.852539 C302.058594,136.569986 301.967449,136.336427 301.785156,136.151855 C301.602864,135.967284 301.318036,135.875 300.930664,135.875 C300.59798,135.875 300.340496,135.950195 300.158203,136.100586 C299.975911,136.250977 299.884766,136.442382 299.884766,136.674805 C299.884766,136.893556 299.988443,137.070149 300.195801,137.20459 C300.403159,137.339031 300.752927,137.45524 301.245117,137.553223 C301.737307,137.651205 302.152017,137.761718 302.489258,137.884766 C303.532883,138.26758 304.054688,138.930659 304.054688,139.874023 C304.054688,140.548506 303.765302,141.094236 303.186523,141.51123 C302.607745,141.928225 301.860356,142.136719 300.944336,142.136719 C300.324541,142.136719 299.774254,142.026206 299.293457,141.805176 C298.81266,141.584146 298.435548,141.281089 298.162109,140.895996 C297.888671,140.510903 297.751953,140.095054 297.751953,139.648438 L299.625,139.648438 C299.643229,139.999351 299.773111,140.268228 300.014648,140.455078 C300.256186,140.641928 300.579751,140.735352 300.985352,140.735352 C301.363609,140.735352 301.649576,140.663575 301.843262,140.52002 C302.036948,140.376464 302.133789,140.188478 302.133789,139.956055 Z M160.923828,162.104492 C161.375002,162.104492 161.769204,161.967775 162.106445,161.694336 C162.443687,161.420897 162.630534,161.079104 162.666992,160.668945 L163.863281,160.668945 C163.840495,161.092776 163.694663,161.496092 163.425781,161.878906 C163.1569,162.261721 162.798017,162.567056 162.349121,162.794922 C161.900226,163.022788 161.425133,163.136719 160.923828,163.136719 C159.916662,163.136719 159.115726,162.800622 158.520996,162.128418 C157.926267,161.456214 157.628906,160.53679 157.628906,159.370117 L157.628906,159.158203 C157.628906,158.438147 157.761066,157.797854 158.025391,157.237305 C158.289715,156.676755 158.669106,156.241538 159.163574,155.931641 C159.658043,155.621743 160.24251,155.466797 160.916992,155.466797 C161.746423,155.466797 162.435707,155.715167 162.984863,156.211914 C163.53402,156.708661 163.826823,157.353512 163.863281,158.146484 L162.666992,158.146484 C162.630534,157.667966 162.449383,157.274904 162.123535,156.967285 C161.797687,156.659666 161.39551,156.505859 160.916992,156.505859 C160.274411,156.505859 159.776532,156.73714 159.42334,157.199707 C159.070148,157.662274 158.893555,158.33105 158.893555,159.206055 L158.893555,159.445312 C158.893555,160.29753 159.069009,160.953774 159.419922,161.414062 C159.770835,161.874351 160.272132,162.104492 160.923828,162.104492 Z M164.950195,159.233398 C164.950195,158.508785 165.092609,157.857099 165.377441,157.27832 C165.662274,156.699541 166.058754,156.252931 166.566895,155.938477 C167.075035,155.624022 167.654945,155.466797 168.306641,155.466797 C169.313807,155.466797 170.128415,155.815426 170.750488,156.512695 C171.372562,157.209964 171.683594,158.137364 171.683594,159.294922 L171.683594,159.383789 C171.683594,160.103845 171.545737,160.749834 171.27002,161.321777 C170.994302,161.89372 170.6001,162.339191 170.087402,162.658203 C169.574704,162.977215 168.98568,163.136719 168.320312,163.136719 C167.317703,163.136719 166.505374,162.788089 165.883301,162.09082 C165.261227,161.393551 164.950195,160.470709 164.950195,159.322266 L164.950195,159.233398 Z M166.22168,159.383789 C166.22168,160.204106 166.411945,160.862628 166.79248,161.359375 C167.173016,161.856122 167.682288,162.104492 168.320312,162.104492 C168.962894,162.104492 169.473305,161.852704 169.851562,161.349121 C170.22982,160.845538 170.418945,160.140304 170.418945,159.233398 C170.418945,158.422196 170.226402,157.764814 169.841309,157.26123 C169.456216,156.757647 168.944665,156.505859 168.306641,156.505859 C167.682289,156.505859 167.178713,156.754229 166.795898,157.250977 C166.413084,157.747724 166.22168,158.458654 166.22168,159.383789 Z M174.458984,155.603516 L174.493164,156.423828 C175.035484,155.785804 175.766922,155.466797 176.6875,155.466797 C177.72201,155.466797 178.426105,155.863277 178.799805,156.65625 C179.0459,156.300779 179.366046,156.013673 179.760254,155.794922 C180.154462,155.576171 180.62044,155.466797 181.158203,155.466797 C182.780607,155.466797 183.605469,156.325838 183.632812,158.043945 L183.632812,163 L182.368164,163 L182.368164,158.119141 C182.368164,157.590492 182.247397,157.195151 182.005859,156.933105 C181.764322,156.67106 181.358727,156.540039 180.789062,156.540039 C180.319659,156.540039 179.930015,156.680174 179.620117,156.960449 C179.31022,157.240724 179.130209,157.617836 179.080078,158.091797 L179.080078,163 L177.808594,163 L177.808594,158.15332 C177.808594,157.077794 177.282232,156.540039 176.229492,156.540039 C175.400061,156.540039 174.832684,156.893226 174.527344,157.599609 L174.527344,163 L173.262695,163 L173.262695,155.603516 L174.458984,155.603516 Z M188.609375,163.136719 C187.606766,163.136719 186.791019,162.807458 186.162109,162.148926 C185.5332,161.490394 185.21875,160.609706 185.21875,159.506836 L185.21875,159.274414 C185.21875,158.540686 185.358885,157.885582 185.63916,157.309082 C185.919435,156.732582 186.311358,156.281414 186.814941,155.955566 C187.318525,155.629718 187.864255,155.466797 188.452148,155.466797 C189.413742,155.466797 190.16113,155.783525 190.694336,156.416992 C191.227542,157.050459 191.494141,157.957351 191.494141,159.137695 L191.494141,159.664062 L186.483398,159.664062 C186.501628,160.393233 186.714679,160.982257 187.122559,161.431152 C187.530438,161.880048 188.048825,162.104492 188.677734,162.104492 C189.124351,162.104492 189.502603,162.013347 189.8125,161.831055 C190.122397,161.648762 190.393554,161.407228 190.625977,161.106445 L191.398438,161.708008 C190.778643,162.660487 189.848965,163.136719 188.609375,163.136719 Z M188.452148,156.505859 C187.941729,156.505859 187.513348,156.691567 187.166992,157.062988 C186.820636,157.434409 186.606446,157.955075 186.524414,158.625 L190.229492,158.625 L190.229492,158.529297 C190.193034,157.886716 190.019858,157.388836 189.709961,157.035645 C189.400064,156.682453 188.980797,156.505859 188.452148,156.505859 Z M200.989258,163 C200.916341,162.854166 200.857097,162.594403 200.811523,162.220703 C200.22363,162.831383 199.521814,163.136719 198.706055,163.136719 C197.976884,163.136719 197.378746,162.930503 196.911621,162.518066 C196.444496,162.105629 196.210938,161.582685 196.210938,160.949219 C196.210938,160.179033 196.503741,159.580894 197.089355,159.154785 C197.67497,158.728676 198.498693,158.515625 199.560547,158.515625 L200.791016,158.515625 L200.791016,157.93457 C200.791016,157.492511 200.658855,157.140464 200.394531,156.878418 C200.130207,156.616372 199.740562,156.485352 199.225586,156.485352 C198.774412,156.485352 198.39616,156.599283 198.09082,156.827148 C197.78548,157.055014 197.632812,157.330728 197.632812,157.654297 L196.361328,157.654297 C196.361328,157.285154 196.492349,156.92855 196.754395,156.584473 C197.01644,156.240395 197.371905,155.9681 197.820801,155.767578 C198.269696,155.567056 198.763018,155.466797 199.300781,155.466797 C200.152999,155.466797 200.820636,155.679848 201.303711,156.105957 C201.786786,156.532066 202.037435,157.118811 202.055664,157.866211 L202.055664,161.270508 C202.055664,161.949548 202.142252,162.489581 202.31543,162.890625 L202.31543,163 L200.989258,163 Z M198.890625,162.036133 C199.287111,162.036133 199.663084,161.933595 200.018555,161.728516 C200.374025,161.523436 200.63151,161.256838 200.791016,160.928711 L200.791016,159.411133 L199.799805,159.411133 C198.250318,159.411133 197.475586,159.864579 197.475586,160.771484 C197.475586,161.167971 197.607746,161.477863 197.87207,161.701172 C198.136395,161.92448 198.475909,162.036133 198.890625,162.036133 Z M205.234375,155.603516 L205.275391,156.533203 C205.840498,155.822262 206.578771,155.466797 207.490234,155.466797 C209.053393,155.466797 209.841797,156.348624 209.855469,158.112305 L209.855469,163 L208.59082,163 L208.59082,158.105469 C208.586263,157.572263 208.464357,157.178061 208.225098,156.922852 C207.985839,156.667642 207.613284,156.540039 207.107422,156.540039 C206.697264,156.540039 206.337241,156.649413 206.027344,156.868164 C205.717446,157.086915 205.475912,157.374022 205.302734,157.729492 L205.302734,163 L204.038086,163 L204.038086,155.603516 L205.234375,155.603516 Z M211.455078,159.240234 C211.455078,158.105463 211.723956,157.192875 212.261719,156.502441 C212.799482,155.812008 213.503576,155.466797 214.374023,155.466797 C215.239913,155.466797 215.925779,155.763018 216.431641,156.355469 L216.431641,152.5 L217.696289,152.5 L217.696289,163 L216.53418,163 L216.472656,162.207031 C215.966794,162.826826 215.2627,163.136719 214.360352,163.136719 C213.503576,163.136719 212.805178,162.785811 212.265137,162.083984 C211.725095,161.382158 211.455078,160.466151 211.455078,159.335938 L211.455078,159.240234 Z M212.719727,159.383789 C212.719727,160.222335 212.892902,160.878578 213.239258,161.352539 C213.585614,161.8265 214.064125,162.063477 214.674805,162.063477 C215.476892,162.063477 216.062498,161.703454 216.431641,160.983398 L216.431641,157.585938 C216.053384,156.888668 215.472335,156.540039 214.688477,156.540039 C214.068682,156.540039 213.585614,156.779294 213.239258,157.257812 C212.892902,157.736331 212.719727,158.444982 212.719727,159.383789 Z M222.823242,159.240234 C222.823242,158.087234 223.089841,157.170088 223.623047,156.48877 C224.156253,155.807451 224.862626,155.466797 225.742188,155.466797 C226.644536,155.466797 227.34863,155.785804 227.854492,156.423828 L227.916016,155.603516 L229.071289,155.603516 L229.071289,162.822266 C229.071289,163.779302 228.7876,164.533526 228.220215,165.084961 C227.652829,165.636396 226.89063,165.912109 225.933594,165.912109 C225.400388,165.912109 224.878583,165.798178 224.368164,165.570312 C223.857745,165.342447 223.4681,165.030275 223.199219,164.633789 L223.855469,163.875 C224.397789,164.544925 225.060868,164.879883 225.844727,164.879883 C226.459964,164.879883 226.939614,164.706707 227.283691,164.360352 C227.627769,164.013996 227.799805,163.52637 227.799805,162.897461 L227.799805,162.261719 C227.293943,162.845055 226.60352,163.136719 225.728516,163.136719 C224.862626,163.136719 224.161949,162.788089 223.626465,162.09082 C223.09098,161.393551 222.823242,160.443365 222.823242,159.240234 Z M224.094727,159.383789 C224.094727,160.217778 224.265623,160.872882 224.607422,161.349121 C224.94922,161.82536 225.427731,162.063477 226.042969,162.063477 C226.840499,162.063477 227.426105,161.701175 227.799805,160.976562 L227.799805,157.599609 C227.412433,156.893226 226.831384,156.540039 226.056641,156.540039 C225.441403,156.540039 224.960614,156.779294 224.614258,157.257812 C224.267902,157.736331 224.094727,158.444982 224.094727,159.383789 Z M230.643555,159.233398 C230.643555,158.508785 230.785969,157.857099 231.070801,157.27832 C231.355633,156.699541 231.752113,156.252931 232.260254,155.938477 C232.768394,155.624022 233.348304,155.466797 234,155.466797 C235.007166,155.466797 235.821774,155.815426 236.443848,156.512695 C237.065921,157.209964 237.376953,158.137364 237.376953,159.294922 L237.376953,159.383789 C237.376953,160.103845 237.239096,160.749834 236.963379,161.321777 C236.687661,161.89372 236.29346,162.339191 235.780762,162.658203 C235.268064,162.977215 234.67904,163.136719 234.013672,163.136719 C233.011063,163.136719 232.198734,162.788089 231.57666,162.09082 C230.954587,161.393551 230.643555,160.470709 230.643555,159.322266 L230.643555,159.233398 Z M231.915039,159.383789 C231.915039,160.204106 232.105304,160.862628 232.48584,161.359375 C232.866376,161.856122 233.375648,162.104492 234.013672,162.104492 C234.656253,162.104492 235.166665,161.852704 235.544922,161.349121 C235.923179,160.845538 236.112305,160.140304 236.112305,159.233398 C236.112305,158.422196 235.919761,157.764814 235.534668,157.26123 C235.149575,156.757647 234.638024,156.505859 234,156.505859 C233.375648,156.505859 232.872072,156.754229 232.489258,157.250977 C232.106443,157.747724 231.915039,158.458654 231.915039,159.383789 Z M240.446289,160.197266 C240.455404,159.654945 240.516927,159.226564 240.630859,158.912109 C240.744792,158.597655 240.977212,158.249025 241.328125,157.866211 L242.223633,156.943359 C242.606447,156.510415 242.797852,156.045575 242.797852,155.548828 C242.797852,155.07031 242.672527,154.695477 242.421875,154.424316 C242.171223,154.153156 241.806643,154.017578 241.328125,154.017578 C240.863279,154.017578 240.489585,154.140624 240.207031,154.386719 C239.924478,154.632814 239.783203,154.963214 239.783203,155.37793 L238.518555,155.37793 C238.527669,154.639645 238.79085,154.043785 239.308105,153.590332 C239.825361,153.136879 240.498694,152.910156 241.328125,152.910156 C242.189457,152.910156 242.860512,153.141436 243.341309,153.604004 C243.822105,154.066571 244.0625,154.701168 244.0625,155.507812 C244.0625,156.305343 243.693363,157.091467 242.955078,157.866211 L242.209961,158.604492 C241.877277,158.973635 241.710938,159.504554 241.710938,160.197266 L240.446289,160.197266 Z M240.391602,162.364258 C240.391602,162.159179 240.454264,161.987143 240.57959,161.848145 C240.704916,161.709146 240.890624,161.639648 241.136719,161.639648 C241.382814,161.639648 241.569661,161.709146 241.697266,161.848145 C241.82487,161.987143 241.888672,162.159179 241.888672,162.364258 C241.888672,162.569337 241.82487,162.739094 241.697266,162.873535 C241.569661,163.007976 241.382814,163.075195 241.136719,163.075195 C240.890624,163.075195 240.704916,163.007976 240.57959,162.873535 C240.454264,162.739094 240.391602,162.569337 240.391602,162.364258 Z" id="Can-the-pain-of-arth" fill="#FEFEFE"></path>
        </g>
    </g>
</svg>