<?xml version="1.0" encoding="UTF-8"?>
<svg width="572px" height="466px" viewBox="0 0 572 466" version="1.1" xmlns="http://www.w3.org/2000/svg" xmlns:xlink="http://www.w3.org/1999/xlink">
    <!-- Generator: Sketch 50.2 (55047) - http://www.bohemiancoding.com/sketch -->
    <title>Group 3svg</title>
    <desc>Created with Sketch.</desc>
    <defs>
        <path d="M6.66147541,19.7852679 C5.28688525,19.1504464 2.1147541,18.6214286 0.951639344,22.1129464 C-0.21147541,25.6044643 0.740163934,26.9799107 2.1147541,28.14375 C3.48934426,29.3075893 5.18114754,29.5191964 5.18114754,29.5191964 C5.18114754,29.5191964 6.13278689,42.3214286 9.30491803,48.6696429 C12.4770492,55.0178571 20.8303279,61.1544643 29.2893443,60.6254464 C38.9114754,60.0964286 45.8901639,55.1236607 49.9081967,48.2464286 C53.9262295,41.3691964 56.7811475,30.2598214 57.3098361,23.2767857 C57.7327869,17.8808036 58.5786885,9.94553571 56.252459,7.61785714 C53.9262295,5.29017857 51.4942623,8.67589286 49.3795082,9.41651786 C47.3704918,10.1571429 43.2467213,10.7919643 39.2286885,7.93526786 C35.2106557,5.07857143 31.0868852,2.53928571 27.9147541,1.48125 C24.742623,0.423214286 22.3106557,0.634821429 19.5614754,3.49151786 C17.552459,5.60758929 16.8122951,8.57008929 16.7065574,10.5803571 C16.6008197,12.4848214 16.6008197,17.4575893 15.9663934,22.0071429 C15.3319672,26.5566964 14.3803279,30.8946429 14.3803279,30.8946429 C14.3803279,30.8946429 12.3713115,29.8366071 12.1598361,27.2973214 C11.9483607,24.7580357 11.5254098,20.5258929 11.2081967,18.8330357 C10.8909836,17.1401786 10.8909836,17.1401786 10.8909836,17.1401786 L8.88196721,21.0549107 C8.98770492,21.478125 7.29590164,20.1026786 6.66147541,19.7852679 Z" id="path-1"></path>
        <path d="M13.7459016,1.26964286 C13.7459016,1.26964286 17.4467213,29.4133929 15.3319672,32.5875 C13.3229508,35.55 9.51639344,34.7035714 9.51639344,34.7035714 C9.51639344,34.7035714 8.24754098,51.3147321 1.05737705,55.1236607 C-3.70081967,57.6629464 18.9270492,52.2669643 18.9270492,52.2669643 L28.8663934,36.5022321 L31.5098361,25.7102679 L32.6729508,14.8125 L31.9327869,0 L13.7459016,1.26964286 Z" id="path-3"></path>
    </defs>
    <g id="Page-1" stroke="none" stroke-width="1" fill="none" fill-rule="evenodd">
        <g id="Artboard-Copy-4" transform="translate(-745.000000, -144.000000)">
            <g id="Group-3" transform="translate(745.000000, 144.000000)">
                <rect id="Rectangle-3" fill="#F6F6F6" x="182" y="0" width="206" height="357" rx="35"></rect>
                <path d="M351.444857,108 L351.446969,108.00316 L142.366393,108.00316 C138.864349,108.00316 136,110.82829 136,114.280174 L136,199.721933 C136,203.17487 138.864349,206 142.366393,206 L356.188506,206 C359.689494,206 362.553843,203.17487 362.553843,199.721933 L362.553843,123.781545 C362.723648,123.80947 365.758965,120.731672 369.094392,117.287223 C373.307751,112.936146 378,108 378,108 L351.444857,108 Z" id="Fill-7" fill="#1080C4"></path>
                <g id="Group" transform="translate(195.000000, 34.000000)">
                    <path d="M0.735455172,0.93361875 C0.735455172,0.93361875 7.15266207,6.50643125 8.0073,8.65055625 C8.86405862,10.7936188 13.9971879,0.93361875 13.9971879,0.93361875 L0.735455172,0.93361875 Z" id="Fill-10" fill="#FEFEFE"></path>
                    <path d="M111.491866,50.6605312 L19.3765293,50.6605312 C13.594469,50.6605312 8.86427069,45.9207187 8.86427069,40.1258437 L8.86427069,11.4680937 C8.86427069,5.67428125 13.594469,0.93340625 19.3765293,0.93340625 L111.491866,0.93340625 C117.273926,0.93340625 122.004124,5.67428125 122.004124,11.4680937 L122.004124,40.1258437 C122.004124,45.9207187 117.273926,50.6605312 111.491866,50.6605312" id="Fill-12" fill="#FEFEFE"></path>
                    <path d="M87.5863914,16.9862937 L23.9646414,16.9862937 C22.9912448,16.9862937 22.1938655,16.1883562 22.1938655,15.2129812 C22.1938655,14.2365437 22.9912448,13.4386062 23.9646414,13.4386062 L87.5863914,13.4386062 C88.5608483,13.4386062 89.3571672,14.2365437 89.3571672,15.2129812 C89.3571672,16.1883562 88.5608483,16.9862937 87.5863914,16.9862937" id="Fill-14" fill="#F2F2F2"></path>
                    <path d="M56.404619,24.642775 L24.0015414,24.642775 C23.0079983,24.642775 22.1936534,23.8278375 22.1936534,22.8312125 C22.1936534,21.8345875 23.0079983,21.01965 24.0015414,21.01965 L56.404619,21.01965 C57.3981621,21.01965 58.2125069,21.8345875 58.2125069,22.8312125 C58.2125069,23.8278375 57.3981621,24.642775 56.404619,24.642775" id="Fill-16" fill="#F2F2F2"></path>
                    <path d="M80.3597172,24.642775 L67.2421914,24.642775 C66.2475879,24.642775 65.4343034,23.8278375 65.4343034,22.8312125 C65.4343034,21.8345875 66.2475879,21.01965 67.2421914,21.01965 L80.3597172,21.01965 C81.3532603,21.01965 82.1665448,21.8345875 82.1665448,22.8312125 C82.1665448,23.8278375 81.3532603,24.642775 80.3597172,24.642775" id="Fill-18" fill="#F2F2F2"></path>
                </g>
                <g id="pregnant-lady" transform="translate(381.000000, 29.000000)">
                    <path d="M173.175138,99.1650435 C173.175138,146.852156 134.573644,185.510445 86.956589,185.510445 C39.340589,185.510445 0.739094505,146.852156 0.739094505,99.1650435 C0.739094505,51.4779305 39.340589,12.8196424 86.956589,12.8196424 C134.573644,12.8196424 173.175138,51.4779305 173.175138,99.1650435" id="Fill-3" stroke="#FFFFFF" stroke-width="5" fill="#ECF6F6"></path>
                    <path d="M62.1843692,38.1856113 C62.1843692,38.1856113 62.1622154,52.6342667 65.1572044,59.1222158 C68.1521934,65.610165 76.6339516,73.5624192 85.6199736,72.8218147 C94.6038857,72.0801537 100.105424,66.6106678 104.598435,59.1127073 C109.091446,51.6136904 109.692765,47.1880237 109.692765,47.1880237 C109.692765,47.1880237 115.34938,44.5319898 115.34938,40.1971819 C115.34938,35.862374 109.275007,33.3426282 108.607226,36.4751424 C107.925732,39.6710463 115.080369,28.7944079 102.242743,21.1031085 C92.6754462,15.3716113 88.7647648,11.9126395 82.4002813,12.9458938 C76.0368527,13.979148 64.4303473,22.6487638 62.1843692,38.1856113" id="Fill-90" fill="#52A5D3"></path>
                    <path d="M80.6428484,11.1968627 C80.6428484,11.1968627 68.9593319,38.6752977 70.9932659,50.5228571 C71.1335736,51.3405859 71.9574857,51.8561565 72.759244,51.651196 C73.4196396,51.483213 74.3268923,51.2423316 75.5274198,50.907422 C75.5274198,50.907422 73.9566066,65.9392638 84.4976176,72.605761 C95.0386286,79.2712017 67.2439912,69.3602017 67.2439912,69.3602017 L61.3479033,40.8907723 L62.1844747,29.2925463 L75.9673319,14.3188119 L80.6428484,11.1968627 Z" id="Fill-92" fill="#1080C4"></path>
                    <path d="M96.6750593,36.5848068 C94.6200264,34.8944113 91.554356,34.6778294 89.1564659,35.8283548 C86.7585758,36.9778237 85.0516747,39.3528294 84.4450813,41.9454734 C86.8071033,42.5117559 89.2556308,42.9903492 91.6482462,42.5804282 C94.0408615,42.1705073 96.3891692,40.6945808 97.1962022,38.4019819 C97.3101363,38.0808068 97.391367,37.7289932 97.2995868,37.4014791 C97.2056967,37.0665695 96.9440703,36.8056147 96.6750593,36.5848068" id="Fill-94" fill="#C2E8FA"></path>
                    <path d="M63.7946374,33.7527605 C63.7946374,33.7527605 64.8548571,33.6037944 71.6033407,25.0366588 C73.6351648,22.4566927 76.1754725,18.1683706 78.2537143,13.5905684 C78.2537143,13.5905684 81.0250549,19.6126023 86.8852747,24.8285288 C91.9352967,29.3228678 101.003604,33.2139469 108.715253,33.7210655 C109.269099,33.7569864 109.62356,34.3296079 109.415736,34.846235 L108.739516,36.5260655 C108.600264,36.7859638 108.840791,37.088122 109.123516,37.0067718 C110.810374,36.5176136 114.634549,35.8150429 114.336,39.5930768 C113.819077,46.1275119 108.242637,45.9806588 108.242637,45.9806588 C108.242637,45.9806588 105.534593,56.6259243 103.652571,60.9871446 C100.402286,68.5199695 105.915429,77.7442463 105.915429,77.7442463 C105.915429,77.7442463 129.97978,100.914286 136.299956,97.1785119 C140.624176,94.6207322 143.152879,76.940252 129.310945,63.1328904 C122.558242,56.3977209 122.590945,48.0524497 121.421011,43.261235 C120.581275,39.8212802 120.96,28.0835966 115.450022,18.7927605 C110.492835,10.4326983 102.15033,3.80951751 93.6305934,1.10382825 C88.2904615,-0.591849718 80.4163516,-0.783075706 71.3955165,5.88976045 C67.1820659,9.00748362 63.4327912,12.9915345 61.1752088,21.8904102 C54.356044,48.7603028 69.4101099,54.134704 57.8046593,75.5055288 C46.1992088,96.8763537 34.2192527,92.3767322 34.2192527,92.3767322 C34.2192527,92.3767322 40.2197802,116.746953 65.1618462,107.862868 C78.6366593,103.064258 89.2894945,76.8187548 89.2894945,76.8187548 L88.1754725,72.5441672 C88.1754725,72.5441672 73.4916923,74.7057605 67.7053187,61.9189751 C60.8882637,46.8543819 63.7946374,33.7527605 63.7946374,33.7527605" id="Fill-96" fill="#063447"></path>
                    <path d="M136.681635,138.544074 C139.232492,138.88321 143.515569,136.613854 143.951262,134.075091 C144.249811,132.339266 143.630558,130.581255 143.620009,128.821131 C143.597855,125.285034 146.363921,121.933825 149.835745,121.290419 C150.981415,121.078063 152.189327,121.125605 153.269591,120.686102 C156.596888,119.333786 156.626426,114.773944 157.183437,111.219888 C158.203569,104.68334 163.167086,98.9254299 169.476712,96.9603452 C175.784229,94.994204 183.132976,96.9159723 187.678734,101.718808 C188.856053,102.963362 189.86247,104.397029 190.450075,106.008187 C191.385811,108.576532 191.175877,111.541063 189.886734,113.950933 C187.776844,117.894837 183.317591,119.876825 179.132624,121.442554 C178.307657,121.752108 177.364536,122.183159 177.175701,123.044204 C177.028009,123.718249 177.416229,124.382786 177.797064,124.959633 C181.171833,130.079419 185.393723,135.859515 183.62458,141.733639 C182.659305,144.940108 180.022998,147.380616 177.172536,149.133345 C174.32313,150.886074 171.174119,152.108441 168.325767,153.863283 C167.681196,154.259469 167.01869,154.723272 166.72858,155.423729 C166.504932,155.965712 166.535525,156.576368 166.600932,157.160611 C167.31091,163.433034 171.585547,169.312441 170.448316,175.521475 C169.743613,179.362899 166.925855,182.639097 163.426602,184.3633 C159.927349,186.087503 155.829943,186.362193 151.999437,185.631097 C151.999437,185.631097 121.129635,181.581543 117.309679,167.175147 C113.489723,152.767695 122.936756,137.456938 136.681635,138.544074" id="Fill-98" fill="#D0DEE4"></path>
                    <path d="M172.966998,109.319566 C162.649635,123.289628 154.284976,138.702866 148.192668,154.971866" id="Stroke-100" stroke="#FEFEFE" stroke-width="1.5"></path>
                    <path d="M169.917574,134.53678 C166.6272,134.408944 163.307288,134.283221 160.061222,134.837882 C158.876519,135.040729 157.685486,135.341831 156.667464,135.981012" id="Stroke-102" stroke="#FEFEFE" stroke-width="1.5"></path>
                    <path d="M175.855754,114.472631 C173.264809,114.677592 170.703402,115.256552 168.275974,116.185213 C168.618831,113.461563 168.959578,110.737914 169.30138,108.014264" id="Stroke-104" stroke="#FEFEFE" stroke-width="1.5"></path>
                    <path d="M156.61324,135.573627 C156.873811,132.808773 156.623789,129.997434 155.876888,127.32344" id="Stroke-106" stroke="#FEFEFE" stroke-width="1.5"></path>
                    <path d="M159.064193,156.073264 C155.839226,156.484241 152.661732,157.255484 149.606611,158.369032" id="Stroke-108" stroke="#FEFEFE" stroke-width="1.5"></path>
                    <path d="M141.982101,88.6555379 C141.982101,88.6555379 161.277046,87.0729051 161.628343,95.7647073 C161.97964,104.455453 132.093046,183.412769 132.093046,183.412769 L75.9826286,183.446577 L121.819991,89.7627469 L141.982101,88.6555379 Z" id="Fill-110" fill="#0F5068"></path>
                    <path d="M39.0744264,128.67956 C39.0744264,128.67956 55.8322286,117.16691 78.4344264,115.995255 C78.4344264,115.995255 85.2208879,115.438481 90.0113934,117.765944 C90.0113934,117.765944 93.5834374,120.751605 88.5418549,119.934933 C83.5002725,119.11826 81.1625143,119.11826 81.1625143,119.11826 C81.1625143,119.11826 87.9479209,119.897955 90.0113934,124.387012 C90.0113934,124.387012 90.7424703,127.192012 87.3919648,125.964362 C87.3919648,125.964362 84.4149099,123.974978 82.1066901,123.790091 C82.1066901,123.790091 86.7452835,126.327797 85.7937231,128.67956 C85.4835692,129.446577 83.5002725,126.72821 81.1625143,126.14291 C78.824756,125.557611 74.2737231,127.520582 72.1300747,126.154532 C69.9874813,124.788481 69.9790418,124.238046 69.9790418,124.238046 C69.9790418,124.238046 58.1699868,128.09426 51.1546022,137.851012 C44.1402725,147.607763 42.8469099,148.370554 42.8469099,148.370554 C42.8469099,148.370554 37.3211077,153.657266 33.6182505,154.438018 C29.9164484,155.218769 30.5008879,139.997814 39.0744264,128.67956" id="Fill-112" fill="#1080C4"></path>
                    <path d="M54.0682549,119.116464 C54.0682549,119.116464 55.2360791,79.4006226 96.1943209,76.8196 C137.151508,74.2375209 144.574101,119.779945 125.632563,183.412769 L23.3904527,183.412769 C23.3904527,183.412769 13.2028484,146.02756 47.5033319,127.453284 C47.5033319,127.453284 52.2938374,125.050809 53.260167,124.930368 L54.0682549,119.116464 Z" id="Fill-114" fill="#FFCE44"></path>
                    <path d="M87.9429626,72.5119441 C87.9429626,72.5119441 88.8755341,75.4564017 88.3322374,77.3602096 C88.3322374,77.3602096 80.3441934,79.7721927 79.4612044,80.5835825 C78.4885451,81.4773791 84.5935121,91.6250345 95.8096879,89.4602718 C107.026919,87.2944525 112.505248,80.7895994 113.292237,78.7241475 C113.292237,78.7241475 108.042831,76.9228198 105.527842,77.0369215 C105.527842,77.0369215 101.764853,69.9943113 102.902084,63.9099441 C102.902084,63.9099441 104.077292,60.1393056 103.987622,60.1086672 C103.787182,60.0421079 98.5441055,70.7306898 87.9429626,72.5119441" id="Fill-116" fill="#1080C4"></path>
                    <path d="M90.1599297,91.6371842 C88.7737319,97.0802576 85.5804132,106.882438 85.2523253,113.376727 L86.4328088,113.508789 C86.4328088,113.508789 92.5873582,91.1554215 92.3890286,89.9235458 L90.7717978,89.664704 C90.7717978,89.664704 90.2749187,91.1818339 90.1599297,91.6371842" id="Fill-118" fill="#52A5D3"></path>
                    <path d="M83.760211,98.5266023 C83.3888703,98.6871898 82.9943209,98.9143367 82.7137055,99.8451107 C82.3930022,100.900551 82.991156,102.422964 84.1695297,102.464167 C85.3468484,102.504314 86.4228923,102.01093 86.5326066,100.739964 C86.6412659,99.4679412 85.8120791,98.636478 84.816211,98.4167266 C84.6389802,98.3776362 84.0608703,98.3966531 83.760211,98.5266023" id="Fill-120" fill="#52A5D3"></path>
                    <path d="M85.7506813,91.9333203 C85.4616264,92.0696085 85.1525275,92.2629475 84.9267692,93.0436989 C84.6714725,93.9301 85.1261538,95.2010661 86.0429011,95.2274785 C86.9596484,95.2528345 87.8004396,94.8334051 87.8943297,93.7673994 C87.9882198,92.7024503 87.3478681,92.0115011 86.5724835,91.8340096 C86.4353407,91.8023147 85.9859341,91.8223881 85.7506813,91.9333203" id="Fill-122" fill="#52A5D3"></path>
                    <path d="M129.580273,118.893121 C129.580273,118.893121 131.340976,125.898754 128.9568,132.836771 C127.89658,135.924912 124.801371,139.287742 118.982295,143.034081 C118.982295,143.034081 123.137723,158.922742 116.904053,169.671545 C113.164273,176.123573 108.538338,181.014098 96.1248,183.407064 L125.632668,183.615194 C125.632668,183.615194 130.806119,177.037443 133.321108,168.422765 C134.275833,165.152906 135.174646,161.521725 135.919437,158.040567 C137.009196,152.942968 136.854119,146.089471 136.854119,143.242211 C136.854119,137.830833 136.147305,134.718392 134.775877,130.339211 C132.385371,122.704963 129.580273,118.893121 129.580273,118.893121" id="Fill-124" fill="#FAB91A"></path>
                    <path d="M119.216281,83.4529232 C119.216281,83.4529232 126.183138,82.3890305 133.557204,89.2530927 C136.915095,92.3782113 141.107446,96.219635 146.568897,105.313963 C147.534171,106.920895 151.243358,114.054364 153.742523,120.467302 C153.742523,120.467302 147.049952,129.771872 133.16582,129.97472 C133.16582,129.97472 120.841952,101.345759 118.295314,92.9561153 C116.310963,86.4153412 115.809864,83.7836068 119.216281,83.4529232" id="Fill-126" fill="#FFCE44"></path>
                    <path d="M153.741996,120.467513 C153.741996,120.467513 153.824281,120.683038 153.970919,121.076055 C154.857073,123.453174 158.07782,132.323524 159.504105,139.287954 C161.166699,147.403965 161.374523,153.438677 160.752105,160.098835 C160.127578,166.757937 158.049336,172.585575 156.179974,176.748174 C155.041688,179.279541 151.192193,183.823536 151.192193,183.823536 L139.970743,184.031666 L135.191842,183.823536 C135.191842,183.823536 142.672457,159.266315 141.84116,153.855993 C141.009864,148.444615 133.165292,129.974931 133.165292,129.974931 C133.165292,129.974931 140.386391,128.882513 144.958523,126.801214 C149.5296,124.719914 153.741996,120.467513 153.741996,120.467513" id="Fill-128" fill="#1080C4"></path>
                    <path d="M55.5301978,132.877234 C46.5061978,132.47154 40.263033,135.651596 37.7543736,137.108506 C35.2446593,138.566472 5.1956044,148.808155 20.1895385,120.509879 C24.6941538,112.009302 30.1914725,105.826681 37.3155165,100.170195 C53.9055824,86.9999011 74.2037802,82.4590763 74.2037802,82.4590763 C74.2037802,82.4590763 75.6131868,82.0692288 75.975033,82.2372119 C76.3368791,82.4062514 75.9497143,83.489161 75.9497143,83.489161" id="Fill-130" fill="#FFCE44"></path>
                    <path d="M56.3821714,130.339106 C56.3821714,130.339106 65.203622,126.401541 77.5781275,126.384637 C86.6095121,126.373015 93.4244571,127.922897 96.4880176,129.298456 C99.5009407,130.650772 107.501644,134.501705 107.501644,134.501705 C107.501644,134.501705 102.929512,128.049676 96.0723692,124.927727 C90.0961055,122.207247 85.4743912,120.974315 79.0328967,120.974315 C73.8204132,120.974315 68.8495121,122.223094 63.4471385,124.720654 C60.3234462,126.163829 56.3821714,130.339106 56.3821714,130.339106" id="Fill-132" fill="#FAB91A"></path>
                    <path d="M18.9253978,123.263533 C22.9774418,119.621787 27.4451341,117.332358 34.4067165,115.771911 C40.5074637,114.403747 50.2161231,112.927821 57.6809143,113.898742 C65.6805626,114.939392 73.8901451,118.061341 77.2142769,119.933454 C80.5384088,121.806623 83.6557714,124.928572 83.6557714,124.928572 C83.6557714,124.928572 88.7152879,129.631041 89.7860571,131.276007 C90.8758154,132.948442 89.9738374,134.635668 89.1625846,133.877103 C87.9388484,132.73186 85.3194198,130.548081 85.3194198,130.548081 C85.3194198,130.548081 88.2205187,135.121657 87.3966066,135.43755 C86.0462769,135.958403 84.8330901,134.12538 83.760211,132.836454 C82.7210901,131.587674 81.5785846,130.964341 81.5785846,130.964341 C81.5785846,130.964341 83.5091341,136.167589 82.4098813,136.374663 C80.7472879,136.686329 78.461222,131.379544 78.461222,131.379544 C78.461222,131.379544 75.9673319,130.964341 75.1360352,130.338894 C74.3047385,129.714505 71.8119033,125.344832 71.8119033,125.344832 C71.8119033,125.344832 69.0658813,125.356454 65.577178,126.280889 C61.2023209,127.440923 55.5731341,129.70077 51.7584527,131.379544 C46.7938813,133.56438 40.6414418,136.999053 36.9006066,139.080352 C33.1597714,141.160595 29.6225407,143.238725 25.4713319,143.033764 C19.133222,142.721041 16.5359473,139.581132 15.7046505,136.999053 C13.6274637,130.548081 15.3428044,126.483736 18.9253978,123.263533" id="Fill-134" fill="#1080C4"></path>
                </g>
                <g id="Group-2" transform="translate(195.000000, 231.000000)">
                    <path d="M168.425416,0.658694118 L16.3752939,0.658694118 C16.1885805,0.658694118 16.0039768,0.674576471 15.8214829,0.696811765 L0.564781707,0.696811765 C0.564781707,0.696811765 7.67887927,4.33281176 11.8488122,7.07092941 L11.8488122,67.0426941 C11.8488122,69.5404588 13.8868366,71.5861059 16.3752939,71.5861059 L168.425416,71.5861059 C170.914928,71.5861059 172.951898,69.5404588 172.951898,67.0426941 L172.951898,5.20316471 C172.951898,2.70328235 170.914928,0.658694118 168.425416,0.658694118" id="Fill-136" fill="#FEFEFE" transform="translate(86.758340, 36.122400) scale(1, -1) translate(-86.758340, -36.122400) "></path>
                    <path d="M118.176511,22.8236824 L27.0856817,22.8236824 C25.8367061,22.8236824 24.8145293,21.7976824 24.8145293,20.5440353 L24.8145293,20.0442706 C24.8145293,18.7895647 25.8367061,17.7635647 27.0856817,17.7635647 L118.176511,17.7635647 C119.426541,17.7635647 120.447663,18.7895647 120.447663,20.0442706 L120.447663,20.5440353 C120.447663,21.7976824 119.426541,22.8236824 118.176511,22.8236824" id="Fill-138" fill="#F2F2F2"></path>
                    <path d="M73.5264768,33.7442824 L27.3882207,33.7442824 C25.9725744,33.7442824 24.8143183,32.5816941 24.8143183,31.1607529 C24.8143183,29.7398118 25.9725744,28.5772235 27.3882207,28.5772235 L73.5264768,28.5772235 C74.9421232,28.5772235 76.1003793,29.7398118 76.1003793,31.1607529 C76.1003793,32.5816941 74.9421232,33.7442824 73.5264768,33.7442824" id="Fill-140" fill="#F2F2F2"></path>
                    <path d="M107.635959,33.7442824 L88.9582878,33.7442824 C87.5415866,33.7442824 86.3843854,32.5816941 86.3843854,31.1607529 C86.3843854,29.7398118 87.5415866,28.5772235 88.9582878,28.5772235 L107.635959,28.5772235 C109.051605,28.5772235 110.209861,29.7398118 110.209861,31.1607529 C110.209861,32.5816941 109.051605,33.7442824 107.635959,33.7442824" id="Fill-142" fill="#F2F2F2"></path>
                </g>
                <path d="M158.301758,146.862305 L158.493164,148.174805 L158.773438,146.992188 L160.742188,140.046875 L161.849609,140.046875 L163.770508,146.992188 L164.043945,148.195312 L164.255859,146.855469 L165.800781,140.046875 L167.120117,140.046875 L164.707031,150 L163.510742,150 L161.459961,142.74707 L161.302734,141.988281 L161.145508,142.74707 L159.019531,150 L157.823242,150 L155.416992,140.046875 L156.729492,140.046875 L158.301758,146.862305 Z M169.642578,143.499023 C170.203128,142.810869 170.932287,142.466797 171.830078,142.466797 C173.393237,142.466797 174.181641,143.348624 174.195312,145.112305 L174.195312,150 L172.930664,150 L172.930664,145.105469 C172.926107,144.572263 172.8042,144.178061 172.564941,143.922852 C172.325682,143.667642 171.953128,143.540039 171.447266,143.540039 C171.037107,143.540039 170.677085,143.649413 170.367188,143.868164 C170.05729,144.086915 169.815756,144.374022 169.642578,144.729492 L169.642578,150 L168.37793,150 L168.37793,139.5 L169.642578,139.5 L169.642578,143.499023 Z M180.655273,150 C180.582356,149.854166 180.523112,149.594403 180.477539,149.220703 C179.889645,149.831383 179.18783,150.136719 178.37207,150.136719 C177.6429,150.136719 177.044761,149.930503 176.577637,149.518066 C176.110512,149.105629 175.876953,148.582685 175.876953,147.949219 C175.876953,147.179033 176.169756,146.580894 176.755371,146.154785 C177.340986,145.728676 178.164708,145.515625 179.226562,145.515625 L180.457031,145.515625 L180.457031,144.93457 C180.457031,144.492511 180.324871,144.140464 180.060547,143.878418 C179.796223,143.616372 179.406578,143.485352 178.891602,143.485352 C178.440427,143.485352 178.062176,143.599283 177.756836,143.827148 C177.451496,144.055014 177.298828,144.330728 177.298828,144.654297 L176.027344,144.654297 C176.027344,144.285154 176.158365,143.92855 176.42041,143.584473 C176.682456,143.240395 177.037921,142.9681 177.486816,142.767578 C177.935712,142.567056 178.429034,142.466797 178.966797,142.466797 C179.819015,142.466797 180.486651,142.679848 180.969727,143.105957 C181.452802,143.532066 181.70345,144.118811 181.72168,144.866211 L181.72168,148.270508 C181.72168,148.949548 181.808267,149.489581 181.981445,149.890625 L181.981445,150 L180.655273,150 Z M178.556641,149.036133 C178.953127,149.036133 179.3291,148.933595 179.68457,148.728516 C180.040041,148.523436 180.297525,148.256838 180.457031,147.928711 L180.457031,146.411133 L179.46582,146.411133 C177.916333,146.411133 177.141602,146.864579 177.141602,147.771484 C177.141602,148.167971 177.273762,148.477863 177.538086,148.701172 C177.80241,148.92448 178.141925,149.036133 178.556641,149.036133 Z M185.419922,140.8125 L185.419922,142.603516 L186.800781,142.603516 L186.800781,143.581055 L185.419922,143.581055 L185.419922,148.167969 C185.419922,148.464194 185.481445,148.68636 185.604492,148.834473 C185.72754,148.982585 185.937173,149.056641 186.233398,149.056641 C186.379233,149.056641 186.579751,149.029297 186.834961,148.974609 L186.834961,150 C186.502277,150.091146 186.178713,150.136719 185.864258,150.136719 C185.299151,150.136719 184.873048,149.965822 184.585938,149.624023 C184.298827,149.282225 184.155273,148.796878 184.155273,148.167969 L184.155273,143.581055 L182.808594,143.581055 L182.808594,142.603516 L184.155273,142.603516 L184.155273,140.8125 L185.419922,140.8125 Z M192.365234,150 L192.365234,143.581055 L191.196289,143.581055 L191.196289,142.603516 L192.365234,142.603516 L192.365234,141.844727 C192.365234,141.051754 192.577146,140.438804 193.000977,140.005859 C193.424807,139.572915 194.024085,139.356445 194.798828,139.356445 C195.090496,139.356445 195.379881,139.395182 195.666992,139.472656 L195.598633,140.498047 C195.384439,140.457031 195.156577,140.436523 194.915039,140.436523 C194.504881,140.436523 194.188152,140.556151 193.964844,140.79541 C193.741535,141.034669 193.629883,141.377602 193.629883,141.824219 L193.629883,142.603516 L195.208984,142.603516 L195.208984,143.581055 L193.629883,143.581055 L193.629883,150 L192.365234,150 Z M196.268555,146.233398 C196.268555,145.508785 196.410969,144.857099 196.695801,144.27832 C196.980633,143.699541 197.377113,143.252931 197.885254,142.938477 C198.393394,142.624022 198.973304,142.466797 199.625,142.466797 C200.632166,142.466797 201.446774,142.815426 202.068848,143.512695 C202.690921,144.209964 203.001953,145.137364 203.001953,146.294922 L203.001953,146.383789 C203.001953,147.103845 202.864096,147.749834 202.588379,148.321777 C202.312661,148.89372 201.91846,149.339191 201.405762,149.658203 C200.893064,149.977215 200.30404,150.136719 199.638672,150.136719 C198.636063,150.136719 197.823734,149.788089 197.20166,149.09082 C196.579587,148.393551 196.268555,147.470709 196.268555,146.322266 L196.268555,146.233398 Z M197.540039,146.383789 C197.540039,147.204106 197.730304,147.862628 198.11084,148.359375 C198.491376,148.856122 199.000648,149.104492 199.638672,149.104492 C200.281253,149.104492 200.791665,148.852704 201.169922,148.349121 C201.548179,147.845538 201.737305,147.140304 201.737305,146.233398 C201.737305,145.422196 201.544761,144.764814 201.159668,144.26123 C200.774575,143.757647 200.263024,143.505859 199.625,143.505859 C199.000648,143.505859 198.497072,143.754229 198.114258,144.250977 C197.731443,144.747724 197.540039,145.458654 197.540039,146.383789 Z M204.25293,146.233398 C204.25293,145.508785 204.395344,144.857099 204.680176,144.27832 C204.965008,143.699541 205.361488,143.252931 205.869629,142.938477 C206.377769,142.624022 206.957679,142.466797 207.609375,142.466797 C208.616541,142.466797 209.431149,142.815426 210.053223,143.512695 C210.675296,144.209964 210.986328,145.137364 210.986328,146.294922 L210.986328,146.383789 C210.986328,147.103845 210.848471,147.749834 210.572754,148.321777 C210.297036,148.89372 209.902835,149.339191 209.390137,149.658203 C208.877439,149.977215 208.288415,150.136719 207.623047,150.136719 C206.620438,150.136719 205.808109,149.788089 205.186035,149.09082 C204.563962,148.393551 204.25293,147.470709 204.25293,146.322266 L204.25293,146.233398 Z M205.524414,146.383789 C205.524414,147.204106 205.714679,147.862628 206.095215,148.359375 C206.475751,148.856122 206.985023,149.104492 207.623047,149.104492 C208.265628,149.104492 208.77604,148.852704 209.154297,148.349121 C209.532554,147.845538 209.72168,147.140304 209.72168,146.233398 C209.72168,145.422196 209.529136,144.764814 209.144043,144.26123 C208.75895,143.757647 208.247399,143.505859 207.609375,143.505859 C206.985023,143.505859 206.481447,143.754229 206.098633,144.250977 C205.715818,144.747724 205.524414,145.458654 205.524414,146.383789 Z M212.264648,146.240234 C212.264648,145.105463 212.533526,144.192875 213.071289,143.502441 C213.609052,142.812008 214.313147,142.466797 215.183594,142.466797 C216.049483,142.466797 216.735349,142.763018 217.241211,143.355469 L217.241211,139.5 L218.505859,139.5 L218.505859,150 L217.34375,150 L217.282227,149.207031 C216.776365,149.826826 216.07227,150.136719 215.169922,150.136719 C214.313147,150.136719 213.614749,149.785811 213.074707,149.083984 C212.534665,148.382158 212.264648,147.466151 212.264648,146.335938 L212.264648,146.240234 Z M213.529297,146.383789 C213.529297,147.222335 213.702472,147.878578 214.048828,148.352539 C214.395184,148.8265 214.873695,149.063477 215.484375,149.063477 C216.286462,149.063477 216.872068,148.703454 217.241211,147.983398 L217.241211,144.585938 C216.862954,143.888668 216.281905,143.540039 215.498047,143.540039 C214.878252,143.540039 214.395184,143.779294 214.048828,144.257812 C213.702472,144.736331 213.529297,145.444982 213.529297,146.383789 Z M224.774414,148.038086 C224.774414,147.696287 224.645672,147.430828 224.388184,147.241699 C224.130695,147.052571 223.681807,146.889649 223.041504,146.75293 C222.401201,146.61621 221.893068,146.452149 221.51709,146.260742 C221.141111,146.069335 220.863119,145.841473 220.683105,145.577148 C220.503092,145.312824 220.413086,144.998374 220.413086,144.633789 C220.413086,144.027666 220.669431,143.514976 221.182129,143.095703 C221.694827,142.67643 222.349931,142.466797 223.147461,142.466797 C223.986007,142.466797 224.666176,142.683266 225.187988,143.116211 C225.709801,143.549156 225.970703,144.102861 225.970703,144.777344 L224.699219,144.777344 C224.699219,144.430988 224.552248,144.132488 224.258301,143.881836 C223.964354,143.631184 223.594078,143.505859 223.147461,143.505859 C222.687172,143.505859 222.32715,143.606119 222.067383,143.806641 C221.807616,144.007162 221.677734,144.269204 221.677734,144.592773 C221.677734,144.898114 221.798501,145.128254 222.040039,145.283203 C222.281577,145.438152 222.717933,145.586262 223.349121,145.727539 C223.980309,145.868816 224.49186,146.037434 224.883789,146.233398 C225.275718,146.429363 225.566243,146.6652 225.755371,146.940918 C225.9445,147.216635 226.039062,147.552732 226.039062,147.949219 C226.039062,148.610029 225.774742,149.139809 225.246094,149.538574 C224.717445,149.937339 224.03158,150.136719 223.188477,150.136719 C222.596026,150.136719 222.071942,150.031902 221.616211,149.822266 C221.160479,149.612629 220.803875,149.319826 220.546387,148.943848 C220.288898,148.567869 220.160156,148.161135 220.160156,147.723633 L221.424805,147.723633 C221.447591,148.147463 221.617349,148.48356 221.934082,148.731934 C222.250815,148.980307 222.668943,149.104492 223.188477,149.104492 C223.666995,149.104492 224.050943,149.007651 224.340332,148.813965 C224.629721,148.620279 224.774414,148.361655 224.774414,148.038086 Z M235.458984,148.038086 C235.458984,147.696287 235.330242,147.430828 235.072754,147.241699 C234.815266,147.052571 234.366377,146.889649 233.726074,146.75293 C233.085772,146.61621 232.577639,146.452149 232.20166,146.260742 C231.825682,146.069335 231.54769,145.841473 231.367676,145.577148 C231.187662,145.312824 231.097656,144.998374 231.097656,144.633789 C231.097656,144.027666 231.354001,143.514976 231.866699,143.095703 C232.379397,142.67643 233.034501,142.466797 233.832031,142.466797 C234.670577,142.466797 235.350746,142.683266 235.872559,143.116211 C236.394371,143.549156 236.655273,144.102861 236.655273,144.777344 L235.383789,144.777344 C235.383789,144.430988 235.236818,144.132488 234.942871,143.881836 C234.648924,143.631184 234.278648,143.505859 233.832031,143.505859 C233.371742,143.505859 233.01172,143.606119 232.751953,143.806641 C232.492186,144.007162 232.362305,144.269204 232.362305,144.592773 C232.362305,144.898114 232.483072,145.128254 232.724609,145.283203 C232.966147,145.438152 233.402503,145.586262 234.033691,145.727539 C234.664879,145.868816 235.17643,146.037434 235.568359,146.233398 C235.960288,146.429363 236.250813,146.6652 236.439941,146.940918 C236.62907,147.216635 236.723633,147.552732 236.723633,147.949219 C236.723633,148.610029 236.459313,149.139809 235.930664,149.538574 C235.402016,149.937339 234.71615,150.136719 233.873047,150.136719 C233.280596,150.136719 232.756513,150.031902 232.300781,149.822266 C231.84505,149.612629 231.488445,149.319826 231.230957,148.943848 C230.973469,148.567869 230.844727,148.161135 230.844727,147.723633 L232.109375,147.723633 C232.132162,148.147463 232.301919,148.48356 232.618652,148.731934 C232.935386,148.980307 233.353513,149.104492 233.873047,149.104492 C234.351565,149.104492 234.735513,149.007651 235.024902,148.813965 C235.314292,148.620279 235.458984,148.361655 235.458984,148.038086 Z M239.635742,143.499023 C240.196292,142.810869 240.925451,142.466797 241.823242,142.466797 C243.386401,142.466797 244.174805,143.348624 244.188477,145.112305 L244.188477,150 L242.923828,150 L242.923828,145.105469 C242.919271,144.572263 242.797364,144.178061 242.558105,143.922852 C242.318846,143.667642 241.946292,143.540039 241.44043,143.540039 C241.030271,143.540039 240.670249,143.649413 240.360352,143.868164 C240.050454,144.086915 239.80892,144.374022 239.635742,144.729492 L239.635742,150 L238.371094,150 L238.371094,139.5 L239.635742,139.5 L239.635742,143.499023 Z M245.74707,146.233398 C245.74707,145.508785 245.889484,144.857099 246.174316,144.27832 C246.459149,143.699541 246.855629,143.252931 247.36377,142.938477 C247.87191,142.624022 248.45182,142.466797 249.103516,142.466797 C250.110682,142.466797 250.92529,142.815426 251.547363,143.512695 C252.169437,144.209964 252.480469,145.137364 252.480469,146.294922 L252.480469,146.383789 C252.480469,147.103845 252.342612,147.749834 252.066895,148.321777 C251.791177,148.89372 251.396975,149.339191 250.884277,149.658203 C250.371579,149.977215 249.782555,150.136719 249.117188,150.136719 C248.114578,150.136719 247.302249,149.788089 246.680176,149.09082 C246.058102,148.393551 245.74707,147.470709 245.74707,146.322266 L245.74707,146.233398 Z M247.018555,146.383789 C247.018555,147.204106 247.20882,147.862628 247.589355,148.359375 C247.969891,148.856122 248.479163,149.104492 249.117188,149.104492 C249.759769,149.104492 250.27018,148.852704 250.648438,148.349121 C251.026695,147.845538 251.21582,147.140304 251.21582,146.233398 C251.21582,145.422196 251.023277,144.764814 250.638184,144.26123 C250.253091,143.757647 249.74154,143.505859 249.103516,143.505859 C248.479164,143.505859 247.975588,143.754229 247.592773,144.250977 C247.209959,144.747724 247.018555,145.458654 247.018555,146.383789 Z M258.632812,149.268555 C258.140623,149.847334 257.418299,150.136719 256.46582,150.136719 C255.677405,150.136719 255.076988,149.907717 254.664551,149.449707 C254.252114,148.991697 254.04362,148.313807 254.039062,147.416016 L254.039062,142.603516 L255.303711,142.603516 L255.303711,147.381836 C255.303711,148.502935 255.759436,149.063477 256.670898,149.063477 C257.637049,149.063477 258.279621,148.703454 258.598633,147.983398 L258.598633,142.603516 L259.863281,142.603516 L259.863281,150 L258.660156,150 L258.632812,149.268555 Z M263.158203,150 L261.893555,150 L261.893555,139.5 L263.158203,139.5 L263.158203,150 Z M264.874023,146.240234 C264.874023,145.105463 265.142901,144.192875 265.680664,143.502441 C266.218427,142.812008 266.922522,142.466797 267.792969,142.466797 C268.658858,142.466797 269.344724,142.763018 269.850586,143.355469 L269.850586,139.5 L271.115234,139.5 L271.115234,150 L269.953125,150 L269.891602,149.207031 C269.38574,149.826826 268.681645,150.136719 267.779297,150.136719 C266.922522,150.136719 266.224124,149.785811 265.684082,149.083984 C265.14404,148.382158 264.874023,147.466151 264.874023,146.335938 L264.874023,146.240234 Z M266.138672,146.383789 C266.138672,147.222335 266.311847,147.878578 266.658203,148.352539 C267.004559,148.8265 267.48307,149.063477 268.09375,149.063477 C268.895837,149.063477 269.481443,148.703454 269.850586,147.983398 L269.850586,144.585938 C269.472329,143.888668 268.89128,143.540039 268.107422,143.540039 C267.487627,143.540039 267.004559,143.779294 266.658203,144.257812 C266.311847,144.736331 266.138672,145.444982 266.138672,146.383789 Z M278.149414,150 L276.836914,150 L276.836914,140.046875 L278.149414,140.046875 L278.149414,150 Z M288.382812,150 C288.309895,149.854166 288.250651,149.594403 288.205078,149.220703 C287.617185,149.831383 286.915369,150.136719 286.099609,150.136719 C285.370439,150.136719 284.772301,149.930503 284.305176,149.518066 C283.838051,149.105629 283.604492,148.582685 283.604492,147.949219 C283.604492,147.179033 283.897295,146.580894 284.48291,146.154785 C285.068525,145.728676 285.892247,145.515625 286.954102,145.515625 L288.18457,145.515625 L288.18457,144.93457 C288.18457,144.492511 288.05241,144.140464 287.788086,143.878418 C287.523762,143.616372 287.134117,143.485352 286.619141,143.485352 C286.167966,143.485352 285.789715,143.599283 285.484375,143.827148 C285.179035,144.055014 285.026367,144.330728 285.026367,144.654297 L283.754883,144.654297 C283.754883,144.285154 283.885904,143.92855 284.147949,143.584473 C284.409995,143.240395 284.76546,142.9681 285.214355,142.767578 C285.663251,142.567056 286.156573,142.466797 286.694336,142.466797 C287.546554,142.466797 288.21419,142.679848 288.697266,143.105957 C289.180341,143.532066 289.430989,144.118811 289.449219,144.866211 L289.449219,148.270508 C289.449219,148.949548 289.535806,149.489581 289.708984,149.890625 L289.708984,150 L288.382812,150 Z M286.28418,149.036133 C286.680666,149.036133 287.056639,148.933595 287.412109,148.728516 C287.76758,148.523436 288.025064,148.256838 288.18457,147.928711 L288.18457,146.411133 L287.193359,146.411133 C285.643872,146.411133 284.869141,146.864579 284.869141,147.771484 C284.869141,148.167971 285.001301,148.477863 285.265625,148.701172 C285.529949,148.92448 285.869464,149.036133 286.28418,149.036133 Z M293.769531,148.28418 L295.601562,142.603516 L296.893555,142.603516 L294.241211,150 L293.277344,150 L290.597656,142.603516 L291.889648,142.603516 L293.769531,148.28418 Z M297.672852,146.233398 C297.672852,145.508785 297.815266,144.857099 298.100098,144.27832 C298.38493,143.699541 298.78141,143.252931 299.289551,142.938477 C299.797691,142.624022 300.377601,142.466797 301.029297,142.466797 C302.036463,142.466797 302.851071,142.815426 303.473145,143.512695 C304.095218,144.209964 304.40625,145.137364 304.40625,146.294922 L304.40625,146.383789 C304.40625,147.103845 304.268393,147.749834 303.992676,148.321777 C303.716958,148.89372 303.322756,149.339191 302.810059,149.658203 C302.297361,149.977215 301.708337,150.136719 301.042969,150.136719 C300.04036,150.136719 299.22803,149.788089 298.605957,149.09082 C297.983884,148.393551 297.672852,147.470709 297.672852,146.322266 L297.672852,146.233398 Z M298.944336,146.383789 C298.944336,147.204106 299.134601,147.862628 299.515137,148.359375 C299.895672,148.856122 300.404945,149.104492 301.042969,149.104492 C301.68555,149.104492 302.195962,148.852704 302.574219,148.349121 C302.952476,147.845538 303.141602,147.140304 303.141602,146.233398 C303.141602,145.422196 302.949058,144.764814 302.563965,144.26123 C302.178872,143.757647 301.667321,143.505859 301.029297,143.505859 C300.404945,143.505859 299.901369,143.754229 299.518555,144.250977 C299.13574,144.747724 298.944336,145.458654 298.944336,146.383789 Z M307.366211,150 L306.101562,150 L306.101562,142.603516 L307.366211,142.603516 L307.366211,150 Z M305.999023,140.641602 C305.999023,140.436522 306.061686,140.263347 306.187012,140.12207 C306.312338,139.980794 306.498046,139.910156 306.744141,139.910156 C306.990236,139.910156 307.177083,139.980794 307.304688,140.12207 C307.432292,140.263347 307.496094,140.436522 307.496094,140.641602 C307.496094,140.846681 307.432292,141.017577 307.304688,141.154297 C307.177083,141.291016 306.990236,141.359375 306.744141,141.359375 C306.498046,141.359375 306.312338,141.291016 306.187012,141.154297 C306.061686,141.017577 305.999023,140.846681 305.999023,140.641602 Z M309.082031,146.240234 C309.082031,145.105463 309.350909,144.192875 309.888672,143.502441 C310.426435,142.812008 311.13053,142.466797 312.000977,142.466797 C312.866866,142.466797 313.552732,142.763018 314.058594,143.355469 L314.058594,139.5 L315.323242,139.5 L315.323242,150 L314.161133,150 L314.099609,149.207031 C313.593747,149.826826 312.889653,150.136719 311.987305,150.136719 C311.13053,150.136719 310.432132,149.785811 309.89209,149.083984 C309.352048,148.382158 309.082031,147.466151 309.082031,146.335938 L309.082031,146.240234 Z M310.34668,146.383789 C310.34668,147.222335 310.519855,147.878578 310.866211,148.352539 C311.212567,148.8265 311.691078,149.063477 312.301758,149.063477 C313.103845,149.063477 313.689451,148.703454 314.058594,147.983398 L314.058594,144.585938 C313.680337,143.888668 313.099288,143.540039 312.31543,143.540039 C311.695635,143.540039 311.212567,143.779294 310.866211,144.257812 C310.519855,144.736331 310.34668,145.444982 310.34668,146.383789 Z M155.451172,167.24707 C155.451172,166.09407 155.709796,165.175785 156.227051,164.492188 C156.744306,163.80859 157.451818,163.466797 158.349609,163.466797 C159.069665,163.466797 159.664386,163.735674 160.133789,164.273438 L160.133789,160.5 L162.116211,160.5 L162.116211,171 L160.332031,171 L160.236328,170.213867 C159.744138,170.829105 159.110681,171.136719 158.335938,171.136719 C157.46549,171.136719 156.767092,170.793786 156.240723,170.10791 C155.714353,169.422034 155.451172,168.468431 155.451172,167.24707 Z M157.426758,167.390625 C157.426758,168.083337 157.547525,168.614256 157.789062,168.983398 C158.0306,169.352541 158.381508,169.537109 158.841797,169.537109 C159.452477,169.537109 159.883137,169.279625 160.133789,168.764648 L160.133789,165.845703 C159.887694,165.330727 159.461592,165.073242 158.855469,165.073242 C157.90299,165.073242 157.426758,165.845695 157.426758,167.390625 Z M168.077148,170.248047 C167.589516,170.840498 166.915043,171.136719 166.053711,171.136719 C165.260738,171.136719 164.655764,170.908856 164.23877,170.453125 C163.821775,169.997394 163.608724,169.329757 163.599609,168.450195 L163.599609,163.603516 L165.575195,163.603516 L165.575195,168.381836 C165.575195,169.152022 165.926103,169.537109 166.62793,169.537109 C167.297855,169.537109 167.758137,169.30469 168.008789,168.839844 L168.008789,163.603516 L169.991211,163.603516 L169.991211,171 L168.131836,171 L168.077148,170.248047 Z M175.637695,165.456055 C175.368814,165.419596 175.131837,165.401367 174.926758,165.401367 C174.179358,165.401367 173.689454,165.654294 173.457031,166.160156 L173.457031,171 L171.481445,171 L171.481445,163.603516 L173.347656,163.603516 L173.402344,164.485352 C173.79883,163.806312 174.347978,163.466797 175.049805,163.466797 C175.268556,163.466797 175.473632,163.496419 175.665039,163.555664 L175.637695,165.456055 Z M178.672852,171 L176.69043,171 L176.69043,163.603516 L178.672852,163.603516 L178.672852,171 Z M176.574219,161.689453 C176.574219,161.393228 176.673339,161.149415 176.871582,160.958008 C177.069825,160.766601 177.339842,160.670898 177.681641,160.670898 C178.018882,160.670898 178.287759,160.766601 178.488281,160.958008 C178.688803,161.149415 178.789062,161.393228 178.789062,161.689453 C178.789062,161.990236 178.687664,162.236327 178.484863,162.427734 C178.282063,162.619142 178.014325,162.714844 177.681641,162.714844 C177.348957,162.714844 177.081218,162.619142 176.878418,162.427734 C176.675617,162.236327 176.574219,161.990236 176.574219,161.689453 Z M182.118164,163.603516 L182.179688,164.458008 C182.708336,163.797197 183.416988,163.466797 184.305664,163.466797 C185.089522,163.466797 185.67285,163.696938 186.055664,164.157227 C186.438478,164.617515 186.63444,165.305659 186.643555,166.22168 L186.643555,171 L184.667969,171 L184.667969,166.269531 C184.667969,165.850258 184.576824,165.546062 184.394531,165.356934 C184.212239,165.167805 183.909182,165.073242 183.485352,165.073242 C182.929359,165.073242 182.512371,165.310219 182.234375,165.78418 L182.234375,171 L180.258789,171 L180.258789,163.603516 L182.118164,163.603516 Z M187.853516,167.24707 C187.853516,166.112299 188.123532,165.198571 188.663574,164.505859 C189.203616,163.813148 189.931636,163.466797 190.847656,163.466797 C191.658858,163.466797 192.290037,163.744789 192.741211,164.300781 L192.823242,163.603516 L194.614258,163.603516 L194.614258,170.753906 C194.614258,171.401045 194.467287,171.963865 194.17334,172.442383 C193.879393,172.920901 193.465823,173.285481 192.932617,173.536133 C192.399411,173.786785 191.775069,173.912109 191.05957,173.912109 C190.51725,173.912109 189.988609,173.803875 189.473633,173.587402 C188.958656,173.37093 188.569012,173.091799 188.304688,172.75 L189.179688,171.546875 C189.671877,172.09831 190.268877,172.374023 190.970703,172.374023 C191.494794,172.374023 191.902668,172.233888 192.194336,171.953613 C192.486004,171.673338 192.631836,171.275719 192.631836,170.760742 L192.631836,170.364258 C192.176104,170.879234 191.576827,171.136719 190.833984,171.136719 C189.945308,171.136719 189.226402,170.789229 188.677246,170.094238 C188.12809,169.399248 187.853516,168.477545 187.853516,167.329102 L187.853516,167.24707 Z M189.829102,167.390625 C189.829102,168.06055 189.96354,168.585773 190.232422,168.966309 C190.501303,169.346844 190.87044,169.537109 191.339844,169.537109 C191.941409,169.537109 192.372069,169.311526 192.631836,168.860352 L192.631836,165.75 C192.367512,165.298826 191.941409,165.073242 191.353516,165.073242 C190.879555,165.073242 190.507,165.266925 190.23584,165.654297 C189.96468,166.041669 189.829102,166.620439 189.829102,167.390625 Z M206.276367,167.370117 C206.276367,168.509446 206.017743,169.422034 205.500488,170.10791 C204.983233,170.793786 204.284835,171.136719 203.405273,171.136719 C202.657874,171.136719 202.054039,170.876956 201.59375,170.357422 L201.59375,173.84375 L199.618164,173.84375 L199.618164,163.603516 L201.450195,163.603516 L201.518555,164.328125 C201.997073,163.753903 202.621415,163.466797 203.391602,163.466797 C204.303064,163.466797 205.011716,163.804033 205.517578,164.478516 C206.02344,165.152998 206.276367,166.082676 206.276367,167.267578 L206.276367,167.370117 Z M204.300781,167.226562 C204.300781,166.538408 204.178875,166.007489 203.935059,165.633789 C203.691242,165.260089 203.336916,165.073242 202.87207,165.073242 C202.252276,165.073242 201.826173,165.310219 201.59375,165.78418 L201.59375,168.8125 C201.835288,169.300133 202.265947,169.543945 202.885742,169.543945 C203.829106,169.543945 204.300781,168.771492 204.300781,167.226562 Z M211.65625,165.456055 C211.387368,165.419596 211.150392,165.401367 210.945312,165.401367 C210.197913,165.401367 209.708009,165.654294 209.475586,166.160156 L209.475586,171 L207.5,171 L207.5,163.603516 L209.366211,163.603516 L209.420898,164.485352 C209.817385,163.806312 210.366533,163.466797 211.068359,163.466797 C211.28711,163.466797 211.492187,163.496419 211.683594,163.555664 L211.65625,165.456055 Z M215.880859,171.136719 C214.796219,171.136719 213.913252,170.80404 213.231934,170.138672 C212.550615,169.473304 212.209961,168.58692 212.209961,167.479492 L212.209961,167.288086 C212.209961,166.545244 212.353514,165.881025 212.640625,165.29541 C212.927736,164.709795 213.33447,164.258628 213.86084,163.941895 C214.38721,163.625161 214.987627,163.466797 215.662109,163.466797 C216.673833,163.466797 217.470212,163.785804 218.05127,164.423828 C218.632327,165.061852 218.922852,165.966465 218.922852,167.137695 L218.922852,167.944336 L214.212891,167.944336 C214.276693,168.427411 214.469237,168.814777 214.790527,169.106445 C215.111818,169.398113 215.518552,169.543945 216.010742,169.543945 C216.771814,169.543945 217.366534,169.268232 217.794922,168.716797 L218.765625,169.803711 C218.4694,170.222984 218.068362,170.549966 217.5625,170.784668 C217.056638,171.01937 216.496097,171.136719 215.880859,171.136719 Z M215.655273,165.066406 C215.263344,165.066406 214.945476,165.198566 214.70166,165.462891 C214.457844,165.727215 214.301758,166.105466 214.233398,166.597656 L216.981445,166.597656 L216.981445,166.44043 C216.972331,166.002927 216.853842,165.664552 216.625977,165.425293 C216.398111,165.186034 216.074546,165.066406 215.655273,165.066406 Z M219.756836,167.24707 C219.756836,166.112299 220.026853,165.198571 220.566895,164.505859 C221.106936,163.813148 221.834956,163.466797 222.750977,163.466797 C223.562179,163.466797 224.193357,163.744789 224.644531,164.300781 L224.726562,163.603516 L226.517578,163.603516 L226.517578,170.753906 C226.517578,171.401045 226.370607,171.963865 226.07666,172.442383 C225.782713,172.920901 225.369143,173.285481 224.835938,173.536133 C224.302732,173.786785 223.678389,173.912109 222.962891,173.912109 C222.42057,173.912109 221.89193,173.803875 221.376953,173.587402 C220.861977,173.37093 220.472332,173.091799 220.208008,172.75 L221.083008,171.546875 C221.575198,172.09831 222.172197,172.374023 222.874023,172.374023 C223.398115,172.374023 223.805988,172.233888 224.097656,171.953613 C224.389324,171.673338 224.535156,171.275719 224.535156,170.760742 L224.535156,170.364258 C224.079425,170.879234 223.480147,171.136719 222.737305,171.136719 C221.848628,171.136719 221.129723,170.789229 220.580566,170.094238 C220.03141,169.399248 219.756836,168.477545 219.756836,167.329102 L219.756836,167.24707 Z M221.732422,167.390625 C221.732422,168.06055 221.866861,168.585773 222.135742,168.966309 C222.404624,169.346844 222.773761,169.537109 223.243164,169.537109 C223.84473,169.537109 224.275389,169.311526 224.535156,168.860352 L224.535156,165.75 C224.270832,165.298826 223.84473,165.073242 223.256836,165.073242 C222.782875,165.073242 222.41032,165.266925 222.13916,165.654297 C221.868,166.041669 221.732422,166.620439 221.732422,167.390625 Z M229.853516,163.603516 L229.915039,164.458008 C230.443688,163.797197 231.152339,163.466797 232.041016,163.466797 C232.824874,163.466797 233.408201,163.696938 233.791016,164.157227 C234.17383,164.617515 234.369792,165.305659 234.378906,166.22168 L234.378906,171 L232.40332,171 L232.40332,166.269531 C232.40332,165.850258 232.312175,165.546062 232.129883,165.356934 C231.94759,165.167805 231.644533,165.073242 231.220703,165.073242 C230.664711,165.073242 230.247723,165.310219 229.969727,165.78418 L229.969727,171 L227.994141,171 L227.994141,163.603516 L229.853516,163.603516 Z M240.162109,171 C240.070963,170.822265 240.004883,170.601238 239.963867,170.336914 C239.485349,170.87012 238.863285,171.136719 238.097656,171.136719 C237.373043,171.136719 236.772626,170.927085 236.296387,170.507812 C235.820147,170.08854 235.582031,169.559899 235.582031,168.921875 C235.582031,168.138017 235.872556,167.53646 236.453613,167.117188 C237.034671,166.697915 237.874343,166.486003 238.972656,166.481445 L239.881836,166.481445 L239.881836,166.057617 C239.881836,165.715819 239.794109,165.442384 239.618652,165.237305 C239.443196,165.032226 239.166343,164.929688 238.788086,164.929688 C238.455402,164.929688 238.1945,165.009439 238.005371,165.168945 C237.816243,165.328451 237.72168,165.547199 237.72168,165.825195 L235.746094,165.825195 C235.746094,165.396808 235.878254,165.000327 236.142578,164.635742 C236.406902,164.271157 236.780597,163.98519 237.263672,163.777832 C237.746747,163.570474 238.289059,163.466797 238.890625,163.466797 C239.802088,163.466797 240.525551,163.695798 241.061035,164.153809 C241.59652,164.611819 241.864258,165.25553 241.864258,166.084961 L241.864258,169.291016 C241.868815,169.992842 241.966796,170.523761 242.158203,170.883789 L242.158203,171 L240.162109,171 Z M238.52832,169.625977 C238.819988,169.625977 239.088866,169.561036 239.334961,169.431152 C239.581056,169.301269 239.763346,169.126954 239.881836,168.908203 L239.881836,167.636719 L239.143555,167.636719 C238.154617,167.636719 237.628256,167.978512 237.564453,168.662109 L237.557617,168.77832 C237.557617,169.024415 237.644205,169.227213 237.817383,169.386719 C237.990561,169.546225 238.227538,169.625977 238.52832,169.625977 Z M245.200195,163.603516 L245.261719,164.458008 C245.790367,163.797197 246.499019,163.466797 247.387695,163.466797 C248.171553,163.466797 248.754881,163.696938 249.137695,164.157227 C249.52051,164.617515 249.716471,165.305659 249.725586,166.22168 L249.725586,171 L247.75,171 L247.75,166.269531 C247.75,165.850258 247.658855,165.546062 247.476562,165.356934 C247.29427,165.167805 246.991213,165.073242 246.567383,165.073242 C246.01139,165.073242 245.594402,165.310219 245.316406,165.78418 L245.316406,171 L243.34082,171 L243.34082,163.603516 L245.200195,163.603516 Z M254.298828,169.543945 C254.663413,169.543945 254.959634,169.443686 255.1875,169.243164 C255.415366,169.042642 255.533854,168.776043 255.542969,168.443359 L257.395508,168.443359 C257.39095,168.944664 257.254233,169.403807 256.985352,169.820801 C256.71647,170.237795 256.348472,170.56136 255.881348,170.791504 C255.414223,171.021648 254.898115,171.136719 254.333008,171.136719 C253.275711,171.136719 252.441735,170.800622 251.831055,170.128418 C251.220375,169.456214 250.915039,168.527675 250.915039,167.342773 L250.915039,167.212891 C250.915039,166.073562 251.218096,165.164391 251.824219,164.485352 C252.430342,163.806312 253.262039,163.466797 254.319336,163.466797 C255.244471,163.466797 255.986163,163.729978 256.544434,164.256348 C257.102705,164.782717 257.386393,165.483394 257.395508,166.358398 L255.542969,166.358398 C255.533854,165.975584 255.415366,165.664552 255.1875,165.425293 C254.959634,165.186034 254.658856,165.066406 254.285156,165.066406 C253.824867,165.066406 253.477377,165.233885 253.242676,165.568848 C253.007974,165.90381 252.890625,166.447262 252.890625,167.199219 L252.890625,167.404297 C252.890625,168.165368 253.006835,168.712238 253.239258,169.044922 C253.471681,169.377606 253.824867,169.543945 254.298828,169.543945 Z M261.285156,168.204102 L262.652344,163.603516 L264.771484,163.603516 L261.797852,172.148438 L261.633789,172.538086 C261.19173,173.504237 260.46257,173.987305 259.446289,173.987305 C259.159178,173.987305 258.867515,173.944011 258.571289,173.857422 L258.571289,172.360352 L258.87207,172.367188 C259.24577,172.367188 259.524901,172.310222 259.709473,172.196289 C259.894044,172.082356 260.038736,171.89323 260.143555,171.628906 L260.375977,171.020508 L257.785156,163.603516 L259.911133,163.603516 L261.285156,168.204102 Z M267.164062,167.944336 C267.164062,167.306312 267.241536,166.798179 267.396484,166.419922 C267.551433,166.041665 267.835122,165.66911 268.247559,165.302246 C268.659996,164.935382 268.93457,164.636883 269.071289,164.406738 C269.208008,164.176594 269.276367,163.933921 269.276367,163.678711 C269.276367,162.908525 268.920902,162.523438 268.209961,162.523438 C267.87272,162.523438 267.602703,162.627115 267.399902,162.834473 C267.197102,163.04183 267.091146,163.327798 267.082031,163.692383 L265.099609,163.692383 C265.108724,162.821936 265.390134,162.140627 265.943848,161.648438 C266.497561,161.156248 267.252925,160.910156 268.209961,160.910156 C269.176112,160.910156 269.925779,161.143715 270.458984,161.61084 C270.99219,162.077965 271.258789,162.737626 271.258789,163.589844 C271.258789,163.977215 271.172201,164.342934 270.999023,164.687012 C270.825845,165.031089 270.522789,165.412758 270.089844,165.832031 L269.536133,166.358398 C269.189777,166.691082 268.991537,167.080727 268.941406,167.527344 L268.914062,167.944336 L267.164062,167.944336 Z M266.96582,170.042969 C266.96582,169.737629 267.069498,169.485841 267.276855,169.287598 C267.484213,169.089354 267.749673,168.990234 268.073242,168.990234 C268.396812,168.990234 268.662271,169.089354 268.869629,169.287598 C269.076987,169.485841 269.180664,169.737629 269.180664,170.042969 C269.180664,170.343752 269.079265,170.592121 268.876465,170.788086 C268.673664,170.98405 268.405926,171.082031 268.073242,171.082031 C267.740558,171.082031 267.47282,170.98405 267.27002,170.788086 C267.067219,170.592121 266.96582,170.343752 266.96582,170.042969 Z" id="What-foods-should-I" fill="#FEFEFE"></path>
                <g id="doctor" transform="translate(0.000000, 229.000000)">
                    <ellipse id="Oval" stroke="#FFFFFF" stroke-width="5" fill="#ECF6F6" fill-rule="nonzero" cx="107.535246" cy="120.933482" rx="86.3877049" ry="86.4415179"></ellipse>
                    <g id="Group">
                        <polygon id="Shape" fill="#FFFFFF" fill-rule="nonzero" points="0.21147541 173.30625 202.487705 173.30625 257.471311 236.682589 37.5368852 236.682589"></polygon>
                        <path d="M144.331967,205.470536 L117.368852,225.044196 C117.263115,225.15 117.051639,225.15 116.945902,225.044196 L76.7655738,201.238393 L105.103279,183.569196 C105.209016,183.463393 105.314754,183.463393 105.52623,183.569196 L144.331967,204.835714 C144.543443,204.941518 144.64918,205.258929 144.331967,205.470536 Z" id="Shape" fill="#E0F0F7" fill-rule="nonzero"></path>
                        <path d="M202.487705,198.699107 L172.352459,214.252232 C172.352459,214.252232 172.352459,214.252232 172.246721,214.252232 L131.32623,193.091518 C131.220492,193.091518 131.220492,192.985714 131.32623,192.985714 L166.113934,181.770536 L202.487705,198.699107 C202.487705,198.593304 202.487705,198.699107 202.487705,198.699107 Z" id="Shape" fill="#D4ECF5" fill-rule="nonzero"></path>
                        <path d="M201.536066,197.958482 L172.246721,212.982589 C172.140984,213.088393 171.929508,213.088393 171.82377,212.982589 L131.854918,192.350893 C131.537705,192.139286 131.537705,191.610268 131.960656,191.504464 L165.902459,180.606696 L201.536066,197.217857 C201.853279,197.323661 201.853279,197.852679 201.536066,197.958482 Z" id="Shape" fill="#E0F0F7" fill-rule="nonzero"></path>
                        <path d="M57.2040984,157.647321 C57.2040984,157.647321 59.0016393,87.4995536 79.3032787,74.4857143 C104.363115,58.4035714 145.812295,75.4379464 160.404098,90.35625 C186.521311,117.230357 184.618033,159.657589 182.609016,175.104911 L62.2795082,175.210714 L57.2040984,157.647321 Z" id="Shape" fill="#E3E3E4" fill-rule="nonzero"></path>
                        <path d="M100.45082,68.4549107 C72.3245902,66.3388393 43.352459,90.8852679 29.5008197,118.182589 C15.6491803,145.479911 21.2532787,189.070982 49.802459,199.545536 C65.4516393,205.258929 83.5327869,204.518304 83.5327869,204.518304 C83.5327869,204.518304 82.4754098,198.4875 88.2909836,189.705804 C88.2909836,189.705804 53.5032787,182.19375 62.4909836,157.435714" id="Shape" fill="#E3E3E4" fill-rule="nonzero"></path>
                        <polygon id="Shape" fill="#37C0CD" fill-rule="nonzero" points="90.9344262 73.8508929 101.190984 66.65625 120.752459 71.6290179 127.942623 73.5334821 112.822131 135.851786 108.698361 155.425446 106.90082 164.207143"></polygon>
                        <path d="M98.9704918,65.915625 C98.9704918,65.915625 98.3360656,67.396875 97.0672131,70.8883929 L93.154918,72.4754464 C93.154918,72.4754464 93.6836066,75.1205357 98.2303279,77.2366071 C102.142623,79.0352679 104.997541,79.246875 109.967213,79.1410714 C113.35082,79.0352679 117.263115,77.025 118.003279,76.1785714 C118.531967,75.4379464 116.311475,72.0522321 116.205738,70.5709821 C116.1,68.6665179 117.791803,66.1272321 119.272131,63.5879464 C120.858197,61.0486607 98.9704918,65.915625 98.9704918,65.915625 Z" id="Shape" fill="#0880C4" fill-rule="nonzero"></path>
                        <path d="M93.154918,166.746429 L111.341803,197.00625 L116.840164,201.026786 L115.994262,195.207589 L97.1729508,164.312946 C96.8557377,163.678125 96.0098361,163.572321 95.3754098,163.889732 L93.5778689,165.053571 C93.0491803,165.370982 92.8377049,166.111607 93.154918,166.746429 Z" id="Shape" fill="#FFCE43" fill-rule="nonzero"></path>
                        <path d="M87.8680328,189.705804 L96.9614754,192.5625 C97.2786885,192.668304 98.0188525,191.927679 98.1245902,191.504464 C98.7590164,189.6 100.556557,184.838839 105.420492,188.436161 C105.420492,188.436161 107.112295,184.627232 110.284426,187.801339 C113.77377,191.187054 117.47459,193.091518 115.042623,195.525 C113.562295,197.00625 110.813115,194.572768 110.813115,194.572768 C110.813115,194.572768 115.782787,197.323661 115.148361,198.804911 C114.513934,200.286161 113.139344,200.497768 112.293443,200.074554 C110.601639,199.228125 109.65,198.699107 109.65,198.699107 C109.65,198.699107 110.918852,200.709375 109.967213,201.45 C108.909836,202.190625 108.169672,201.767411 106.90082,200.920982 C105.631967,200.074554 105.314754,199.757143 103.728689,199.96875 C102.671311,200.074554 102.248361,202.084821 98.6532787,202.190625 C97.0672131,202.296429 95.5868852,200.709375 94.3180328,201.026786 C92.097541,201.555804 90.7229508,202.508036 88.8196721,203.248661 C86.0704918,204.306696 83.0040984,204.518304 83.0040984,204.518304 C83.0040984,204.518304 82.4754098,192.879911 87.8680328,189.705804 Z" id="Shape" fill="#0880C4" fill-rule="nonzero"></path>
                        <path d="M105.314754,79.1410714 L108.804098,84.6428571 C108.909836,84.7486607 108.909836,84.8544643 108.804098,84.9602679 C108.804098,84.9602679 102.882787,104.428125 102.459836,107.284821 C101.719672,111.516964 101.613934,121.885714 102.459836,135.322768 C103.411475,149.077232 107.006557,163.149107 107.006557,163.149107 L108.592623,155.002232 C108.592623,155.002232 115.359836,125.800446 115.782787,123.578571 C116.522951,120.404464 117.686066,110.035714 117.580328,106.544196 C117.47459,101.571429 111.447541,84.3254464 111.447541,84.3254464 C111.447541,84.2196429 111.447541,84.2196429 111.447541,84.1138393 C111.447541,84.1138393 112.187705,82.5267857 112.39918,81.8919643 C112.716393,81.0455357 113.77377,78.2946429 113.456557,78.4004464 C112.504918,78.7178571 111.02459,79.0352679 109.861475,79.0352679 C108.381148,79.1410714 106.477869,79.1410714 105.314754,79.1410714 Z" id="Shape" fill="#4FDBD4" fill-rule="nonzero"></path>
                        <path d="M68.7295082,154.684821 C66.6147541,154.684821 63.0196721,154.367411 59.9532787,152.357143 C56.1467213,150.029464 58.2614754,132.360268 59.7418033,122.097321 L62.9139344,122.520536 C61.1163934,134.264732 60.2704918,147.913393 61.7508197,149.60625 C65.3459016,151.828125 70.1040984,151.299107 70.2098361,151.299107 L70.6327869,154.473214 C70.4213115,154.579018 69.6811475,154.684821 68.7295082,154.684821 Z" id="Shape" fill="#FFFFFF" fill-rule="nonzero"></path>
                        <path d="M74.4393443,152.674554 C74.545082,154.261607 73.3819672,155.53125 71.9016393,155.742857 C70.4213115,155.954464 69.152459,154.790625 69.152459,153.203571 C69.0467213,151.616518 70.2098361,150.346875 71.6901639,150.135268 C73.1704918,150.029464 74.4393443,151.193304 74.4393443,152.674554 Z" id="Shape" fill="#676868" fill-rule="nonzero"></path>
                        <g id="Clipped" transform="translate(80.360656, 13.754464)">
                            <mask id="mask-2" fill="white">
                                <use xlink:href="#path-1"></use>
                            </mask>
                            <g id="SVGID_35_"></g>
                            <path d="M45.3614754,10.36875 C45.3614754,10.36875 46.207377,27.9321429 46.3131148,29.5191964 C46.5245902,31.10625 46.7360656,34.7035714 46.1016393,36.6080357 C45.4672131,38.5125 44.8327869,39.0415179 43.7754098,39.3589286 C42.7180328,39.6763393 41.7663934,39.5705357 41.7663934,39.5705357 C41.7663934,39.5705357 40.6032787,46.5535714 39.3344262,49.5160714 C38.0655738,52.4785714 36.2680328,56.2875 35.4221311,57.5571429 C34.5762295,58.8267857 33.6245902,60.5196429 33.6245902,60.5196429 L48.6393443,63.2705357 L61.5393443,37.9834821 L63.6540984,19.996875 L58.8959016,10.4745536 L55.9352459,4.02053571 L45.5729508,6.77142857 L45.3614754,10.36875 Z" id="Shape" fill="#0C80C3" fill-rule="nonzero" mask="url(#mask-2)"></path>
                        </g>
                        <path d="M94.1065574,52.584375 C94.1065574,52.584375 82.3696721,56.1816964 81.3122951,36.5022321 C80.3606557,20.4200893 84.2729508,10.6861607 87.7622951,9.83973214 C87.7622951,9.83973214 87.2336066,5.29017857 90.1942623,5.925 C93.2606557,6.55982143 96.75,4.86696429 101.508197,3.80892857 C111.02459,1.69285714 123.607377,3.66373598e-15 129.317213,0.317410714 C135.132787,0.634821429 140.736885,1.58705357 143.803279,5.925 C146.235246,9.41651786 147.292623,15.4473214 144.543443,19.996875 C142.428689,23.3825893 132.277869,28.14375 132.277869,28.14375 L105.631967,22.6419643 L102.988525,46.0245536 L96.9614754,48.6696429 L91.7803279,39.4647321 L94.1065574,52.584375 Z" id="Shape" fill="#073447" fill-rule="nonzero"></path>
                        <path d="M90.5114754,33.5397321 C89.1368852,32.9049107 85.9647541,32.3758929 84.8016393,35.8674107 C83.6385246,39.3589286 84.5901639,40.734375 85.9647541,41.8982143 C87.3393443,43.0620536 89.0311475,43.2736607 89.0311475,43.2736607 C89.0311475,43.2736607 89.9827869,56.0758929 93.154918,62.4241071 C96.3270492,68.7723214 104.680328,74.9089286 113.139344,74.3799107 C122.761475,73.8508929 129.740164,68.878125 133.758197,62.0008929 C137.77623,55.1236607 140.631148,44.0142857 141.159836,37.03125 C141.582787,31.6352679 142.428689,23.7 140.102459,21.3723214 C137.881967,19.0446429 135.344262,22.4303571 133.229508,23.1709821 C131.114754,23.9116071 127.096721,24.5464286 123.078689,21.6897321 C119.060656,18.8330357 114.936885,16.29375 111.764754,15.2357143 C108.592623,14.1776786 106.160656,14.3892857 103.411475,17.2459821 C101.402459,19.3620536 100.662295,22.3245536 100.556557,24.3348214 C100.45082,26.2392857 100.45082,31.2120536 99.8163934,35.7616071 C99.1819672,40.3111607 98.2303279,44.6491071 98.2303279,44.6491071 C98.2303279,44.6491071 96.2213115,43.5910714 96.0098361,41.0517857 C95.7983607,38.5125 95.3754098,34.2803571 95.0581967,32.5875 C94.7409836,30.8946429 94.7409836,30.8946429 94.7409836,30.8946429 L92.7319672,34.809375 C92.8377049,35.2325893 91.1459016,33.8571429 90.5114754,33.5397321 Z" id="Shape" fill="#52A5D3" fill-rule="nonzero"></path>
                        <path d="M105.103279,35.0209821 C107.218033,32.9049107 110.601639,32.3758929 113.456557,33.4339286 C116.311475,34.4919643 118.42623,36.9254464 119.377869,39.7821429 C116.840164,40.6285714 114.090984,41.475 111.341803,41.2633929 C108.592623,41.0517857 105.843443,39.6763393 104.680328,37.1370536 C104.468852,36.8196429 104.363115,36.3964286 104.468852,36.0790179 C104.57459,35.6558036 104.891803,35.3383929 105.103279,35.0209821 Z" id="Shape" fill="#C1E8FA" fill-rule="nonzero"></path>
                        <g id="Clipped" transform="translate(116.311475, 19.044643)">
                            <mask id="mask-4" fill="white">
                                <use xlink:href="#path-3"></use>
                            </mask>
                            <g id="SVGID_37_"></g>
                            <path d="M-25.8,14.4950893 C-27.1745902,13.8602679 -30.3467213,13.33125 -31.5098361,16.8227679 C-32.6729508,20.3142857 -31.7213115,21.6897321 -30.3467213,22.8535714 C-28.9721311,24.0174107 -27.2803279,24.2290179 -27.2803279,24.2290179 C-27.2803279,24.2290179 -26.3286885,37.03125 -23.1565574,43.3794643 C-19.9844262,49.7276786 -11.6311475,55.8642857 -3.17213115,55.3352679 C6.45,54.80625 13.4286885,49.8334821 17.4467213,42.95625 C21.4647541,36.0790179 24.3196721,24.9696429 24.8483607,17.9866071 C25.2713115,12.590625 26.1172131,4.65535714 23.7909836,2.32767857 C21.5704918,-1.15463195e-14 19.0327869,3.38571429 16.9180328,4.12633929 C14.8032787,4.86696429 10.7852459,5.50178571 6.76721311,2.64508929 C2.74918033,-0.211607143 -1.37459016,-2.75089286 -4.54672131,-3.80892857 C-7.71885246,-4.86696429 -10.1508197,-4.65535714 -12.9,-1.79866071 C-14.9090164,0.317410714 -15.6491803,3.27991071 -15.754918,5.29017857 C-15.8606557,7.19464286 -15.8606557,12.1674107 -16.495082,16.7169643 C-17.1295082,21.2665179 -18.0811475,25.6044643 -18.0811475,25.6044643 C-18.0811475,25.6044643 -20.0901639,24.5464286 -20.3016393,22.0071429 C-20.5131148,19.4678571 -20.9360656,15.2357143 -21.2532787,13.5428571 C-21.5704918,11.85 -21.5704918,11.85 -21.5704918,11.85 L-23.5795082,15.7647321 C-23.4737705,16.1879464 -25.1655738,14.8125 -25.8,14.4950893 Z" id="Shape" fill="#0880C4" fill-rule="nonzero" mask="url(#mask-4)"></path>
                        </g>
                        <g transform="translate(159.663934, 168.227679)" fill="#0880C4" fill-rule="nonzero" id="Shape">
                            <path d="M14.697541,2.32767857 C16.8122951,0.317410714 20.407377,0.317410714 20.7245902,3.59732143 C20.8303279,4.76116071 19.0327869,8.57008929 17.3409836,11.4267857 C15.754918,14.071875 14.3803279,16.9285714 12.1598361,17.6691964 C8.77622951,18.8330357 8.88196721,15.1299107 9.72786885,12.4848214 C9.83360656,12.2732143 8.88196721,13.9660714 8.77622951,14.071875 C7.29590164,16.29375 5.18114754,17.1401786 3.70081967,16.29375 C2.00901639,15.3415179 5.18114754,6.665625 6.87295082,3.59732143 C9.93934426,-1.90446429 12.5827869,1.16383929 12.9,2.75089286 C12.9,2.85669643 12.6885246,5.184375 12.7942623,5.07857143 C13.1114754,4.76116071 13.3229508,4.02053571 14.0631148,2.9625 L14.697541,2.32767857 Z"></path>
                            <path d="M15.0147541,14.7066964 C15.0147541,14.7066964 14.697541,17.5633929 17.6581967,16.9285714 C19.9844262,16.5053571 22.945082,13.4370536 23.8967213,11.7441964 C24.1081967,11.3209821 24.4254098,10.1571429 24.2139344,9.73392857 C23.7909836,8.8875 22.8393443,8.04107143 20.9360656,8.46428571 C18.0811475,8.99330357 15.1204918,14.3892857 15.1204918,14.3892857"></path>
                            <path d="M5.49836066,8.57008929 C5.49836066,8.57008929 0.63442623,6.55982143 0.105737705,8.99330357 C-0.21147541,10.6861607 3.91229508,12.6964286 3.91229508,12.6964286 L5.49836066,8.57008929 Z"></path>
                        </g>
                        <path d="M85.647541,74.5915179 C83.5327869,77.5540179 82.3696721,83.7964286 82.5811475,88.134375 C82.792623,93.0013393 84.8016393,98.7147321 87.0221311,104.322321 C90.8286885,113.950446 102.882787,142.411607 102.882787,142.411607 L93.0491803,68.4549107 C92.9434426,68.5607143 87.7622951,71.5232143 85.647541,74.5915179 Z" id="Shape" fill="#EFEFEF" fill-rule="nonzero"></path>
                        <path d="M77.1885246,101.042411 C77.1885246,100.725 76.7655738,91.5200893 78.2459016,84.1138393 C79.4090164,78.4004464 82.5811475,73.4276786 86.8106557,70.7825893 C89.9827869,68.7723214 94.0008197,68.4549107 97.9131148,68.4549107 C97.9131148,68.4549107 97.807377,70.359375 97.4901639,70.7825893 C97.0672131,71.3116071 92.8377049,70.7825893 90.9344262,71.5232143 C86.9163934,72.8986607 83.7442623,76.3901786 81.9467213,80.6223214 C78.2459016,89.7214286 79.8319672,101.465625 79.8319672,101.677232 L77.1885246,101.042411 Z" id="Shape" fill="#676868" fill-rule="nonzero"></path>
                        <path d="M86.1762295,155.108036 C84.5901639,155.108036 83.5327869,154.896429 83.4270492,154.896429 L83.9557377,151.722321 C83.9557377,151.722321 88.8196721,152.56875 92.5204918,150.346875 C94.0008197,148.759821 93.7893443,135.005357 92.5204918,123.261161 L95.692623,122.94375 C96.75,133.3125 97.9131148,150.981696 94.1065574,153.097768 C91.357377,154.790625 88.2909836,155.108036 86.1762295,155.108036 Z" id="Shape" fill="#FFFFFF" fill-rule="nonzero"></path>
                        <path d="M92.6262295,123.366964 C92.6262295,123.366964 92.5204918,118.605804 90.7229508,113.844643 C88.3967213,107.708036 84.2729508,104.322321 78.6688525,103.6875 C78.2459016,103.6875 77.7172131,103.581696 77.2942623,103.6875 C71.5844262,104.004911 67.5663934,107.179018 65.0286885,113.209821 C63.1254098,117.970982 62.9139344,122.626339 62.9139344,122.732143 L59.7418033,122.626339 C59.9532787,115.325893 63.7598361,101.254018 77.0827869,100.513393 C77.7172131,100.513393 78.3516393,100.513393 78.9860656,100.619196 C95.4811475,102.312054 95.7983607,123.261161 95.7983607,123.472768 L92.6262295,123.366964 Z" id="Shape" fill="#676868" fill-rule="nonzero"></path>
                        <path d="M78.7745902,152.886161 C78.6688525,154.473214 79.8319672,155.848661 81.4180328,155.954464 C83.0040984,156.060268 84.3786885,155.002232 84.4844262,153.415179 C84.5901639,151.828125 83.4270492,150.452679 81.8409836,150.346875 C80.254918,150.135268 78.8803279,151.299107 78.7745902,152.886161 Z" id="Shape" fill="#676868" fill-rule="nonzero"></path>
                    </g>
                    <ellipse id="Oval" fill="#676868" fill-rule="nonzero" cx="146.02377" cy="121.145089" rx="8.03606557" ry="8.04107143"></ellipse>
                    <ellipse id="Oval" fill="#BFC7CB" fill-rule="nonzero" cx="146.02377" cy="121.145089" rx="3.91229508" ry="3.91473214"></ellipse>
                    <path d="M110.601639,149.60625 C110.495902,149.817857 110.178689,149.712054 110.178689,149.500446 L120.540984,105.380357 L128.471311,72.58125 C128.471311,72.58125 134.709836,75.4379464 136.930328,78.9294643 C139.57377,82.95 136.507377,96.3870536 134.07541,102.417857 C131.74918,108.13125 114.513934,141.882589 110.601639,149.60625 Z" id="Shape" fill="#EFEFEF" fill-rule="nonzero"></path>
                    <path d="M144.754918,114.05625 C144.754918,113.950446 145.177869,104.428125 142.851639,94.2709821 C138.622131,76.1785714 122.655738,72.3696429 122.444262,72.2638393 L125.404918,70.7825893 C126.145082,70.9941964 140.313934,74.4857143 145.283607,92.578125 C148.032787,102.946875 147.292623,113.633036 147.186885,114.05625 L144.754918,114.05625 Z" id="Shape" fill="#676868" fill-rule="nonzero"></path>
                </g>
            </g>
        </g>
    </g>
</svg>