<?xml version="1.0" encoding="UTF-8"?>
<svg width="563px" height="476px" viewBox="0 0 563 476" version="1.1" xmlns="http://www.w3.org/2000/svg" xmlns:xlink="http://www.w3.org/1999/xlink">
    <!-- Generator: Sketch 50.2 (55047) - http://www.bohemiancoding.com/sketch -->
    <title>stressed copy</title>
    <desc>Created with Sketch.</desc>
    <defs>
        <path d="M18.9,1.2 C19,-0.2 18.3,34.1 22.1,34.7 C26,35.4 26.7,32.6 28,34.7 C28.8,36.1 34.8,52.6 37.6,54.1 C40.4,55.6 15.1,54.8 15.1,54.8 L3.6,32.4 L2,19.3 L0.8,3.4 L17.7,0.7 L18.9,1.2 Z" id="path-1"></path>
        <path d="M6.3,18.7 C5,18.1 2,17.6 0.9,20.9 C-0.2,24.2 0.7,25.5 2,26.6 C3.3,27.7 4.9,27.9 4.9,27.9 C4.9,27.9 5.8,40 8.8,46 C11.8,52 19.7,57.8 27.7,57.3 C36.8,56.8 43.4,52.1 47.2,45.6 C51,39.1 53.7,28.6 54.2,22 C54.6,16.9 55.4,9.4 53.2,7.2 C51,5 48.7,8.2 46.7,8.9 C44.8,9.6 40.9,10.2 37.1,7.5 C33.3,4.8 29.4,2.4 26.4,1.4 C23.4,0.4 21.1,0.6 18.5,3.3 C16.6,5.3 15.9,8.1 15.8,10 C15.7,11.8 15.7,16.5 15.1,20.8 C14.5,25.1 13.6,29.2 13.6,29.2 C13.6,29.2 11.7,28.2 11.5,25.8 C11.3,23.4 10.9,19.4 10.6,17.8 C10.3,16.2 10.3,16.2 10.3,16.2 L8.4,19.9 C8.5,20.3 6.9,19 6.3,18.7 Z" id="path-3"></path>
        <path d="M13,1.2 C13,1.2 16.5,27.8 14.5,30.8 C12.6,33.6 9,32.8 9,32.8 C9,32.8 7.8,48.5 1,52.1 C-3.5,54.5 17.9,49.4 17.9,49.4 L27.3,34.5 L29.8,24.3 L30.9,14 L30.2,0 L13,1.2 Z" id="path-5"></path>
    </defs>
    <g id="stressed-copy" stroke="none" stroke-width="1" fill="none" fill-rule="evenodd">
        <g id="Group-3" transform="translate(0.000000, 26.000000)">
            <g id="stressed-man" transform="translate(380.000000, 36.000000)">
                <circle id="Oval" fill="#EAF7F9" fill-rule="nonzero" cx="82" cy="81.9" r="81.7"></circle>
                <g id="Group" transform="translate(1.000000, 26.000000)">
                    <path d="M31.5,127.5 L158.7,132.2 C158.7,132.2 160.9,95.4 139.9,71.7 C131.2,62 116.5,55.2 100,53.1 C74.1,49.8 53.6,58.2 41.7,67.9 C29.1,78.1 24.1,90.4 24.1,90.4 L31.5,127.5 Z" id="Shape" fill="#FFCE44" fill-rule="nonzero"></path>
                    <path d="M76.1,78.2 C76.1,78.2 77.3,81.5 79.3,81.8 C81.3,82.1 95.7,80.9 98.4,75.3 C99.2,73.7 98.5,69.5 95.6,68.8 C92.7,68.1 76.1,78.2 76.1,78.2 Z" id="Shape" fill="#0880C4" fill-rule="nonzero"></path>
                    <path d="M123.5,120 C123.4,119.9 123.3,119.8 123.3,119.8 C123.4,119.8 123.4,119.9 123.5,120 Z" id="Shape" fill="#52A5D3" fill-rule="nonzero"></path>
                    <path d="M53.2,68.3 C53.8,67.2 65.4,58.2 63.9,58.3 C45.6,60.2 28.9,71.2 16.4,88.6 C6.7,102 -1.8,121.2 1.4,130.8 C5.6,143.4 17,153.2 37.8,146.7 C38.6,146.4 44.3,144.2 44.8,144 C45.5,143.7 42.7,143.9 42.3,143.3 C39.3,139.5 30.8,126.7 34,114.8 C37,103.5 48.3,77.8 53.2,68.3 Z" id="Shape" fill="#FFCE44" fill-rule="nonzero"></path>
                    <path d="M181.9,100.7 C182,100.9 182.3,100.9 182.4,100.7" id="Shape" stroke="#97999A"></path>
                    <path d="M128,71.2 C125.3,83.7 126.6,100 128,106.6 C128,106.6 129,113.4 131.2,119.6 C133.2,125.2 107.8,119.1 104.9,118.6 C104.6,118.6 104.5,118.2 104.7,118 C106.3,116.5 111.2,111.9 114.6,106.4 C117.7,101.4 120.2,96 121.7,89.7 C122.6,85.9 124.4,79.5 125.2,77.3 C126.1,74.9 128.1,70.8 128,71.2 Z" id="Shape" fill="#F2BA26" fill-rule="nonzero"></path>
                    <path d="M154.7,140.7 C156.9,139.4 160.7,136.5 158.6,132 C156.5,127.5 150.9,124.6 140.2,121 C132.3,118.4 120.6,116.8 114.6,116.2 C108.4,115.6 98.5,115.3 89,116.8 C80.3,118.2 75,119.6 70.1,121.2 C64.4,123 59,125.2 56,126.4 C53,127.6 49.5,128.8 49.5,128.8 L41.8,132.4 L36.1,136 C36.1,136 36.7,137.5 38.5,136.9 C40.3,136.3 43.3,134.8 43.3,134.8 C43.3,134.8 38.6,139 38.8,139.6 C39.1,140.5 41.2,140.8 43.3,139.3 C45.4,137.8 47.2,137.2 47.2,137.2 C47.2,137.2 42.6,140.6 43,141.6 C43.2,142 45.7,142.3 46.9,140.8 C48.1,139.3 50.5,139 50.5,139 C50.5,139 53.5,139.1 55,138.8 C56.5,138.5 58,136.3 58,136.3 C58,136.3 69.9,136.6 75.8,137.8 C83,139.2 102.8,144.1 110.9,145.3 C118.9,146.5 131,147 138.1,145.8 C145.1,144.6 151,143.1 154.7,140.7 Z" id="Shape" fill="#52A5D3" fill-rule="nonzero"></path>
                    <path d="M70.5,121.2 C70.5,121.2 68.3,126 65.5,129.4 C62.8,132.8 60.3,135.9 60.3,135.9 L57.9,136.1 C57.9,136.1 56.3,138.3 54.9,138.6 C53.5,138.9 50.4,138.8 50.4,138.8 L59.2,127.4 L63.4,122.9 L70.5,121.2 Z" id="Shape" fill="#0880C4" fill-rule="nonzero"></path>
                    <path d="M28,125.1 C28,132.7 32.3,137.6 36,140.6 C36.9,141.3 43.8,144.6 44.8,144 C59.9,134.4 70.8,117.5 72.9,108.6 C72.9,108.6 74,104.7 74,104.7 C75.1,97.1 75.8,94.2 76,90 C76.1,88 75.4,85.1 77.1,82.1 C79.3,78.3 79,74.2 72.8,75.4 C69.2,76.1 63.3,70.8 58.9,66.2 C57.1,64.3 53.7,65.8 54.3,68.2 C55.3,72 59.3,76.1 63,79.6 C70.3,86.3 64.4,91.8 61.4,95.4 C57.7,99.9 52.8,104.3 45.6,110.2 C41.8,113.3 38.6,116.2 32.6,120.6 C31.8,121.2 28.9,123 28.5,123.2 C28.1,123.3 27.9,123.6 27.9,123.9 L28,125.1 Z" id="Shape" fill="#52A5D3" fill-rule="nonzero"></path>
                    <path d="M44.6,39.1 C44.6,39.1 51.3,89.4 84.5,76.6 C118.7,63.4 91.1,11.1 78.5,6 C65.9,0.9 39.5,11.7 44.6,39.1 Z" id="Shape" fill="#52A5D3" fill-rule="nonzero"></path>
                    <g id="Clipped" transform="translate(42.000000, 24.000000)">
                        <mask id="mask-2" fill="white">
                            <use xlink:href="#path-1"></use>
                        </mask>
                        <g id="SVGID_41_"></g>
                        <path d="M3.1,14.7 C3.1,14.7 8.4,66.6 45.3,52.4 C82.2,38.2 52,-13.1 38.7,-18.3 C25.4,-23.5 -2.4,-12.7 3.1,14.7 Z" id="Shape" fill="#0880C4" fill-rule="nonzero" mask="url(#mask-2)"></path>
                    </g>
                    <path d="M44,31.9 C44,31.9 44.8,24 67.3,27.4 C89.8,30.8 87.2,19.8 87.2,19.8 C87.2,19.8 101.3,41.8 100.9,48.7 C100.5,55.6 108.8,27 99.9,16.4 C99.9,16.4 103.7,14.3 95.3,8 C86.9,1.7 61.9,-7.7 47.2,14 C34.3,33.1 44,31.9 44,31.9 Z" id="Shape" fill="#073447" fill-rule="nonzero"></path>
                    <path d="M97.1,38.2 C97.1,38.2 95,33.5 97.1,33.3 C99.2,33.2 103.1,37.5 101.8,40.8 C100.5,44.1 99.1,43.2 99.1,43.2" id="Shape" fill="#52A5D3" fill-rule="nonzero"></path>
                </g>
                <path d="M71,66.3 C71,66.3 74.1,62 78.5,62.7 C82.8,63.4 84.6,67.6 84.6,67.6 C84.6,67.6 80.8,70.1 77,69.9 C73.1,69.6 70.7,67.2 71,66.3 Z" id="Shape" fill="#C1E8FA" fill-rule="nonzero"></path>
                <path d="M75,62.9 C78.2,64.2 81.5,64.9 85,64.7 C88.2,64.5 88.2,59.5 85,59.7 C82.5,59.9 79.9,59.6 77.5,58.6 C76.2,58.1 74.8,58.2 74.1,59.5 C73.5,60.5 73.7,62.3 75,62.9 Z" id="Shape" fill="#52A5D3" fill-rule="nonzero"></path>
                <path d="M100.308736,25.0881717 C99.9838978,25.5348243 99.3584809,25.6335743 98.9118283,25.3087361 C98.4651757,24.9838978 98.3664257,24.3584809 98.6912639,23.9118283 L106.691264,12.9118283 C107.016102,12.4651757 107.641519,12.3664257 108.088172,12.6912639 C108.534824,13.0161022 108.633574,13.6415191 108.308736,14.0881717 L100.308736,25.0881717 Z" id="Line-2" fill="#073447" fill-rule="nonzero"></path>
                <path d="M108.088172,32.3087361 C107.641519,32.6335743 107.016102,32.5348243 106.691264,32.0881717 C106.366426,31.6415191 106.465176,31.0161022 106.911828,30.6912639 L117.911828,22.6912639 C118.358481,22.3664257 118.983898,22.4651757 119.308736,22.9118283 C119.633574,23.3584809 119.534824,23.9838978 119.088172,24.3087361 L108.088172,32.3087361 Z" id="Line-3" fill="#073447" fill-rule="nonzero"></path>
                <path d="M111.5,42.5 C110.947715,42.5 110.5,42.0522847 110.5,41.5 C110.5,40.9477153 110.947715,40.5 111.5,40.5 L123.5,40.5 C124.052285,40.5 124.5,40.9477153 124.5,41.5 C124.5,42.0522847 124.052285,42.5 123.5,42.5 L111.5,42.5 Z" id="Line" fill="#073447" fill-rule="nonzero"></path>
            </g>
            <text id="Can-the-pain-of-arthritis" font-family="LucidaGrande, Lucida Grande" font-size="14" font-weight="normal" letter-spacing="-0.098" fill="#FEFEFE">
                <tspan x="155" y="141">C</tspan>
                <tspan x="164.588523" y="141" letter-spacing="-0.07153247">an the pain of arthritis</tspan>
            </text>
            <rect id="Rectangle-3" fill="#F6F6F6" x="172" y="0" width="195" height="338" rx="35"></rect>
            <path d="M333.061,102 L333.063,102.003 L135.03,102.003 C131.713,102.003 129,104.685 129,107.962 L129,189.075 C129,192.353 131.713,195.035 135.03,195.035 L337.554,195.035 C340.87,195.035 343.583,192.353 343.583,189.075 L343.583,116.982 C343.743833,117.008511 346.618767,114.086644 349.777954,110.816702 C353.768684,106.686065 358.213,102 358.213,102 L333.061,102 Z" id="Fill-7" fill="#1080C4"></path>
            <g id="Group" transform="translate(184.000000, 32.000000)">
                <path d="M0.6936,0.8787 C0.6936,0.8787 6.7456,6.1237 7.5516,8.1417 C8.3596,10.1587 13.2006,0.8787 13.2006,0.8787 L0.6936,0.8787 Z" id="Fill-10" fill="#FEFEFE"></path>
                <path d="M105.1468,47.6805 L18.2738,47.6805 C12.8208,47.6805 8.3598,43.2195 8.3598,37.7655 L8.3598,10.7935 C8.3598,5.3405 12.8208,0.8785 18.2738,0.8785 L105.1468,0.8785 C110.5998,0.8785 115.0608,5.3405 115.0608,10.7935 L115.0608,37.7655 C115.0608,43.2195 110.5998,47.6805 105.1468,47.6805" id="Fill-12" fill="#FEFEFE"></path>
                <path d="M82.6018,15.9871 L22.6008,15.9871 C21.6828,15.9871 20.9308,15.2361 20.9308,14.3181 C20.9308,13.3991 21.6828,12.6481 22.6008,12.6481 L82.6018,12.6481 C83.5208,12.6481 84.2718,13.3991 84.2718,14.3181 C84.2718,15.2361 83.5208,15.9871 82.6018,15.9871" id="Fill-14" fill="#F2F2F2"></path>
                <path d="M53.1946,23.1932 L22.6356,23.1932 C21.6986,23.1932 20.9306,22.4262 20.9306,21.4882 C20.9306,20.5502 21.6986,19.7832 22.6356,19.7832 L53.1946,19.7832 C54.1316,19.7832 54.8996,20.5502 54.8996,21.4882 C54.8996,22.4262 54.1316,23.1932 53.1946,23.1932" id="Fill-16" fill="#F2F2F2"></path>
                <path d="M75.7864,23.1932 L63.4154,23.1932 C62.4774,23.1932 61.7104,22.4262 61.7104,21.4882 C61.7104,20.5502 62.4774,19.7832 63.4154,19.7832 L75.7864,19.7832 C76.7234,19.7832 77.4904,20.5502 77.4904,21.4882 C77.4904,22.4262 76.7234,23.1932 75.7864,23.1932" id="Fill-18" fill="#F2F2F2"></path>
            </g>
            <g id="Group-2" transform="translate(184.000000, 219.000000)">
                <path d="M159.6634,0.6221 L15.5234,0.6221 C15.3464,0.6221 15.1714,0.6371 14.9984,0.6581 L0.5354,0.6581 C0.5354,0.6581 7.2794,4.0921 11.2324,6.6781 L11.2324,63.3181 C11.2324,65.6771 13.1644,67.6091 15.5234,67.6091 L159.6634,67.6091 C162.0234,67.6091 163.9544,65.6771 163.9544,63.3181 L163.9544,4.9141 C163.9544,2.5531 162.0234,0.6221 159.6634,0.6221" id="Fill-136" fill="#FEFEFE" transform="translate(82.244900, 34.115600) scale(1, -1) translate(-82.244900, -34.115600) "></path>
                <path d="M112.0286,21.5557 L25.6766,21.5557 C24.4926,21.5557 23.5236,20.5867 23.5236,19.4027 L23.5236,18.9307 C23.5236,17.7457 24.4926,16.7767 25.6766,16.7767 L112.0286,16.7767 C113.2136,16.7767 114.1816,17.7457 114.1816,18.9307 L114.1816,19.4027 C114.1816,20.5867 113.2136,21.5557 112.0286,21.5557" id="Fill-138" fill="#F2F2F2"></path>
                <path d="M69.7014,31.8696 L25.9634,31.8696 C24.6214,31.8696 23.5234,30.7716 23.5234,29.4296 C23.5234,28.0876 24.6214,26.9896 25.9634,26.9896 L69.7014,26.9896 C71.0434,26.9896 72.1414,28.0876 72.1414,29.4296 C72.1414,30.7716 71.0434,31.8696 69.7014,31.8696" id="Fill-140" fill="#F2F2F2"></path>
                <path d="M102.0364,31.8696 L84.3304,31.8696 C82.9874,31.8696 81.8904,30.7716 81.8904,29.4296 C81.8904,28.0876 82.9874,26.9896 84.3304,26.9896 L102.0364,26.9896 C103.3784,26.9896 104.4764,28.0876 104.4764,29.4296 C104.4764,30.7716 103.3784,31.8696 102.0364,31.8696" id="Fill-142" fill="#F2F2F2"></path>
            </g>
            <g id="doctor" transform="translate(0.000000, 217.000000)">
                <circle id="Oval" stroke="#FFFFFF" stroke-width="5" fill="#ECF6F6" fill-rule="nonzero" cx="101.7" cy="114.3" r="81.7"></circle>
                <g id="Group">
                    <polygon id="Shape" fill="#FFFFFF" fill-rule="nonzero" points="0.2 163.8 191.5 163.8 243.5 223.7 35.5 223.7"></polygon>
                    <path d="M136.5,194.2 L111,212.7 C110.9,212.8 110.7,212.8 110.6,212.7 L72.6,190.2 L99.4,173.5 C99.5,173.4 99.6,173.4 99.8,173.5 L136.5,193.6 C136.7,193.7 136.8,194 136.5,194.2 Z" id="Shape" fill="#E0F0F7" fill-rule="nonzero"></path>
                    <path d="M191.5,187.8 L163,202.5 C163,202.5 163,202.5 162.9,202.5 L124.2,182.5 C124.1,182.5 124.1,182.4 124.2,182.4 L157.1,171.8 L191.5,187.8 C191.5,187.7 191.5,187.8 191.5,187.8 Z" id="Shape" fill="#D4ECF5" fill-rule="nonzero"></path>
                    <path d="M190.6,187.1 L162.9,201.3 C162.8,201.4 162.6,201.4 162.5,201.3 L124.7,181.8 C124.4,181.6 124.4,181.1 124.8,181 L156.9,170.7 L190.6,186.4 C190.9,186.5 190.9,187 190.6,187.1 Z" id="Shape" fill="#E0F0F7" fill-rule="nonzero"></path>
                    <path d="M54.1,149 C54.1,149 55.8,82.7 75,70.4 C98.7,55.2 137.9,71.3 151.7,85.4 C176.4,110.8 174.6,150.9 172.7,165.5 L58.9,165.6 L54.1,149 Z" id="Shape" fill="#E3E3E4" fill-rule="nonzero"></path>
                    <path d="M95,64.7 C68.4,62.7 41,85.9 27.9,111.7 C14.8,137.5 20.1,178.7 47.1,188.6 C61.9,194 79,193.3 79,193.3 C79,193.3 78,187.6 83.5,179.3 C83.5,179.3 50.6,172.2 59.1,148.8" id="Shape" fill="#E3E3E4" fill-rule="nonzero"></path>
                    <polygon id="Shape" fill="#37C0CD" fill-rule="nonzero" points="86 69.8 95.7 63 114.2 67.7 121 69.5 106.7 128.4 102.8 146.9 101.1 155.2"></polygon>
                    <path d="M93.6,62.3 C93.6,62.3 93,63.7 91.8,67 L88.1,68.5 C88.1,68.5 88.6,71 92.9,73 C96.6,74.7 99.3,74.9 104,74.8 C107.2,74.7 110.9,72.8 111.6,72 C112.1,71.3 110,68.1 109.9,66.7 C109.8,64.9 111.4,62.5 112.8,60.1 C114.3,57.7 93.6,62.3 93.6,62.3 Z" id="Shape" fill="#0880C4" fill-rule="nonzero"></path>
                    <path d="M88.1,157.6 L105.3,186.2 L110.5,190 L109.7,184.5 L91.9,155.3 C91.6,154.7 90.8,154.6 90.2,154.9 L88.5,156 C88,156.3 87.8,157 88.1,157.6 Z" id="Shape" fill="#FFCE43" fill-rule="nonzero"></path>
                    <path d="M83.1,179.3 L91.7,182 C92,182.1 92.7,181.4 92.8,181 C93.4,179.2 95.1,174.7 99.7,178.1 C99.7,178.1 101.3,174.5 104.3,177.5 C107.6,180.7 111.1,182.5 108.8,184.8 C107.4,186.2 104.8,183.9 104.8,183.9 C104.8,183.9 109.5,186.5 108.9,187.9 C108.3,189.3 107,189.5 106.2,189.1 C104.6,188.3 103.7,187.8 103.7,187.8 C103.7,187.8 104.9,189.7 104,190.4 C103,191.1 102.3,190.7 101.1,189.9 C99.9,189.1 99.6,188.8 98.1,189 C97.1,189.1 96.7,191 93.3,191.1 C91.8,191.2 90.4,189.7 89.2,190 C87.1,190.5 85.8,191.4 84,192.1 C81.4,193.1 78.5,193.3 78.5,193.3 C78.5,193.3 78,182.3 83.1,179.3 Z" id="Shape" fill="#0880C4" fill-rule="nonzero"></path>
                    <path d="M99.6,74.8 L102.9,80 C103,80.1 103,80.2 102.9,80.3 C102.9,80.3 97.3,98.7 96.9,101.4 C96.2,105.4 96.1,115.2 96.9,127.9 C97.8,140.9 101.2,154.2 101.2,154.2 L102.7,146.5 C102.7,146.5 109.1,118.9 109.5,116.8 C110.2,113.8 111.3,104 111.2,100.7 C111.1,96 105.4,79.7 105.4,79.7 C105.4,79.6 105.4,79.6 105.4,79.5 C105.4,79.5 106.1,78 106.3,77.4 C106.6,76.6 107.6,74 107.3,74.1 C106.4,74.4 105,74.7 103.9,74.7 C102.5,74.8 100.7,74.8 99.6,74.8 Z" id="Shape" fill="#4FDBD4" fill-rule="nonzero"></path>
                    <path d="M65,146.2 C63,146.2 59.6,145.9 56.7,144 C53.1,141.8 55.1,125.1 56.5,115.4 L59.5,115.8 C57.8,126.9 57,139.8 58.4,141.4 C61.8,143.5 66.3,143 66.4,143 L66.8,146 C66.6,146.1 65.9,146.2 65,146.2 Z" id="Shape" fill="#FFFFFF" fill-rule="nonzero"></path>
                    <path d="M70.4,144.3 C70.5,145.8 69.4,147 68,147.2 C66.6,147.4 65.4,146.3 65.4,144.8 C65.3,143.3 66.4,142.1 67.8,141.9 C69.2,141.8 70.4,142.9 70.4,144.3 Z" id="Shape" fill="#676868" fill-rule="nonzero"></path>
                    <g id="Clipped" transform="translate(76.000000, 13.000000)">
                        <mask id="mask-4" fill="white">
                            <use xlink:href="#path-3"></use>
                        </mask>
                        <g id="SVGID_35_"></g>
                        <path d="M42.9,9.8 C42.9,9.8 43.7,26.4 43.8,27.9 C44,29.4 44.2,32.8 43.6,34.6 C43,36.4 42.4,36.9 41.4,37.2 C40.4,37.5 39.5,37.4 39.5,37.4 C39.5,37.4 38.4,44 37.2,46.8 C36,49.6 34.3,53.2 33.5,54.4 C32.7,55.6 31.8,57.2 31.8,57.2 L46,59.8 L58.2,35.9 L60.2,18.9 L55.7,9.9 L52.9,3.8 L43.1,6.4 L42.9,9.8 Z" id="Shape" fill="#0C80C3" fill-rule="nonzero" mask="url(#mask-4)"></path>
                    </g>
                    <path d="M89,49.7 C89,49.7 77.9,53.1 76.9,34.5 C76,19.3 79.7,10.1 83,9.3 C83,9.3 82.5,5 85.3,5.6 C88.2,6.2 91.5,4.6 96,3.6 C105,1.6 116.9,3.05311332e-15 122.3,0.3 C127.8,0.6 133.1,1.5 136,5.6 C138.3,8.9 139.3,14.6 136.7,18.9 C134.7,22.1 125.1,26.6 125.1,26.6 L99.9,21.4 L97.4,43.5 L91.7,46 L86.8,37.3 L89,49.7 Z" id="Shape" fill="#073447" fill-rule="nonzero"></path>
                    <path d="M85.6,31.7 C84.3,31.1 81.3,30.6 80.2,33.9 C79.1,37.2 80,38.5 81.3,39.6 C82.6,40.7 84.2,40.9 84.2,40.9 C84.2,40.9 85.1,53 88.1,59 C91.1,65 99,70.8 107,70.3 C116.1,69.8 122.7,65.1 126.5,58.6 C130.3,52.1 133,41.6 133.5,35 C133.9,29.9 134.7,22.4 132.5,20.2 C130.4,18 128,21.2 126,21.9 C124,22.6 120.2,23.2 116.4,20.5 C112.6,17.8 108.7,15.4 105.7,14.4 C102.7,13.4 100.4,13.6 97.8,16.3 C95.9,18.3 95.2,21.1 95.1,23 C95,24.8 95,29.5 94.4,33.8 C93.8,38.1 92.9,42.2 92.9,42.2 C92.9,42.2 91,41.2 90.8,38.8 C90.6,36.4 90.2,32.4 89.9,30.8 C89.6,29.2 89.6,29.2 89.6,29.2 L87.7,32.9 C87.8,33.3 86.2,32 85.6,31.7 Z" id="Shape" fill="#52A5D3" fill-rule="nonzero"></path>
                    <path d="M99.4,33.1 C101.4,31.1 104.6,30.6 107.3,31.6 C110,32.6 112,34.9 112.9,37.6 C110.5,38.4 107.9,39.2 105.3,39 C102.7,38.8 100.1,37.5 99,35.1 C98.8,34.8 98.7,34.4 98.8,34.1 C98.9,33.7 99.2,33.4 99.4,33.1 Z" id="Shape" fill="#C1E8FA" fill-rule="nonzero"></path>
                    <g id="Clipped" transform="translate(110.000000, 18.000000)">
                        <mask id="mask-6" fill="white">
                            <use xlink:href="#path-5"></use>
                        </mask>
                        <g id="SVGID_37_"></g>
                        <path d="M-24.4,13.7 C-25.7,13.1 -28.7,12.6 -29.8,15.9 C-30.9,19.2 -30,20.5 -28.7,21.6 C-27.4,22.7 -25.8,22.9 -25.8,22.9 C-25.8,22.9 -24.9,35 -21.9,41 C-18.9,47 -11,52.8 -3,52.3 C6.1,51.8 12.7,47.1 16.5,40.6 C20.3,34.1 23,23.6 23.5,17 C23.9,11.9 24.7,4.4 22.5,2.2 C20.4,-7.10542736e-15 18,3.2 16,3.9 C14,4.6 10.2,5.2 6.4,2.5 C2.6,-0.2 -1.3,-2.6 -4.3,-3.6 C-7.3,-4.6 -9.6,-4.4 -12.2,-1.7 C-14.1,0.3 -14.8,3.1 -14.9,5 C-15,6.8 -15,11.5 -15.6,15.8 C-16.2,20.1 -17.1,24.2 -17.1,24.2 C-17.1,24.2 -19,23.2 -19.2,20.8 C-19.4,18.4 -19.8,14.4 -20.1,12.8 C-20.4,11.2 -20.4,11.2 -20.4,11.2 L-22.3,14.9 C-22.2,15.3 -23.8,14 -24.4,13.7 Z" id="Shape" fill="#0880C4" fill-rule="nonzero" mask="url(#mask-6)"></path>
                    </g>
                    <g transform="translate(151.000000, 159.000000)" fill="#0880C4" fill-rule="nonzero" id="Shape">
                        <path d="M13.9,2.2 C15.9,0.3 19.3,0.3 19.6,3.4 C19.7,4.5 18,8.1 16.4,10.8 C14.9,13.3 13.6,16 11.5,16.7 C8.3,17.8 8.4,14.3 9.2,11.8 C9.3,11.6 8.4,13.2 8.3,13.3 C6.9,15.4 4.9,16.2 3.5,15.4 C1.9,14.5 4.9,6.3 6.5,3.4 C9.4,-1.8 11.9,1.1 12.2,2.6 C12.2,2.7 12,4.9 12.1,4.8 C12.4,4.5 12.6,3.8 13.3,2.8 L13.9,2.2 Z"></path>
                        <path d="M14.2,13.9 C14.2,13.9 13.9,16.6 16.7,16 C18.9,15.6 21.7,12.7 22.6,11.1 C22.8,10.7 23.1,9.6 22.9,9.2 C22.5,8.4 21.6,7.6 19.8,8 C17.1,8.5 14.3,13.6 14.3,13.6"></path>
                        <path d="M5.2,8.1 C5.2,8.1 0.6,6.2 0.1,8.5 C-0.2,10.1 3.7,12 3.7,12 L5.2,8.1 Z"></path>
                    </g>
                    <path d="M81,70.5 C79,73.3 77.9,79.2 78.1,83.3 C78.3,87.9 80.2,93.3 82.3,98.6 C85.9,107.7 97.3,134.6 97.3,134.6 L88,64.7 C87.9,64.8 83,67.6 81,70.5 Z" id="Shape" fill="#EFEFEF" fill-rule="nonzero"></path>
                    <path d="M73,95.5 C73,95.2 72.6,86.5 74,79.5 C75.1,74.1 78.1,69.4 82.1,66.9 C85.1,65 88.9,64.7 92.6,64.7 C92.6,64.7 92.5,66.5 92.2,66.9 C91.8,67.4 87.8,66.9 86,67.6 C82.2,68.9 79.2,72.2 77.5,76.2 C74,84.8 75.5,95.9 75.5,96.1 L73,95.5 Z" id="Shape" fill="#676868" fill-rule="nonzero"></path>
                    <path d="M81.5,146.6 C80,146.6 79,146.4 78.9,146.4 L79.4,143.4 C79.4,143.4 84,144.2 87.5,142.1 C88.9,140.6 88.7,127.6 87.5,116.5 L90.5,116.2 C91.5,126 92.6,142.7 89,144.7 C86.4,146.3 83.5,146.6 81.5,146.6 Z" id="Shape" fill="#FFFFFF" fill-rule="nonzero"></path>
                    <path d="M87.6,116.6 C87.6,116.6 87.5,112.1 85.8,107.6 C83.6,101.8 79.7,98.6 74.4,98 C74,98 73.5,97.9 73.1,98 C67.7,98.3 63.9,101.3 61.5,107 C59.7,111.5 59.5,115.9 59.5,116 L56.5,115.9 C56.7,109 60.3,95.7 72.9,95 C73.5,95 74.1,95 74.7,95.1 C90.3,96.7 90.6,116.5 90.6,116.7 L87.6,116.6 Z" id="Shape" fill="#676868" fill-rule="nonzero"></path>
                    <path d="M74.5,144.5 C74.4,146 75.5,147.3 77,147.4 C78.5,147.5 79.8,146.5 79.9,145 C80,143.5 78.9,142.2 77.4,142.1 C75.9,141.9 74.6,143 74.5,144.5 Z" id="Shape" fill="#676868" fill-rule="nonzero"></path>
                </g>
                <circle id="Oval" fill="#676868" fill-rule="nonzero" cx="138.1" cy="114.5" r="7.6"></circle>
                <circle id="Oval" fill="#BFC7CB" fill-rule="nonzero" cx="138.1" cy="114.5" r="3.7"></circle>
                <path d="M104.6,141.4 C104.5,141.6 104.2,141.5 104.2,141.3 L114,99.6 L121.5,68.6 C121.5,68.6 127.4,71.3 129.5,74.6 C132,78.4 129.1,91.1 126.8,96.8 C124.6,102.2 108.3,134.1 104.6,141.4 Z" id="Shape" fill="#EFEFEF" fill-rule="nonzero"></path>
                <path d="M136.9,107.8 C136.9,107.7 137.3,98.7 135.1,89.1 C131.1,72 116,68.4 115.8,68.3 L118.6,66.9 C119.3,67.1 132.7,70.4 137.4,87.5 C140,97.3 139.3,107.4 139.2,107.8 L136.9,107.8 Z" id="Shape" fill="#676868" fill-rule="nonzero"></path>
            </g>
            <path d="M169.476562,139.841797 C169.353515,140.894537 168.96501,141.706866 168.311035,142.278809 C167.657061,142.850752 166.787766,143.136719 165.703125,143.136719 C164.527338,143.136719 163.585127,142.715173 162.876465,141.87207 C162.167802,141.028967 161.813477,139.901049 161.813477,138.488281 L161.813477,137.53125 C161.813477,136.606115 161.978677,135.792647 162.309082,135.09082 C162.639487,134.388994 163.107744,133.8501 163.713867,133.474121 C164.31999,133.098143 165.021806,132.910156 165.819336,132.910156 C166.876633,132.910156 167.724281,133.205238 168.362305,133.79541 C169.000329,134.385582 169.371744,135.202469 169.476562,136.246094 L168.157227,136.246094 C168.043294,135.453121 167.796063,134.878908 167.415527,134.523438 C167.034992,134.167967 166.502933,133.990234 165.819336,133.990234 C164.98079,133.990234 164.323407,134.300127 163.847168,134.919922 C163.370929,135.539717 163.132812,136.421544 163.132812,137.56543 L163.132812,138.529297 C163.132812,139.60938 163.358396,140.468421 163.80957,141.106445 C164.260744,141.744469 164.891923,142.063477 165.703125,142.063477 C166.432295,142.063477 166.991697,141.898276 167.381348,141.567871 C167.770998,141.237466 168.029622,140.662113 168.157227,139.841797 L169.476562,139.841797 Z M175.635742,143 C175.562825,142.854166 175.503581,142.594403 175.458008,142.220703 C174.870114,142.831383 174.168298,143.136719 173.352539,143.136719 C172.623369,143.136719 172.02523,142.930503 171.558105,142.518066 C171.090981,142.105629 170.857422,141.582685 170.857422,140.949219 C170.857422,140.179033 171.150225,139.580894 171.73584,139.154785 C172.321455,138.728676 173.145177,138.515625 174.207031,138.515625 L175.4375,138.515625 L175.4375,137.93457 C175.4375,137.492511 175.30534,137.140464 175.041016,136.878418 C174.776691,136.616372 174.387047,136.485352 173.87207,136.485352 C173.420896,136.485352 173.042645,136.599283 172.737305,136.827148 C172.431965,137.055014 172.279297,137.330728 172.279297,137.654297 L171.007812,137.654297 C171.007812,137.285154 171.138833,136.92855 171.400879,136.584473 C171.662924,136.240395 172.01839,135.9681 172.467285,135.767578 C172.916181,135.567056 173.409503,135.466797 173.947266,135.466797 C174.799483,135.466797 175.46712,135.679848 175.950195,136.105957 C176.433271,136.532066 176.683919,137.118811 176.702148,137.866211 L176.702148,141.270508 C176.702148,141.949548 176.788736,142.489581 176.961914,142.890625 L176.961914,143 L175.635742,143 Z M173.537109,142.036133 C173.933596,142.036133 174.309569,141.933595 174.665039,141.728516 C175.02051,141.523436 175.277994,141.256838 175.4375,140.928711 L175.4375,139.411133 L174.446289,139.411133 C172.896802,139.411133 172.12207,139.864579 172.12207,140.771484 C172.12207,141.167971 172.25423,141.477863 172.518555,141.701172 C172.782879,141.92448 173.122394,142.036133 173.537109,142.036133 Z M179.880859,135.603516 L179.921875,136.533203 C180.486982,135.822262 181.225256,135.466797 182.136719,135.466797 C183.699878,135.466797 184.488281,136.348624 184.501953,138.112305 L184.501953,143 L183.237305,143 L183.237305,138.105469 C183.232747,137.572263 183.110841,137.178061 182.871582,136.922852 C182.632323,136.667642 182.259768,136.540039 181.753906,136.540039 C181.343748,136.540039 180.983726,136.649413 180.673828,136.868164 C180.363931,137.086915 180.122397,137.374022 179.949219,137.729492 L179.949219,143 L178.68457,143 L178.68457,135.603516 L179.880859,135.603516 Z M191.064453,135.603516 L191.098633,136.423828 C191.640953,135.785804 192.372391,135.466797 193.292969,135.466797 C194.327479,135.466797 195.031574,135.863277 195.405273,136.65625 C195.651368,136.300779 195.971515,136.013673 196.365723,135.794922 C196.75993,135.576171 197.225909,135.466797 197.763672,135.466797 C199.386076,135.466797 200.210937,136.325838 200.238281,138.043945 L200.238281,143 L198.973633,143 L198.973633,138.119141 C198.973633,137.590492 198.852866,137.195151 198.611328,136.933105 C198.36979,136.67106 197.964196,136.540039 197.394531,136.540039 C196.925128,136.540039 196.535483,136.680174 196.225586,136.960449 C195.915689,137.240724 195.735677,137.617836 195.685547,138.091797 L195.685547,143 L194.414062,143 L194.414062,138.15332 C194.414062,137.077794 193.887701,136.540039 192.834961,136.540039 C192.00553,136.540039 191.438153,136.893226 191.132812,137.599609 L191.132812,143 L189.868164,143 L189.868164,135.603516 L191.064453,135.603516 Z M205.214844,143.136719 C204.212235,143.136719 203.396488,142.807458 202.767578,142.148926 C202.138669,141.490394 201.824219,140.609706 201.824219,139.506836 L201.824219,139.274414 C201.824219,138.540686 201.964354,137.885582 202.244629,137.309082 C202.524904,136.732582 202.916827,136.281414 203.42041,135.955566 C203.923993,135.629718 204.469724,135.466797 205.057617,135.466797 C206.019211,135.466797 206.766599,135.783525 207.299805,136.416992 C207.83301,137.050459 208.099609,137.957351 208.099609,139.137695 L208.099609,139.664062 L203.088867,139.664062 C203.107096,140.393233 203.320148,140.982257 203.728027,141.431152 C204.135907,141.880048 204.654294,142.104492 205.283203,142.104492 C205.72982,142.104492 206.108071,142.013347 206.417969,141.831055 C206.727866,141.648762 206.999022,141.407228 207.231445,141.106445 L208.003906,141.708008 C207.384111,142.660487 206.454433,143.136719 205.214844,143.136719 Z M205.057617,136.505859 C204.547198,136.505859 204.118817,136.691567 203.772461,137.062988 C203.426105,137.434409 203.211914,137.955075 203.129883,138.625 L206.834961,138.625 L206.834961,138.529297 C206.798502,137.886716 206.625327,137.388836 206.31543,137.035645 C206.005532,136.682453 205.586266,136.505859 205.057617,136.505859 Z M209.254883,139.240234 C209.254883,138.105463 209.52376,137.192875 210.061523,136.502441 C210.599287,135.812008 211.303381,135.466797 212.173828,135.466797 C213.039718,135.466797 213.725583,135.763018 214.231445,136.355469 L214.231445,132.5 L215.496094,132.5 L215.496094,143 L214.333984,143 L214.272461,142.207031 C213.766599,142.826826 213.062505,143.136719 212.160156,143.136719 C211.303381,143.136719 210.604983,142.785811 210.064941,142.083984 C209.5249,141.382158 209.254883,140.466151 209.254883,139.335938 L209.254883,139.240234 Z M210.519531,139.383789 C210.519531,140.222335 210.692707,140.878578 211.039062,141.352539 C211.385418,141.8265 211.863929,142.063477 212.474609,142.063477 C213.276697,142.063477 213.862303,141.703454 214.231445,140.983398 L214.231445,137.585938 C213.853188,136.888668 213.272139,136.540039 212.488281,136.540039 C211.868486,136.540039 211.385418,136.779294 211.039062,137.257812 C210.692707,137.736331 210.519531,138.444982 210.519531,139.383789 Z M218.832031,143 L217.567383,143 L217.567383,135.603516 L218.832031,135.603516 L218.832031,143 Z M217.464844,133.641602 C217.464844,133.436522 217.527506,133.263347 217.652832,133.12207 C217.778158,132.980794 217.963866,132.910156 218.209961,132.910156 C218.456056,132.910156 218.642903,132.980794 218.770508,133.12207 C218.898113,133.263347 218.961914,133.436522 218.961914,133.641602 C218.961914,133.846681 218.898113,134.017577 218.770508,134.154297 C218.642903,134.291016 218.456056,134.359375 218.209961,134.359375 C217.963866,134.359375 217.778158,134.291016 217.652832,134.154297 C217.527506,134.017577 217.464844,133.846681 217.464844,133.641602 Z M223.822266,142.104492 C224.27344,142.104492 224.667642,141.967775 225.004883,141.694336 C225.342124,141.420897 225.528971,141.079104 225.56543,140.668945 L226.761719,140.668945 C226.738932,141.092776 226.5931,141.496092 226.324219,141.878906 C226.055337,142.261721 225.696454,142.567056 225.247559,142.794922 C224.798663,143.022788 224.32357,143.136719 223.822266,143.136719 C222.815099,143.136719 222.014163,142.800622 221.419434,142.128418 C220.824704,141.456214 220.527344,140.53679 220.527344,139.370117 L220.527344,139.158203 C220.527344,138.438147 220.659504,137.797854 220.923828,137.237305 C221.188152,136.676755 221.567543,136.241538 222.062012,135.931641 C222.55648,135.621743 223.140947,135.466797 223.81543,135.466797 C224.644861,135.466797 225.334144,135.715167 225.883301,136.211914 C226.432457,136.708661 226.72526,137.353512 226.761719,138.146484 L225.56543,138.146484 C225.528971,137.667966 225.347821,137.274904 225.021973,136.967285 C224.696125,136.659666 224.293948,136.505859 223.81543,136.505859 C223.172848,136.505859 222.674969,136.73714 222.321777,137.199707 C221.968585,137.662274 221.791992,138.33105 221.791992,139.206055 L221.791992,139.445312 C221.791992,140.29753 221.967446,140.953774 222.318359,141.414062 C222.669273,141.874351 223.17057,142.104492 223.822266,142.104492 Z M229.557617,143 L228.292969,143 L228.292969,135.603516 L229.557617,135.603516 L229.557617,143 Z M228.19043,133.641602 C228.19043,133.436522 228.253092,133.263347 228.378418,133.12207 C228.503744,132.980794 228.689452,132.910156 228.935547,132.910156 C229.181642,132.910156 229.368489,132.980794 229.496094,133.12207 C229.623699,133.263347 229.6875,133.436522 229.6875,133.641602 C229.6875,133.846681 229.623699,134.017577 229.496094,134.154297 C229.368489,134.291016 229.181642,134.359375 228.935547,134.359375 C228.689452,134.359375 228.503744,134.291016 228.378418,134.154297 C228.253092,134.017577 228.19043,133.846681 228.19043,133.641602 Z M232.777344,135.603516 L232.818359,136.533203 C233.383466,135.822262 234.12174,135.466797 235.033203,135.466797 C236.596362,135.466797 237.384766,136.348624 237.398438,138.112305 L237.398438,143 L236.133789,143 L236.133789,138.105469 C236.129232,137.572263 236.007325,137.178061 235.768066,136.922852 C235.528807,136.667642 235.156253,136.540039 234.650391,136.540039 C234.240232,136.540039 233.88021,136.649413 233.570312,136.868164 C233.260415,137.086915 233.018881,137.374022 232.845703,137.729492 L232.845703,143 L231.581055,143 L231.581055,135.603516 L232.777344,135.603516 Z M242.375,143.136719 C241.372391,143.136719 240.556644,142.807458 239.927734,142.148926 C239.298825,141.490394 238.984375,140.609706 238.984375,139.506836 L238.984375,139.274414 C238.984375,138.540686 239.12451,137.885582 239.404785,137.309082 C239.68506,136.732582 240.076983,136.281414 240.580566,135.955566 C241.08415,135.629718 241.62988,135.466797 242.217773,135.466797 C243.179367,135.466797 243.926755,135.783525 244.459961,136.416992 C244.993167,137.050459 245.259766,137.957351 245.259766,139.137695 L245.259766,139.664062 L240.249023,139.664062 C240.267253,140.393233 240.480304,140.982257 240.888184,141.431152 C241.296063,141.880048 241.81445,142.104492 242.443359,142.104492 C242.889976,142.104492 243.268228,142.013347 243.578125,141.831055 C243.888022,141.648762 244.159179,141.407228 244.391602,141.106445 L245.164062,141.708008 C244.544268,142.660487 243.61459,143.136719 242.375,143.136719 Z M242.217773,136.505859 C241.707354,136.505859 241.278973,136.691567 240.932617,137.062988 C240.586261,137.434409 240.372071,137.955075 240.290039,138.625 L243.995117,138.625 L243.995117,138.529297 C243.958659,137.886716 243.785483,137.388836 243.475586,137.035645 C243.165689,136.682453 242.746422,136.505859 242.217773,136.505859 Z M251.029297,141.038086 C251.029297,140.696287 250.900555,140.430828 250.643066,140.241699 C250.385578,140.052571 249.936689,139.889649 249.296387,139.75293 C248.656084,139.61621 248.147951,139.452149 247.771973,139.260742 C247.395994,139.069335 247.118002,138.841473 246.937988,138.577148 C246.757974,138.312824 246.667969,137.998374 246.667969,137.633789 C246.667969,137.027666 246.924314,136.514976 247.437012,136.095703 C247.94971,135.67643 248.604814,135.466797 249.402344,135.466797 C250.24089,135.466797 250.921059,135.683266 251.442871,136.116211 C251.964684,136.549156 252.225586,137.102861 252.225586,137.777344 L250.954102,137.777344 C250.954102,137.430988 250.80713,137.132488 250.513184,136.881836 C250.219237,136.631184 249.848961,136.505859 249.402344,136.505859 C248.942055,136.505859 248.582033,136.606119 248.322266,136.806641 C248.062499,137.007162 247.932617,137.269204 247.932617,137.592773 C247.932617,137.898114 248.053384,138.128254 248.294922,138.283203 C248.53646,138.438152 248.972816,138.586262 249.604004,138.727539 C250.235192,138.868816 250.746743,139.037434 251.138672,139.233398 C251.530601,139.429363 251.821125,139.6652 252.010254,139.940918 C252.199382,140.216635 252.293945,140.552732 252.293945,140.949219 C252.293945,141.610029 252.029625,142.139809 251.500977,142.538574 C250.972328,142.937339 250.286463,143.136719 249.443359,143.136719 C248.850908,143.136719 248.326825,143.031902 247.871094,142.822266 C247.415362,142.612629 247.058758,142.319826 246.80127,141.943848 C246.543781,141.567869 246.415039,141.161135 246.415039,140.723633 L247.679688,140.723633 C247.702474,141.147463 247.872231,141.48356 248.188965,141.731934 C248.505698,141.980307 248.923826,142.104492 249.443359,142.104492 C249.921877,142.104492 250.305825,142.007651 250.595215,141.813965 C250.884604,141.620279 251.029297,141.361655 251.029297,141.038086 Z M258.671875,136.499023 C259.232425,135.810869 259.961584,135.466797 260.859375,135.466797 C262.422534,135.466797 263.210937,136.348624 263.224609,138.112305 L263.224609,143 L261.959961,143 L261.959961,138.105469 C261.955404,137.572263 261.833497,137.178061 261.594238,136.922852 C261.354979,136.667642 260.982424,136.540039 260.476562,136.540039 C260.066404,136.540039 259.706382,136.649413 259.396484,136.868164 C259.086587,137.086915 258.845053,137.374022 258.671875,137.729492 L258.671875,143 L257.407227,143 L257.407227,132.5 L258.671875,132.5 L258.671875,136.499023 Z M268.1875,143.136719 C267.184891,143.136719 266.369144,142.807458 265.740234,142.148926 C265.111325,141.490394 264.796875,140.609706 264.796875,139.506836 L264.796875,139.274414 C264.796875,138.540686 264.93701,137.885582 265.217285,137.309082 C265.49756,136.732582 265.889483,136.281414 266.393066,135.955566 C266.89665,135.629718 267.44238,135.466797 268.030273,135.466797 C268.991867,135.466797 269.739255,135.783525 270.272461,136.416992 C270.805667,137.050459 271.072266,137.957351 271.072266,139.137695 L271.072266,139.664062 L266.061523,139.664062 C266.079753,140.393233 266.292804,140.982257 266.700684,141.431152 C267.108563,141.880048 267.62695,142.104492 268.255859,142.104492 C268.702476,142.104492 269.080728,142.013347 269.390625,141.831055 C269.700522,141.648762 269.971679,141.407228 270.204102,141.106445 L270.976562,141.708008 C270.356768,142.660487 269.42709,143.136719 268.1875,143.136719 Z M268.030273,136.505859 C267.519854,136.505859 267.091473,136.691567 266.745117,137.062988 C266.398761,137.434409 266.184571,137.955075 266.102539,138.625 L269.807617,138.625 L269.807617,138.529297 C269.771159,137.886716 269.597983,137.388836 269.288086,137.035645 C268.978189,136.682453 268.558922,136.505859 268.030273,136.505859 Z M273.90918,143 L272.644531,143 L272.644531,132.5 L273.90918,132.5 L273.90918,143 Z M282.180664,139.383789 C282.180664,140.509446 281.92318,141.416338 281.408203,142.104492 C280.893227,142.792647 280.195968,143.136719 279.316406,143.136719 C278.418615,143.136719 277.712242,142.851891 277.197266,142.282227 L277.197266,145.84375 L275.932617,145.84375 L275.932617,135.603516 L277.087891,135.603516 L277.149414,136.423828 C277.664391,135.785804 278.379878,135.466797 279.295898,135.466797 C280.184575,135.466797 280.88753,135.801754 281.404785,136.47168 C281.92204,137.141605 282.180664,138.073562 282.180664,139.267578 L282.180664,139.383789 Z M280.916016,139.240234 C280.916016,138.406246 280.738283,137.747724 280.382812,137.264648 C280.027342,136.781573 279.539717,136.540039 278.919922,136.540039 C278.154293,136.540039 277.58008,136.879554 277.197266,137.558594 L277.197266,141.092773 C277.575523,141.767256 278.154293,142.104492 278.933594,142.104492 C279.539717,142.104492 280.021645,141.864097 280.379395,141.383301 C280.737144,140.902504 280.916016,140.188156 280.916016,139.240234 Z M288.442383,135.603516 L288.476562,136.423828 C289.018883,135.785804 289.750321,135.466797 290.670898,135.466797 C291.705409,135.466797 292.409503,135.863277 292.783203,136.65625 C293.029298,136.300779 293.349445,136.013673 293.743652,135.794922 C294.13786,135.576171 294.603838,135.466797 295.141602,135.466797 C296.764006,135.466797 297.588867,136.325838 297.616211,138.043945 L297.616211,143 L296.351562,143 L296.351562,138.119141 C296.351562,137.590492 296.230795,137.195151 295.989258,136.933105 C295.74772,136.67106 295.342125,136.540039 294.772461,136.540039 C294.303058,136.540039 293.913413,136.680174 293.603516,136.960449 C293.293618,137.240724 293.113607,137.617836 293.063477,138.091797 L293.063477,143 L291.791992,143 L291.791992,138.15332 C291.791992,137.077794 291.26563,136.540039 290.212891,136.540039 C289.383459,136.540039 288.816082,136.893226 288.510742,137.599609 L288.510742,143 L287.246094,143 L287.246094,135.603516 L288.442383,135.603516 Z M302.592773,143.136719 C301.590164,143.136719 300.774417,142.807458 300.145508,142.148926 C299.516598,141.490394 299.202148,140.609706 299.202148,139.506836 L299.202148,139.274414 C299.202148,138.540686 299.342284,137.885582 299.622559,137.309082 C299.902833,136.732582 300.294757,136.281414 300.79834,135.955566 C301.301923,135.629718 301.847653,135.466797 302.435547,135.466797 C303.39714,135.466797 304.144529,135.783525 304.677734,136.416992 C305.21094,137.050459 305.477539,137.957351 305.477539,139.137695 L305.477539,139.664062 L300.466797,139.664062 C300.485026,140.393233 300.698077,140.982257 301.105957,141.431152 C301.513837,141.880048 302.032223,142.104492 302.661133,142.104492 C303.10775,142.104492 303.486001,142.013347 303.795898,141.831055 C304.105796,141.648762 304.376952,141.407228 304.609375,141.106445 L305.381836,141.708008 C304.762041,142.660487 303.832363,143.136719 302.592773,143.136719 Z M302.435547,136.505859 C301.925128,136.505859 301.496747,136.691567 301.150391,137.062988 C300.804035,137.434409 300.589844,137.955075 300.507812,138.625 L304.212891,138.625 L304.212891,138.529297 C304.176432,137.886716 304.003257,137.388836 303.693359,137.035645 C303.383462,136.682453 302.964195,136.505859 302.435547,136.505859 Z M163.331055,164 L162.066406,164 L162.066406,153.5 L163.331055,153.5 L163.331055,164 Z M165.019531,160.233398 C165.019531,159.508785 165.161945,158.857099 165.446777,158.27832 C165.731609,157.699541 166.12809,157.252931 166.63623,156.938477 C167.144371,156.624022 167.724281,156.466797 168.375977,156.466797 C169.383143,156.466797 170.197751,156.815426 170.819824,157.512695 C171.441898,158.209964 171.75293,159.137364 171.75293,160.294922 L171.75293,160.383789 C171.75293,161.103845 171.615073,161.749834 171.339355,162.321777 C171.063638,162.89372 170.669436,163.339191 170.156738,163.658203 C169.64404,163.977215 169.055016,164.136719 168.389648,164.136719 C167.387039,164.136719 166.57471,163.788089 165.952637,163.09082 C165.330563,162.393551 165.019531,161.470709 165.019531,160.322266 L165.019531,160.233398 Z M166.291016,160.383789 C166.291016,161.204106 166.481281,161.862628 166.861816,162.359375 C167.242352,162.856122 167.751624,163.104492 168.389648,163.104492 C169.03223,163.104492 169.542641,162.852704 169.920898,162.349121 C170.299156,161.845538 170.488281,161.140304 170.488281,160.233398 C170.488281,159.422196 170.295738,158.764814 169.910645,158.26123 C169.525551,157.757647 169.014001,157.505859 168.375977,157.505859 C167.751624,157.505859 167.248049,157.754229 166.865234,158.250977 C166.48242,158.747724 166.291016,159.458654 166.291016,160.383789 Z M179.887695,162.256836 L181.30957,156.603516 L182.574219,156.603516 L180.420898,164 L179.395508,164 L177.597656,158.394531 L175.847656,164 L174.822266,164 L172.675781,156.603516 L173.933594,156.603516 L175.389648,162.140625 L177.112305,156.603516 L178.130859,156.603516 L179.887695,162.256836 Z M186.928711,164.136719 C185.926102,164.136719 185.110355,163.807458 184.481445,163.148926 C183.852536,162.490394 183.538086,161.609706 183.538086,160.506836 L183.538086,160.274414 C183.538086,159.540686 183.678221,158.885582 183.958496,158.309082 C184.238771,157.732582 184.630694,157.281414 185.134277,156.955566 C185.637861,156.629718 186.183591,156.466797 186.771484,156.466797 C187.733078,156.466797 188.480466,156.783525 189.013672,157.416992 C189.546878,158.050459 189.813477,158.957351 189.813477,160.137695 L189.813477,160.664062 L184.802734,160.664062 C184.820964,161.393233 185.034015,161.982257 185.441895,162.431152 C185.849774,162.880048 186.368161,163.104492 186.99707,163.104492 C187.443687,163.104492 187.821939,163.013347 188.131836,162.831055 C188.441733,162.648762 188.712889,162.407228 188.945312,162.106445 L189.717773,162.708008 C189.097979,163.660487 188.1683,164.136719 186.928711,164.136719 Z M186.771484,157.505859 C186.261065,157.505859 185.832684,157.691567 185.486328,158.062988 C185.139972,158.434409 184.925782,158.955075 184.84375,159.625 L188.548828,159.625 L188.548828,159.529297 C188.51237,158.886716 188.339194,158.388836 188.029297,158.035645 C187.719399,157.682453 187.300133,157.505859 186.771484,157.505859 Z M194.851562,157.738281 C194.660155,157.70638 194.452801,157.69043 194.229492,157.69043 C193.400061,157.69043 192.837241,158.043616 192.541016,158.75 L192.541016,164 L191.276367,164 L191.276367,156.603516 L192.506836,156.603516 L192.527344,157.458008 C192.942059,156.797197 193.529944,156.466797 194.291016,156.466797 C194.537111,156.466797 194.723958,156.498698 194.851562,156.5625 L194.851562,157.738281 Z M200.668945,156.603516 L200.703125,157.423828 C201.245445,156.785804 201.976883,156.466797 202.897461,156.466797 C203.931971,156.466797 204.636066,156.863277 205.009766,157.65625 C205.255861,157.300779 205.576007,157.013673 205.970215,156.794922 C206.364423,156.576171 206.830401,156.466797 207.368164,156.466797 C208.990568,156.466797 209.81543,157.325838 209.842773,159.043945 L209.842773,164 L208.578125,164 L208.578125,159.119141 C208.578125,158.590492 208.457358,158.195151 208.21582,157.933105 C207.974283,157.67106 207.568688,157.540039 206.999023,157.540039 C206.52962,157.540039 206.139976,157.680174 205.830078,157.960449 C205.520181,158.240724 205.34017,158.617836 205.290039,159.091797 L205.290039,164 L204.018555,164 L204.018555,159.15332 C204.018555,158.077794 203.492193,157.540039 202.439453,157.540039 C201.610022,157.540039 201.042645,157.893226 200.737305,158.599609 L200.737305,164 L199.472656,164 L199.472656,156.603516 L200.668945,156.603516 Z M214.169922,162.147461 L215.892578,156.603516 L217.246094,156.603516 L214.272461,165.141602 C213.812172,166.372076 213.080734,166.987305 212.078125,166.987305 L211.838867,166.966797 L211.367188,166.87793 L211.367188,165.852539 L211.708984,165.879883 C212.137372,165.879883 212.47119,165.793295 212.710449,165.620117 C212.949708,165.446939 213.146809,165.130211 213.301758,164.669922 L213.582031,163.917969 L210.943359,156.603516 L212.324219,156.603516 L214.169922,162.147461 Z M225.647461,161.956055 C225.647461,161.714517 225.527833,161.524252 225.288574,161.385254 C225.049315,161.246256 224.665367,161.122071 224.136719,161.012695 C222.377595,160.643553 221.498047,159.896164 221.498047,158.770508 C221.498047,158.114255 221.770342,157.566246 222.314941,157.126465 C222.85954,156.686684 223.57161,156.466797 224.451172,156.466797 C225.389979,156.466797 226.140785,156.687823 226.703613,157.129883 C227.266442,157.571942 227.547852,158.146155 227.547852,158.852539 L225.572266,158.852539 C225.572266,158.569986 225.481121,158.336427 225.298828,158.151855 C225.116536,157.967284 224.831708,157.875 224.444336,157.875 C224.111652,157.875 223.854168,157.950195 223.671875,158.100586 C223.489582,158.250977 223.398438,158.442382 223.398438,158.674805 C223.398438,158.893556 223.502115,159.070149 223.709473,159.20459 C223.91683,159.339031 224.266599,159.45524 224.758789,159.553223 C225.250979,159.651205 225.665688,159.761718 226.00293,159.884766 C227.046555,160.26758 227.568359,160.930659 227.568359,161.874023 C227.568359,162.548506 227.278974,163.094236 226.700195,163.51123 C226.121416,163.928225 225.374028,164.136719 224.458008,164.136719 C223.838213,164.136719 223.287926,164.026206 222.807129,163.805176 C222.326332,163.584146 221.94922,163.281089 221.675781,162.895996 C221.402342,162.510903 221.265625,162.095054 221.265625,161.648438 L223.138672,161.648438 C223.156901,161.999351 223.286783,162.268228 223.52832,162.455078 C223.769858,162.641928 224.093422,162.735352 224.499023,162.735352 C224.877281,162.735352 225.163248,162.663575 225.356934,162.52002 C225.550619,162.376464 225.647461,162.188478 225.647461,161.956055 Z M231.205078,154.785156 L231.205078,156.603516 L232.469727,156.603516 L232.469727,158.052734 L231.205078,158.052734 L231.205078,161.744141 C231.205078,162.017579 231.257486,162.213541 231.362305,162.332031 C231.467123,162.450521 231.667642,162.509766 231.963867,162.509766 C232.182618,162.509766 232.376301,162.493815 232.544922,162.461914 L232.544922,163.958984 C232.15755,164.077475 231.758791,164.136719 231.348633,164.136719 C229.963209,164.136719 229.256836,163.437181 229.229492,162.038086 L229.229492,158.052734 L228.149414,158.052734 L228.149414,156.603516 L229.229492,156.603516 L229.229492,154.785156 L231.205078,154.785156 Z M237.726562,158.456055 C237.457681,158.419596 237.220704,158.401367 237.015625,158.401367 C236.268225,158.401367 235.778321,158.654294 235.545898,159.160156 L235.545898,164 L233.570312,164 L233.570312,156.603516 L235.436523,156.603516 L235.491211,157.485352 C235.887697,156.806312 236.436845,156.466797 237.138672,156.466797 C237.357423,156.466797 237.562499,156.496419 237.753906,156.555664 L237.726562,158.456055 Z M242.081055,164.136719 C240.996414,164.136719 240.113447,163.80404 239.432129,163.138672 C238.75081,162.473304 238.410156,161.58692 238.410156,160.479492 L238.410156,160.288086 C238.410156,159.545244 238.55371,158.881025 238.84082,158.29541 C239.127931,157.709795 239.534665,157.258628 240.061035,156.941895 C240.587405,156.625161 241.187822,156.466797 241.862305,156.466797 C242.874028,156.466797 243.670407,156.785804 244.251465,157.423828 C244.832522,158.061852 245.123047,158.966465 245.123047,160.137695 L245.123047,160.944336 L240.413086,160.944336 C240.476888,161.427411 240.669432,161.814777 240.990723,162.106445 C241.312013,162.398113 241.718748,162.543945 242.210938,162.543945 C242.972009,162.543945 243.56673,162.268232 243.995117,161.716797 L244.96582,162.803711 C244.669595,163.222984 244.268557,163.549966 243.762695,163.784668 C243.256833,164.01937 242.696292,164.136719 242.081055,164.136719 Z M241.855469,158.066406 C241.46354,158.066406 241.145672,158.198566 240.901855,158.462891 C240.658039,158.727215 240.501953,159.105466 240.433594,159.597656 L243.181641,159.597656 L243.181641,159.44043 C243.172526,159.002927 243.054038,158.664552 242.826172,158.425293 C242.598306,158.186034 242.274742,158.066406 241.855469,158.066406 Z M250.25,161.956055 C250.25,161.714517 250.130372,161.524252 249.891113,161.385254 C249.651854,161.246256 249.267906,161.122071 248.739258,161.012695 C246.980134,160.643553 246.100586,159.896164 246.100586,158.770508 C246.100586,158.114255 246.372881,157.566246 246.91748,157.126465 C247.46208,156.686684 248.174149,156.466797 249.053711,156.466797 C249.992518,156.466797 250.743324,156.687823 251.306152,157.129883 C251.868981,157.571942 252.150391,158.146155 252.150391,158.852539 L250.174805,158.852539 C250.174805,158.569986 250.08366,158.336427 249.901367,158.151855 C249.719075,157.967284 249.434247,157.875 249.046875,157.875 C248.714191,157.875 248.456707,157.950195 248.274414,158.100586 C248.092121,158.250977 248.000977,158.442382 248.000977,158.674805 C248.000977,158.893556 248.104654,159.070149 248.312012,159.20459 C248.51937,159.339031 248.869138,159.45524 249.361328,159.553223 C249.853518,159.651205 250.268227,159.761718 250.605469,159.884766 C251.649094,160.26758 252.170898,160.930659 252.170898,161.874023 C252.170898,162.548506 251.881513,163.094236 251.302734,163.51123 C250.723955,163.928225 249.976567,164.136719 249.060547,164.136719 C248.440752,164.136719 247.890465,164.026206 247.409668,163.805176 C246.928871,163.584146 246.551759,163.281089 246.27832,162.895996 C246.004881,162.510903 245.868164,162.095054 245.868164,161.648438 L247.741211,161.648438 C247.75944,161.999351 247.889322,162.268228 248.130859,162.455078 C248.372397,162.641928 248.695962,162.735352 249.101562,162.735352 C249.47982,162.735352 249.765787,162.663575 249.959473,162.52002 C250.153159,162.376464 250.25,162.188478 250.25,161.956055 Z M257.448242,161.956055 C257.448242,161.714517 257.328614,161.524252 257.089355,161.385254 C256.850096,161.246256 256.466148,161.122071 255.9375,161.012695 C254.178377,160.643553 253.298828,159.896164 253.298828,158.770508 C253.298828,158.114255 253.571124,157.566246 254.115723,157.126465 C254.660322,156.686684 255.372391,156.466797 256.251953,156.466797 C257.19076,156.466797 257.941566,156.687823 258.504395,157.129883 C259.067223,157.571942 259.348633,158.146155 259.348633,158.852539 L257.373047,158.852539 C257.373047,158.569986 257.281902,158.336427 257.099609,158.151855 C256.917317,157.967284 256.632489,157.875 256.245117,157.875 C255.912433,157.875 255.654949,157.950195 255.472656,158.100586 C255.290364,158.250977 255.199219,158.442382 255.199219,158.674805 C255.199219,158.893556 255.302896,159.070149 255.510254,159.20459 C255.717612,159.339031 256.06738,159.45524 256.55957,159.553223 C257.05176,159.651205 257.46647,159.761718 257.803711,159.884766 C258.847336,160.26758 259.369141,160.930659 259.369141,161.874023 C259.369141,162.548506 259.079755,163.094236 258.500977,163.51123 C257.922198,163.928225 257.174809,164.136719 256.258789,164.136719 C255.638994,164.136719 255.088707,164.026206 254.60791,163.805176 C254.127113,163.584146 253.750001,163.281089 253.476562,162.895996 C253.203124,162.510903 253.066406,162.095054 253.066406,161.648438 L254.939453,161.648438 C254.957682,161.999351 255.087564,162.268228 255.329102,162.455078 C255.570639,162.641928 255.894204,162.735352 256.299805,162.735352 C256.678062,162.735352 256.964029,162.663575 257.157715,162.52002 C257.351401,162.376464 257.448242,162.188478 257.448242,161.956055 Z M266.211914,164 L264.229492,164 L264.229492,153.5 L266.211914,153.5 L266.211914,164 Z M271.243164,164.136719 C270.158523,164.136719 269.275557,163.80404 268.594238,163.138672 C267.91292,162.473304 267.572266,161.58692 267.572266,160.479492 L267.572266,160.288086 C267.572266,159.545244 267.715819,158.881025 268.00293,158.29541 C268.29004,157.709795 268.696775,157.258628 269.223145,156.941895 C269.749514,156.625161 270.349932,156.466797 271.024414,156.466797 C272.036138,156.466797 272.832517,156.785804 273.413574,157.423828 C273.994632,158.061852 274.285156,158.966465 274.285156,160.137695 L274.285156,160.944336 L269.575195,160.944336 C269.638998,161.427411 269.831541,161.814777 270.152832,162.106445 C270.474123,162.398113 270.880857,162.543945 271.373047,162.543945 C272.134118,162.543945 272.728839,162.268232 273.157227,161.716797 L274.12793,162.803711 C273.831704,163.222984 273.430667,163.549966 272.924805,163.784668 C272.418943,164.01937 271.858402,164.136719 271.243164,164.136719 Z M271.017578,158.066406 C270.625649,158.066406 270.307781,158.198566 270.063965,158.462891 C269.820149,158.727215 269.664063,159.105466 269.595703,159.597656 L272.34375,159.597656 L272.34375,159.44043 C272.334635,159.002927 272.216147,158.664552 271.988281,158.425293 C271.760416,158.186034 271.436851,158.066406 271.017578,158.066406 Z M278.174805,161.586914 L279.548828,156.603516 L281.613281,156.603516 L279.118164,164 L277.231445,164 L274.736328,156.603516 L276.800781,156.603516 L278.174805,161.586914 Z M285.885742,164.136719 C284.801101,164.136719 283.918135,163.80404 283.236816,163.138672 C282.555498,162.473304 282.214844,161.58692 282.214844,160.479492 L282.214844,160.288086 C282.214844,159.545244 282.358397,158.881025 282.645508,158.29541 C282.932619,157.709795 283.339353,157.258628 283.865723,156.941895 C284.392092,156.625161 284.99251,156.466797 285.666992,156.466797 C286.678716,156.466797 287.475095,156.785804 288.056152,157.423828 C288.63721,158.061852 288.927734,158.966465 288.927734,160.137695 L288.927734,160.944336 L284.217773,160.944336 C284.281576,161.427411 284.474119,161.814777 284.79541,162.106445 C285.116701,162.398113 285.523435,162.543945 286.015625,162.543945 C286.776697,162.543945 287.371417,162.268232 287.799805,161.716797 L288.770508,162.803711 C288.474282,163.222984 288.073245,163.549966 287.567383,163.784668 C287.061521,164.01937 286.50098,164.136719 285.885742,164.136719 Z M285.660156,158.066406 C285.268227,158.066406 284.950359,158.198566 284.706543,158.462891 C284.462727,158.727215 284.306641,159.105466 284.238281,159.597656 L286.986328,159.597656 L286.986328,159.44043 C286.977213,159.002927 286.858725,158.664552 286.630859,158.425293 C286.402994,158.186034 286.079429,158.066406 285.660156,158.066406 Z M292.133789,164 L290.151367,164 L290.151367,153.5 L292.133789,153.5 L292.133789,164 Z M295.374023,160.944336 C295.374023,160.306312 295.451497,159.798179 295.606445,159.419922 C295.761394,159.041665 296.045083,158.66911 296.45752,158.302246 C296.869956,157.935382 297.144531,157.636883 297.28125,157.406738 C297.417969,157.176594 297.486328,156.933921 297.486328,156.678711 C297.486328,155.908525 297.130863,155.523438 296.419922,155.523438 C296.082681,155.523438 295.812664,155.627115 295.609863,155.834473 C295.407063,156.04183 295.301107,156.327798 295.291992,156.692383 L293.30957,156.692383 C293.318685,155.821936 293.600095,155.140627 294.153809,154.648438 C294.707522,154.156248 295.462886,153.910156 296.419922,153.910156 C297.386073,153.910156 298.13574,154.143715 298.668945,154.61084 C299.202151,155.077965 299.46875,155.737626 299.46875,156.589844 C299.46875,156.977215 299.382162,157.342934 299.208984,157.687012 C299.035806,158.031089 298.73275,158.412758 298.299805,158.832031 L297.746094,159.358398 C297.399738,159.691082 297.201498,160.080727 297.151367,160.527344 L297.124023,160.944336 L295.374023,160.944336 Z M295.175781,163.042969 C295.175781,162.737629 295.279459,162.485841 295.486816,162.287598 C295.694174,162.089354 295.959634,161.990234 296.283203,161.990234 C296.606772,161.990234 296.872232,162.089354 297.07959,162.287598 C297.286948,162.485841 297.390625,162.737629 297.390625,163.042969 C297.390625,163.343752 297.289226,163.592121 297.086426,163.788086 C296.883625,163.98405 296.615887,164.082031 296.283203,164.082031 C295.950519,164.082031 295.682781,163.98405 295.47998,163.788086 C295.27718,163.592121 295.175781,163.343752 295.175781,163.042969 Z" id="Can-medicines-help-m" fill="#FEFEFE"></path>
        </g>
    </g>
</svg>